{"glyphs":{"0":{"ha":772,"x_min":65,"x_max":707,"o":"m 385 -19 q 135 140 204 -19 q 65 524 65 299 q 134 904 65 747 q 385 1061 203 1061 q 637 904 567 1061 q 707 525 707 747 q 637 140 707 300 q 385 -19 567 -19 m 385 144 q 456 176 429 144 q 497 299 483 208 q 511 560 511 389 q 487 810 511 724 q 385 897 463 897 q 284 813 307 897 q 261 576 261 729 q 274 306 261 399 q 313 178 286 213 q 385 144 339 144 z "},"1":{"ha":631,"x_min":97,"x_max":571,"o":"m 107 0 l 107 171 l 240 171 l 240 788 l 97 757 l 97 903 l 335 1042 l 435 1042 l 435 171 l 571 171 l 563 0 l 107 0 z "},"2":{"ha":724,"x_min":58,"x_max":674,"o":"m 81 151 q 200 296 117 199 q 345 472 290 399 q 438 624 400 544 q 476 781 476 704 q 449 860 476 824 q 369 897 422 897 q 276 847 317 897 q 225 725 236 796 l 58 779 q 114 919 72 854 q 222 1022 156 983 q 374 1061 289 1061 q 529 1025 461 1061 q 635 924 597 989 q 674 778 674 860 q 571 478 674 628 q 306 171 468 328 l 665 171 l 649 0 l 81 0 l 81 151 z "},"3":{"ha":724,"x_min":32,"x_max":656,"o":"m 347 -19 q 146 37 232 -19 q 32 203 60 93 l 181 268 q 244 173 204 201 q 338 144 283 144 q 425 183 390 144 q 460 299 460 222 q 402 431 460 397 q 239 465 344 465 l 239 601 q 385 646 328 601 q 444 778 443 690 l 444 779 q 410 867 444 835 q 328 899 375 899 q 250 873 286 899 q 196 799 214 847 l 57 878 q 178 1017 103 974 q 356 1061 253 1061 q 494 1030 429 1061 q 601 938 560 999 q 642 794 642 878 q 597 641 642 704 q 467 549 553 578 q 605 451 554 521 q 656 279 656 381 q 613 119 656 186 q 499 16 569 51 q 347 -19 429 -19 z "},"4":{"ha":724,"x_min":33,"x_max":708,"o":"m 382 -8 l 382 261 l 33 261 l 33 417 l 374 1042 l 578 1042 l 578 417 l 708 417 l 692 261 l 578 261 l 578 8 l 382 -8 m 196 417 l 382 417 l 382 782 l 196 417 z "},"5":{"ha":724,"x_min":67,"x_max":690,"o":"m 378 -19 q 180 45 268 -19 q 67 228 92 110 l 224 286 q 274 188 233 231 q 374 144 315 144 q 468 199 433 144 q 503 325 503 253 q 465 451 503 399 q 356 503 428 503 q 292 486 322 503 q 238 435 261 469 l 99 481 l 157 1042 l 642 1042 l 625 879 l 310 879 l 278 636 q 419 664 351 664 q 558 619 496 664 q 655 500 619 575 q 690 338 690 425 q 650 155 690 236 q 538 27 610 74 q 378 -19 467 -19 z "},"6":{"ha":724,"x_min":75,"x_max":667,"o":"m 368 -19 q 140 138 204 -19 q 75 492 75 294 q 113 777 75 647 q 224 984 150 907 q 401 1061 297 1061 q 559 994 496 1061 q 639 808 622 928 l 488 774 q 478 815 486 779 q 449 874 471 850 q 396 897 428 897 q 274 579 274 897 q 349 619 307 604 q 433 633 392 633 q 556 594 503 633 q 638 487 610 554 q 667 340 667 419 q 630 167 667 250 q 525 33 593 85 q 368 -19 457 -19 m 371 144 q 451 197 426 144 q 475 315 475 250 q 449 424 475 381 q 367 468 422 468 q 325 461 346 468 q 275 438 304 454 q 272 363 272 385 q 296 198 272 251 q 371 144 319 144 z "},"7":{"ha":724,"x_min":81,"x_max":658,"o":"m 179 0 q 257 414 196 199 q 419 874 318 629 l 81 874 l 96 1042 l 658 1042 l 658 897 q 471 427 538 661 q 404 0 404 193 l 179 0 z "},"8":{"ha":724,"x_min":50,"x_max":674,"o":"m 488 571 q 626 451 579 514 q 674 292 674 389 q 631 128 674 199 q 515 19 588 57 q 354 -19 442 -19 q 206 12 275 -19 q 93 105 136 43 q 50 256 50 167 q 97 419 50 349 q 224 533 144 489 q 116 635 151 576 q 81 772 81 693 q 119 923 81 857 q 222 1025 157 989 q 368 1061 288 1061 q 502 1031 440 1061 q 600 944 564 1000 q 636 814 636 888 q 595 674 636 736 q 488 571 554 613 m 368 897 q 292 871 322 897 q 263 797 263 844 q 294 708 263 747 q 369 642 326 668 q 471 794 471 706 q 444 869 471 842 q 368 897 417 897 m 361 144 q 447 172 414 144 q 479 263 479 200 q 335 457 479 390 q 246 276 246 390 q 361 144 246 144 z "},"9":{"ha":724,"x_min":68,"x_max":657,"o":"m 332 -19 q 174 47 238 -19 q 93 233 111 113 l 246 269 q 261 206 254 229 q 287 164 268 183 q 339 144 306 144 q 433 228 408 144 q 460 450 457 313 q 384 412 428 426 q 301 397 340 397 q 178 442 231 397 q 97 559 125 486 q 68 714 68 632 q 105 888 68 808 q 208 1014 142 967 q 361 1061 275 1061 q 592 901 526 1061 q 657 539 657 742 q 617 249 657 375 q 504 51 578 122 q 332 -19 431 -19 m 371 561 q 460 592 413 561 q 463 661 463 618 q 442 831 463 764 q 364 897 422 897 q 287 842 311 897 q 263 719 263 786 q 288 607 263 653 q 371 561 314 561 z "},"\u0000":{"ha":0,"x_min":0,"x_max":0,"o":""},"\r":{"ha":339,"x_min":0,"x_max":0,"o":""}," ":{"ha":339,"x_min":0,"x_max":0,"o":""},"A":{"ha":767,"x_min":17,"x_max":751,"o":"m 17 0 l 236 1029 l 526 1042 l 751 8 l 529 0 l 492 224 l 243 224 l 199 0 l 17 0 m 281 390 l 454 390 l 358 889 l 281 390 z "},"Á":{"ha":767,"x_min":17,"x_max":751,"o":"m 17 0 l 236 1029 l 526 1042 l 751 8 l 529 0 l 492 224 l 243 224 l 199 0 l 17 0 m 281 390 l 454 390 l 358 889 l 281 390 m 406 1101 l 333 1171 l 514 1444 l 657 1313 l 406 1101 z "},"Ă":{"ha":767,"x_min":17,"x_max":751,"o":"m 17 0 l 236 1029 l 526 1042 l 751 8 l 529 0 l 492 224 l 243 224 l 199 0 l 17 0 m 281 390 l 454 390 l 358 889 l 281 390 m 386 1131 q 237 1185 288 1131 q 176 1333 186 1240 l 293 1333 q 301 1306 294 1329 q 328 1270 308 1282 q 383 1258 349 1258 q 435 1269 418 1258 q 458 1291 453 1279 q 472 1333 463 1303 l 589 1333 q 529 1186 579 1242 q 386 1131 479 1131 z "},"Ắ":{"ha":767,"x_min":17,"x_max":751,"o":"m 17 0 l 236 1029 l 526 1042 l 751 8 l 529 0 l 492 224 l 243 224 l 199 0 l 17 0 m 281 390 l 454 390 l 358 889 l 281 390 m 374 1129 q 224 1184 275 1129 q 164 1332 174 1239 l 281 1332 q 289 1304 282 1328 q 316 1269 296 1281 q 371 1257 336 1257 q 423 1267 406 1257 q 445 1290 440 1278 q 460 1332 450 1301 l 576 1332 q 517 1185 567 1240 q 374 1129 467 1129 m 378 1356 l 306 1425 l 486 1699 l 629 1567 l 378 1356 z "},"Ặ":{"ha":767,"x_min":17,"x_max":751,"o":"m 17 0 l 236 1029 l 526 1042 l 751 8 l 529 0 l 492 224 l 243 224 l 199 0 l 17 0 m 281 390 l 454 390 l 358 889 l 281 390 m 386 1131 q 237 1185 288 1131 q 176 1333 186 1240 l 293 1333 q 301 1306 294 1329 q 328 1270 308 1282 q 383 1258 349 1258 q 435 1269 418 1258 q 458 1291 453 1279 q 472 1333 463 1303 l 589 1333 q 529 1186 579 1242 q 386 1131 479 1131 m 285 -306 l 285 -110 l 481 -110 l 481 -306 l 285 -306 z "},"Ằ":{"ha":767,"x_min":17,"x_max":751,"o":"m 17 0 l 236 1029 l 526 1042 l 751 8 l 529 0 l 492 224 l 243 224 l 199 0 l 17 0 m 281 390 l 454 390 l 358 889 l 281 390 m 393 1129 q 244 1184 294 1129 q 183 1332 193 1239 l 300 1332 q 308 1304 301 1328 q 335 1269 315 1281 q 390 1257 356 1257 q 442 1267 425 1257 q 465 1290 460 1278 q 479 1332 469 1301 l 596 1332 q 536 1185 586 1240 q 393 1129 486 1129 m 389 1350 l 138 1561 l 281 1693 l 461 1419 l 389 1350 z "},"Ẳ":{"ha":767,"x_min":17,"x_max":751,"o":"m 17 0 l 236 1029 l 526 1042 l 751 8 l 529 0 l 492 224 l 243 224 l 199 0 l 17 0 m 281 390 l 454 390 l 358 889 l 281 390 m 383 1129 q 234 1184 285 1129 q 174 1332 183 1239 l 290 1332 q 299 1304 292 1328 q 326 1269 306 1281 q 381 1257 346 1257 q 433 1267 415 1257 q 455 1290 450 1278 q 469 1332 460 1301 l 586 1332 q 526 1185 576 1240 q 383 1129 476 1129 m 317 1364 q 315 1379 315 1369 q 335 1440 315 1415 q 388 1493 354 1465 q 417 1519 407 1508 q 426 1540 426 1531 q 393 1572 426 1572 q 344 1519 351 1572 l 219 1522 q 244 1597 221 1561 q 307 1656 267 1633 q 397 1679 347 1679 q 519 1641 474 1679 q 564 1540 564 1603 q 546 1483 564 1504 q 492 1435 528 1461 q 451 1401 464 1415 q 438 1365 438 1386 l 438 1364 l 317 1364 z "},"Ẵ":{"ha":767,"x_min":17,"x_max":751,"o":"m 17 0 l 236 1029 l 526 1042 l 751 8 l 529 0 l 492 224 l 243 224 l 199 0 l 17 0 m 281 390 l 454 390 l 358 889 l 281 390 m 389 1129 q 240 1184 290 1129 q 179 1332 189 1239 l 296 1332 q 304 1304 297 1328 q 331 1269 311 1281 q 386 1257 351 1257 q 438 1267 421 1257 q 460 1290 456 1278 q 475 1332 465 1301 l 592 1332 q 532 1185 582 1240 q 389 1129 482 1129 m 489 1368 q 449 1376 467 1368 q 401 1401 431 1385 q 356 1428 375 1419 q 313 1436 336 1436 q 194 1368 256 1436 l 185 1493 q 251 1553 219 1531 q 321 1575 283 1575 q 358 1569 340 1575 q 404 1549 375 1563 q 449 1528 431 1535 q 489 1521 468 1521 q 547 1538 519 1521 q 586 1575 574 1554 l 617 1465 q 599 1436 617 1461 q 552 1390 581 1411 q 489 1368 524 1368 z "},"Â":{"ha":767,"x_min":17,"x_max":751,"o":"m 17 0 l 236 1029 l 526 1042 l 751 8 l 529 0 l 492 224 l 243 224 l 199 0 l 17 0 m 281 390 l 454 390 l 358 889 l 281 390 m 156 1107 l 318 1433 l 454 1433 l 611 1107 l 442 1107 l 376 1304 l 297 1107 l 156 1107 z "},"Ấ":{"ha":767,"x_min":17,"x_max":818,"o":"m 17 0 l 236 1029 l 526 1042 l 751 8 l 529 0 l 492 224 l 243 224 l 199 0 l 17 0 m 281 390 l 454 390 l 358 889 l 281 390 m 682 1521 l 818 1407 l 622 1243 l 557 1294 l 682 1521 m 318 1376 l 454 1376 l 611 1133 l 442 1133 l 376 1268 l 297 1133 l 156 1133 l 318 1376 z "},"Ậ":{"ha":767,"x_min":17,"x_max":751,"o":"m 17 0 l 236 1029 l 526 1042 l 751 8 l 529 0 l 492 224 l 243 224 l 199 0 l 17 0 m 281 390 l 454 390 l 358 889 l 281 390 m 156 1107 l 318 1433 l 454 1433 l 611 1107 l 442 1107 l 376 1304 l 297 1107 l 156 1107 m 285 -306 l 285 -110 l 481 -110 l 481 -306 l 285 -306 z "},"Ầ":{"ha":767,"x_min":-40,"x_max":751,"o":"m 17 0 l 236 1029 l 526 1042 l 751 8 l 529 0 l 492 224 l 243 224 l 199 0 l 17 0 m 281 390 l 454 390 l 358 889 l 281 390 m 96 1493 l 221 1267 l 156 1215 l -40 1379 l 96 1493 m 621 1106 l 451 1106 l 386 1240 l 307 1106 l 165 1106 l 328 1349 l 464 1349 l 621 1106 z "},"Ẩ":{"ha":767,"x_min":17,"x_max":835,"o":"m 17 0 l 236 1029 l 526 1042 l 751 8 l 529 0 l 492 224 l 243 224 l 199 0 l 17 0 m 281 390 l 454 390 l 358 889 l 281 390 m 699 1497 l 835 1383 l 639 1219 l 574 1271 l 699 1497 m 335 1353 l 471 1353 l 628 1110 l 458 1110 l 393 1244 l 314 1110 l 172 1110 l 335 1353 z "},"Ẫ":{"ha":767,"x_min":17,"x_max":751,"o":"m 17 0 l 236 1029 l 526 1042 l 751 8 l 529 0 l 492 224 l 243 224 l 199 0 l 17 0 m 281 390 l 454 390 l 358 889 l 281 390 m 319 1456 q 201 1388 263 1456 l 192 1513 q 258 1572 226 1550 q 328 1594 290 1594 q 365 1588 347 1594 q 411 1568 382 1582 q 456 1547 438 1554 q 496 1540 475 1540 q 553 1557 526 1540 q 593 1594 581 1574 l 624 1485 q 606 1456 624 1481 q 559 1409 588 1431 q 496 1388 531 1388 q 456 1396 474 1388 q 408 1421 438 1404 q 363 1447 382 1439 q 319 1456 343 1456 m 328 1349 l 464 1349 l 621 1106 l 451 1106 l 386 1240 l 307 1106 l 165 1106 l 328 1349 z "},"Ȁ":{"ha":767,"x_min":8,"x_max":751,"o":"m 17 0 l 236 1029 l 526 1042 l 751 8 l 529 0 l 492 224 l 243 224 l 199 0 l 17 0 m 281 390 l 454 390 l 358 889 l 281 390 m 525 1107 l 326 1418 l 510 1513 l 618 1156 l 525 1107 m 269 1106 l 8 1367 l 167 1499 l 350 1172 l 269 1106 z "},"Ä":{"ha":767,"x_min":17,"x_max":751,"o":"m 17 0 l 236 1029 l 526 1042 l 751 8 l 529 0 l 492 224 l 243 224 l 199 0 l 17 0 m 281 390 l 454 390 l 358 889 l 281 390 m 122 1133 l 122 1329 l 318 1329 l 318 1133 l 122 1133 m 447 1133 l 447 1329 l 643 1329 l 643 1133 l 447 1133 z "},"Ạ":{"ha":767,"x_min":17,"x_max":751,"o":"m 17 0 l 236 1029 l 526 1042 l 751 8 l 529 0 l 492 224 l 243 224 l 199 0 l 17 0 m 281 390 l 454 390 l 358 889 l 281 390 m 285 -306 l 285 -110 l 481 -110 l 481 -306 l 285 -306 z "},"À":{"ha":767,"x_min":17,"x_max":751,"o":"m 17 0 l 236 1029 l 526 1042 l 751 8 l 529 0 l 492 224 l 243 224 l 199 0 l 17 0 m 281 390 l 454 390 l 358 889 l 281 390 m 379 1101 l 128 1313 l 271 1444 l 451 1171 l 379 1101 z "},"Ả":{"ha":767,"x_min":17,"x_max":751,"o":"m 17 0 l 236 1029 l 526 1042 l 751 8 l 529 0 l 492 224 l 243 224 l 199 0 l 17 0 m 281 390 l 454 390 l 358 889 l 281 390 m 328 1097 q 326 1113 326 1103 q 346 1174 326 1149 q 399 1226 365 1199 q 428 1253 418 1242 q 438 1274 438 1264 q 404 1306 438 1306 q 356 1253 363 1306 l 231 1256 q 255 1331 232 1294 q 318 1390 278 1367 q 408 1413 358 1413 q 530 1374 485 1413 q 575 1274 575 1336 q 557 1216 575 1238 q 503 1168 539 1194 q 462 1134 475 1149 q 449 1099 449 1119 l 449 1097 l 328 1097 z "},"Ȃ":{"ha":767,"x_min":17,"x_max":751,"o":"m 17 0 l 236 1029 l 526 1042 l 751 8 l 529 0 l 492 224 l 243 224 l 199 0 l 17 0 m 281 390 l 454 390 l 358 889 l 281 390 m 90 1106 q 118 1253 90 1178 q 212 1380 146 1328 q 383 1432 278 1432 q 554 1380 489 1432 q 647 1253 619 1328 q 675 1106 675 1178 l 513 1106 q 506 1186 513 1153 q 472 1244 500 1219 q 383 1269 443 1269 q 294 1244 324 1269 q 259 1186 265 1219 q 253 1106 253 1153 l 90 1106 z "},"Ā":{"ha":767,"x_min":17,"x_max":751,"o":"m 17 0 l 236 1029 l 526 1042 l 751 8 l 529 0 l 492 224 l 243 224 l 199 0 l 17 0 m 281 390 l 454 390 l 358 889 l 281 390 m 188 1106 l 188 1236 l 578 1236 l 578 1106 l 188 1106 z "},"Ą":{"ha":767,"x_min":17,"x_max":796,"o":"m 796 -125 q 717 -224 769 -186 q 604 -261 664 -261 q 531 -240 565 -261 q 474 -186 496 -219 q 453 -117 453 -153 q 522 38 453 -17 l 492 224 l 243 224 l 199 0 l 17 0 l 236 1029 l 526 1042 l 751 8 l 626 4 q 585 -72 585 -35 q 600 -115 585 -99 q 639 -132 615 -132 q 721 -72 689 -132 l 796 -125 m 281 390 l 454 390 l 358 889 l 281 390 z "},"Å":{"ha":767,"x_min":17,"x_max":751,"o":"m 17 0 l 236 1029 l 526 1042 l 751 8 l 529 0 l 492 224 l 243 224 l 199 0 l 17 0 m 281 390 l 454 390 l 358 889 l 281 390 m 383 1106 q 234 1154 297 1106 q 171 1290 171 1203 q 233 1426 171 1378 q 383 1475 296 1475 q 532 1427 469 1475 q 594 1290 594 1379 q 565 1190 594 1232 q 486 1126 535 1147 q 383 1106 438 1106 m 382 1214 q 441 1234 415 1214 q 467 1290 467 1254 q 441 1345 467 1325 q 382 1365 415 1365 q 324 1345 349 1365 q 299 1290 299 1325 q 324 1235 299 1256 q 382 1214 349 1214 z "},"Ǻ":{"ha":767,"x_min":17,"x_max":751,"o":"m 17 0 l 236 1029 l 526 1042 l 751 8 l 529 0 l 492 224 l 243 224 l 199 0 l 17 0 m 281 390 l 454 390 l 358 889 l 281 390 m 383 1106 q 234 1154 297 1106 q 171 1290 171 1203 q 233 1426 171 1378 q 383 1475 296 1475 q 532 1427 469 1475 q 594 1290 594 1379 q 565 1190 594 1232 q 486 1126 535 1147 q 383 1106 438 1106 m 382 1214 q 441 1234 415 1214 q 467 1290 467 1254 q 441 1345 467 1325 q 382 1365 415 1365 q 324 1345 349 1365 q 299 1290 299 1325 q 324 1235 299 1256 q 382 1214 349 1214 m 406 1533 l 333 1603 l 514 1876 l 657 1744 l 406 1533 z "},"Ã":{"ha":767,"x_min":17,"x_max":751,"o":"m 17 0 l 236 1029 l 526 1042 l 751 8 l 529 0 l 492 224 l 243 224 l 199 0 l 17 0 m 281 390 l 454 390 l 358 889 l 281 390 m 472 1139 q 432 1147 450 1139 q 385 1172 414 1156 q 339 1199 358 1190 q 296 1207 319 1207 q 178 1139 239 1207 l 168 1264 q 235 1324 203 1301 q 304 1346 267 1346 q 341 1340 324 1346 q 388 1319 358 1333 q 433 1299 414 1306 q 472 1292 451 1292 q 530 1308 503 1292 q 569 1346 557 1325 l 600 1236 q 582 1207 600 1232 q 535 1160 564 1182 q 472 1139 507 1139 z "},"Æ":{"ha":1071,"x_min":-4,"x_max":1038,"o":"m -4 0 l 443 1029 l 582 1042 l 1026 1042 l 1011 879 l 749 879 l 749 631 l 921 631 l 919 456 l 749 456 l 749 163 l 1038 163 l 1021 0 l 521 0 l 532 224 l 306 224 l 217 0 l -4 0 m 372 390 l 533 390 l 549 889 l 372 390 z "},"Ǽ":{"ha":1071,"x_min":-4,"x_max":1038,"o":"m -4 0 l 443 1029 l 582 1042 l 1026 1042 l 1011 879 l 749 879 l 749 631 l 921 631 l 919 456 l 749 456 l 749 163 l 1038 163 l 1021 0 l 521 0 l 532 224 l 306 224 l 217 0 l -4 0 m 372 390 l 533 390 l 549 889 l 372 390 m 683 1100 l 611 1169 l 792 1443 l 935 1311 l 683 1100 z "},"Ǣ":{"ha":1071,"x_min":-4,"x_max":1038,"o":"m -4 0 l 443 1029 l 582 1042 l 1026 1042 l 1011 879 l 749 879 l 749 631 l 921 631 l 919 456 l 749 456 l 749 163 l 1038 163 l 1021 0 l 521 0 l 532 224 l 306 224 l 217 0 l -4 0 m 372 390 l 533 390 l 549 889 l 372 390 m 465 1106 l 465 1236 l 856 1236 l 856 1106 l 465 1106 z "},"B":{"ha":765,"x_min":97,"x_max":724,"o":"m 97 1042 l 331 1042 q 606 968 519 1042 q 692 774 692 894 q 662 639 692 697 q 579 554 632 581 q 685 462 646 519 q 724 292 724 404 q 264 0 724 0 l 97 0 l 97 1042 m 343 618 q 463 644 424 618 q 503 753 503 671 q 458 852 503 825 q 335 879 413 879 l 294 879 l 294 618 l 343 618 m 339 163 q 483 212 439 163 q 528 319 528 261 q 480 440 528 410 q 346 469 432 469 l 301 469 l 301 163 l 339 163 z "},"C":{"ha":725,"x_min":56,"x_max":676,"o":"m 381 -19 q 128 143 201 -19 q 56 543 56 306 q 89 789 56 671 q 197 984 122 907 q 385 1061 271 1061 q 538 1007 472 1061 q 640 866 604 953 q 675 685 675 779 l 478 675 q 457 817 478 738 q 374 897 436 897 q 283 793 308 897 q 258 543 258 689 q 286 253 258 363 q 393 144 314 144 q 472 210 449 144 q 503 371 496 276 l 676 354 q 643 169 676 254 q 543 32 610 83 q 381 -19 476 -19 z "},"Ć":{"ha":725,"x_min":56,"x_max":676,"o":"m 381 -19 q 128 143 201 -19 q 56 543 56 306 q 89 789 56 671 q 197 984 122 907 q 385 1061 271 1061 q 538 1007 472 1061 q 640 866 604 953 q 675 685 675 779 l 478 675 q 457 817 478 738 q 374 897 436 897 q 283 793 308 897 q 258 543 258 689 q 286 253 258 363 q 393 144 314 144 q 472 210 449 144 q 503 371 496 276 l 676 354 q 643 169 676 254 q 543 32 610 83 q 381 -19 476 -19 m 385 1100 l 313 1169 l 493 1443 l 636 1311 l 385 1100 z "},"Č":{"ha":725,"x_min":56,"x_max":676,"o":"m 381 -19 q 128 143 201 -19 q 56 543 56 306 q 89 789 56 671 q 197 984 122 907 q 385 1061 271 1061 q 538 1007 472 1061 q 640 866 604 953 q 675 685 675 779 l 478 675 q 457 817 478 738 q 374 897 436 897 q 283 793 308 897 q 258 543 258 689 q 286 253 258 363 q 393 144 314 144 q 472 210 449 144 q 503 371 496 276 l 676 354 q 643 169 676 254 q 543 32 610 83 q 381 -19 476 -19 m 297 1106 l 135 1432 l 276 1432 l 356 1235 l 421 1432 l 590 1432 l 433 1106 l 297 1106 z "},"Ç":{"ha":725,"x_min":56,"x_max":676,"o":"m 676 354 q 647 178 676 260 q 559 44 618 97 q 415 -18 500 -8 l 407 -51 q 536 -134 506 -79 q 567 -229 567 -189 q 525 -341 567 -306 q 419 -376 483 -376 q 334 -365 376 -376 q 264 -333 292 -353 l 264 -222 q 361 -246 317 -246 q 410 -232 394 -246 q 426 -196 426 -218 q 393 -140 426 -165 q 297 -115 360 -115 l 315 -12 q 114 174 172 19 q 56 543 56 329 q 89 789 56 671 q 197 984 122 907 q 385 1061 271 1061 q 538 1007 472 1061 q 640 866 604 953 q 675 685 675 779 l 478 675 q 457 817 478 738 q 374 897 436 897 q 283 793 308 897 q 258 543 258 689 q 286 253 258 363 q 393 144 314 144 q 472 210 449 144 q 503 371 496 276 l 676 354 z "},"Ĉ":{"ha":725,"x_min":56,"x_max":676,"o":"m 381 -19 q 128 143 201 -19 q 56 543 56 306 q 89 789 56 671 q 197 984 122 907 q 385 1061 271 1061 q 538 1007 472 1061 q 640 866 604 953 q 675 685 675 779 l 478 675 q 457 817 478 738 q 374 897 436 897 q 283 793 308 897 q 258 543 258 689 q 286 253 258 363 q 393 144 314 144 q 472 210 449 144 q 503 371 496 276 l 676 354 q 643 169 676 254 q 543 32 610 83 q 381 -19 476 -19 m 135 1106 l 297 1432 l 433 1432 l 590 1106 l 421 1106 l 356 1303 l 276 1106 l 135 1106 z "},"Ċ":{"ha":725,"x_min":56,"x_max":676,"o":"m 381 -19 q 128 143 201 -19 q 56 543 56 306 q 89 789 56 671 q 197 984 122 907 q 385 1061 271 1061 q 538 1007 472 1061 q 640 866 604 953 q 675 685 675 779 l 478 675 q 457 817 478 738 q 374 897 436 897 q 283 793 308 897 q 258 543 258 689 q 286 253 258 363 q 393 144 314 144 q 472 210 449 144 q 503 371 496 276 l 676 354 q 643 169 676 254 q 543 32 610 83 q 381 -19 476 -19 m 264 1106 l 264 1301 l 460 1301 l 460 1106 l 264 1106 z "},"D":{"ha":769,"x_min":97,"x_max":719,"o":"m 97 1042 l 311 1042 q 618 911 517 1042 q 719 517 719 781 q 681 260 719 376 q 560 72 643 143 q 347 0 476 0 l 97 0 l 97 1042 m 329 163 q 476 253 435 163 q 517 478 517 344 l 517 525 q 505 695 517 621 q 451 824 493 769 q 324 879 408 879 l 300 879 l 300 163 l 329 163 z "},"Ǳ":{"ha":1415,"x_min":97,"x_max":1382,"o":"m 97 1042 l 311 1042 q 618 911 517 1042 q 719 517 719 781 q 681 260 719 376 q 560 72 643 143 q 347 0 476 0 l 97 0 l 97 1042 m 329 163 q 476 253 435 163 q 517 478 517 344 l 517 525 q 505 695 517 621 q 451 824 493 769 q 324 879 408 879 l 300 879 l 300 163 l 329 163 m 801 0 l 801 129 l 1136 879 l 833 879 l 850 1042 l 1372 1042 l 1372 907 l 1046 163 l 1382 163 l 1350 0 l 801 0 z "},"Ǆ":{"ha":1425,"x_min":97,"x_max":1392,"o":"m 97 1042 l 311 1042 q 618 911 517 1042 q 719 517 719 781 q 681 260 719 376 q 560 72 643 143 q 347 0 476 0 l 97 0 l 97 1042 m 329 163 q 476 253 435 163 q 517 478 517 344 l 517 525 q 505 695 517 621 q 451 824 493 769 q 324 879 408 879 l 300 879 l 300 163 l 329 163 m 811 0 l 811 129 l 1146 879 l 843 879 l 860 1042 l 1382 1042 l 1382 907 l 1056 163 l 1392 163 l 1360 0 l 811 0 m 1061 1106 l 899 1432 l 1040 1432 l 1119 1235 l 1185 1432 l 1354 1432 l 1197 1106 l 1061 1106 z "},"Ð":{"ha":772,"x_min":3,"x_max":722,"o":"m 314 1042 q 621 911 519 1042 q 722 517 722 781 q 684 260 722 376 q 563 72 646 143 q 349 0 479 0 l 100 0 l 100 456 l 3 456 l 3 586 l 100 586 l 100 1042 l 314 1042 m 519 525 q 508 695 519 621 q 453 824 496 769 q 326 879 411 879 l 303 879 l 303 586 l 394 586 l 394 456 l 303 456 l 303 163 l 332 163 q 478 253 438 163 q 519 478 519 344 l 519 525 z "},"Ď":{"ha":769,"x_min":97,"x_max":719,"o":"m 97 1042 l 311 1042 q 618 911 517 1042 q 719 517 719 781 q 681 260 719 376 q 560 72 643 143 q 347 0 476 0 l 97 0 l 97 1042 m 329 163 q 476 253 435 163 q 517 478 517 344 l 517 525 q 505 695 517 621 q 451 824 493 769 q 324 879 408 879 l 300 879 l 300 163 l 329 163 m 260 1106 l 97 1432 l 239 1432 l 318 1235 l 383 1432 l 553 1432 l 396 1106 l 260 1106 z "},"Đ":{"ha":772,"x_min":3,"x_max":722,"o":"m 314 1042 q 621 911 519 1042 q 722 517 722 781 q 684 260 722 376 q 563 72 646 143 q 349 0 479 0 l 100 0 l 100 456 l 3 456 l 3 586 l 100 586 l 100 1042 l 314 1042 m 519 525 q 508 695 519 621 q 453 824 496 769 q 326 879 411 879 l 303 879 l 303 586 l 394 586 l 394 456 l 303 456 l 303 163 l 332 163 q 478 253 438 163 q 519 478 519 344 l 519 525 z "},"ǲ":{"ha":1360,"x_min":97,"x_max":1331,"o":"m 97 1042 l 311 1042 q 618 911 517 1042 q 719 517 719 781 q 681 260 719 376 q 560 72 643 143 q 347 0 476 0 l 97 0 l 97 1042 m 329 163 q 476 253 435 163 q 517 478 517 344 l 517 525 q 505 695 517 621 q 451 824 493 769 q 324 879 408 879 l 300 879 l 300 163 l 329 163 m 831 0 l 831 122 l 1093 629 l 842 629 l 858 782 l 1310 782 l 1310 665 l 1051 154 l 1331 154 l 1314 0 l 831 0 z "},"ǅ":{"ha":1360,"x_min":97,"x_max":1331,"o":"m 97 1042 l 311 1042 q 618 911 517 1042 q 719 517 719 781 q 681 260 719 376 q 560 72 643 143 q 347 0 476 0 l 97 0 l 97 1042 m 329 163 q 476 253 435 163 q 517 478 517 344 l 517 525 q 505 695 517 621 q 451 824 493 769 q 324 879 408 879 l 300 879 l 300 163 l 329 163 m 831 0 l 831 122 l 1093 629 l 842 629 l 858 782 l 1310 782 l 1310 665 l 1051 154 l 1331 154 l 1314 0 l 831 0 m 1032 846 l 869 1172 l 1011 1172 l 1090 975 l 1156 1172 l 1325 1172 l 1168 846 l 1032 846 z "},"E":{"ha":671,"x_min":97,"x_max":638,"o":"m 97 0 l 97 1042 l 626 1042 l 610 879 l 301 879 l 301 631 l 521 631 l 519 456 l 301 456 l 301 163 l 638 163 l 621 0 l 97 0 z "},"É":{"ha":671,"x_min":97,"x_max":638,"o":"m 97 0 l 97 1042 l 626 1042 l 610 879 l 301 879 l 301 631 l 521 631 l 519 456 l 301 456 l 301 163 l 638 163 l 621 0 l 97 0 m 358 1101 l 286 1171 l 467 1444 l 610 1313 l 358 1101 z "},"Ĕ":{"ha":671,"x_min":97,"x_max":638,"o":"m 97 0 l 97 1042 l 626 1042 l 610 879 l 301 879 l 301 631 l 521 631 l 519 456 l 301 456 l 301 163 l 638 163 l 621 0 l 97 0 m 339 1129 q 190 1184 240 1129 q 129 1332 139 1239 l 246 1332 q 254 1304 247 1328 q 281 1269 261 1281 q 336 1257 301 1257 q 388 1267 371 1257 q 410 1290 406 1278 q 425 1332 415 1301 l 542 1332 q 482 1185 532 1240 q 339 1129 432 1129 z "},"Ě":{"ha":671,"x_min":97,"x_max":638,"o":"m 97 0 l 97 1042 l 626 1042 l 610 879 l 301 879 l 301 631 l 521 631 l 519 456 l 301 456 l 301 163 l 638 163 l 621 0 l 97 0 m 271 1106 l 108 1432 l 250 1432 l 329 1235 l 394 1432 l 564 1432 l 407 1106 l 271 1106 z "},"Ê":{"ha":671,"x_min":97,"x_max":638,"o":"m 97 0 l 97 1042 l 626 1042 l 610 879 l 301 879 l 301 631 l 521 631 l 519 456 l 301 456 l 301 163 l 638 163 l 621 0 l 97 0 m 108 1107 l 271 1433 l 407 1433 l 564 1107 l 394 1107 l 329 1304 l 250 1107 l 108 1107 z "},"Ế":{"ha":671,"x_min":97,"x_max":771,"o":"m 97 0 l 97 1042 l 626 1042 l 610 879 l 301 879 l 301 631 l 521 631 l 519 456 l 301 456 l 301 163 l 638 163 l 621 0 l 97 0 m 635 1521 l 771 1407 l 575 1243 l 510 1294 l 635 1521 m 271 1376 l 407 1376 l 564 1133 l 394 1133 l 329 1268 l 250 1133 l 108 1133 l 271 1376 z "},"Ệ":{"ha":671,"x_min":97,"x_max":638,"o":"m 97 0 l 97 1042 l 626 1042 l 610 879 l 301 879 l 301 631 l 521 631 l 519 456 l 301 456 l 301 163 l 638 163 l 621 0 l 97 0 m 108 1107 l 271 1433 l 407 1433 l 564 1107 l 394 1107 l 329 1304 l 250 1107 l 108 1107 m 238 -306 l 238 -110 l 433 -110 l 433 -306 l 238 -306 z "},"Ề":{"ha":671,"x_min":-87,"x_max":638,"o":"m 97 0 l 97 1042 l 626 1042 l 610 879 l 301 879 l 301 631 l 521 631 l 519 456 l 301 456 l 301 163 l 638 163 l 621 0 l 97 0 m 49 1493 l 174 1267 l 108 1215 l -87 1379 l 49 1493 m 574 1106 l 404 1106 l 339 1240 l 260 1106 l 118 1106 l 281 1349 l 417 1349 l 574 1106 z "},"Ể":{"ha":671,"x_min":97,"x_max":821,"o":"m 97 0 l 97 1042 l 626 1042 l 610 879 l 301 879 l 301 631 l 521 631 l 519 456 l 301 456 l 301 163 l 638 163 l 621 0 l 97 0 m 654 1522 q 776 1484 731 1522 q 821 1383 821 1446 q 803 1326 821 1347 q 749 1278 785 1304 q 708 1244 721 1258 q 694 1208 694 1229 l 694 1207 l 574 1207 q 572 1222 572 1213 q 592 1283 572 1258 q 644 1336 611 1308 q 674 1363 664 1351 q 683 1383 683 1374 q 650 1415 683 1415 q 601 1363 608 1415 l 476 1365 q 501 1440 478 1404 q 564 1499 524 1476 q 654 1522 604 1522 m 275 1349 l 411 1349 l 568 1106 l 399 1106 l 333 1240 l 254 1106 l 113 1106 l 275 1349 z "},"Ễ":{"ha":671,"x_min":97,"x_max":638,"o":"m 97 0 l 97 1042 l 626 1042 l 610 879 l 301 879 l 301 631 l 521 631 l 519 456 l 301 456 l 301 163 l 638 163 l 621 0 l 97 0 m 272 1456 q 154 1388 215 1456 l 144 1513 q 211 1572 179 1550 q 281 1594 243 1594 q 317 1588 300 1594 q 364 1568 335 1582 q 409 1547 390 1554 q 449 1540 428 1540 q 506 1557 479 1540 q 546 1594 533 1574 l 576 1485 q 558 1456 576 1481 q 512 1409 540 1431 q 449 1388 483 1388 q 408 1396 426 1388 q 361 1421 390 1404 q 315 1447 335 1439 q 272 1456 296 1456 m 281 1349 l 417 1349 l 574 1106 l 404 1106 l 339 1240 l 260 1106 l 118 1106 l 281 1349 z "},"Ȅ":{"ha":671,"x_min":-39,"x_max":638,"o":"m 97 0 l 97 1042 l 626 1042 l 610 879 l 301 879 l 301 631 l 521 631 l 519 456 l 301 456 l 301 163 l 638 163 l 621 0 l 97 0 m 478 1107 l 279 1418 l 463 1513 l 571 1156 l 478 1107 m 222 1106 l -39 1367 l 119 1499 l 303 1172 l 222 1106 z "},"Ë":{"ha":671,"x_min":75,"x_max":638,"o":"m 97 0 l 97 1042 l 626 1042 l 610 879 l 301 879 l 301 631 l 521 631 l 519 456 l 301 456 l 301 163 l 638 163 l 621 0 l 97 0 m 75 1133 l 75 1329 l 271 1329 l 271 1133 l 75 1133 m 400 1133 l 400 1329 l 596 1329 l 596 1133 l 400 1133 z "},"Ė":{"ha":671,"x_min":97,"x_max":638,"o":"m 97 0 l 97 1042 l 626 1042 l 610 879 l 301 879 l 301 631 l 521 631 l 519 456 l 301 456 l 301 163 l 638 163 l 621 0 l 97 0 m 238 1106 l 238 1301 l 433 1301 l 433 1106 l 238 1106 z "},"Ẹ":{"ha":671,"x_min":97,"x_max":638,"o":"m 97 0 l 97 1042 l 626 1042 l 610 879 l 301 879 l 301 631 l 521 631 l 519 456 l 301 456 l 301 163 l 638 163 l 621 0 l 97 0 m 238 -306 l 238 -110 l 433 -110 l 433 -306 l 238 -306 z "},"È":{"ha":671,"x_min":81,"x_max":638,"o":"m 97 0 l 97 1042 l 626 1042 l 610 879 l 301 879 l 301 631 l 521 631 l 519 456 l 301 456 l 301 163 l 638 163 l 621 0 l 97 0 m 332 1101 l 81 1313 l 224 1444 l 404 1171 l 332 1101 z "},"Ẻ":{"ha":671,"x_min":97,"x_max":638,"o":"m 97 0 l 97 1042 l 626 1042 l 610 879 l 301 879 l 301 631 l 521 631 l 519 456 l 301 456 l 301 163 l 638 163 l 621 0 l 97 0 m 281 1097 q 279 1113 279 1103 q 299 1174 279 1149 q 351 1226 318 1199 q 381 1253 371 1242 q 390 1274 390 1264 q 357 1306 390 1306 q 308 1253 315 1306 l 183 1256 q 208 1331 185 1294 q 271 1390 231 1367 q 361 1413 311 1413 q 483 1374 438 1413 q 528 1274 528 1336 q 510 1216 528 1238 q 456 1168 492 1194 q 415 1134 428 1149 q 401 1099 401 1119 l 401 1097 l 281 1097 z "},"Ȇ":{"ha":671,"x_min":43,"x_max":638,"o":"m 97 0 l 97 1042 l 626 1042 l 610 879 l 301 879 l 301 631 l 521 631 l 519 456 l 301 456 l 301 163 l 638 163 l 621 0 l 97 0 m 43 1106 q 71 1253 43 1178 q 165 1380 99 1328 q 336 1432 231 1432 q 507 1380 442 1432 q 600 1253 572 1328 q 628 1106 628 1178 l 465 1106 q 459 1186 465 1153 q 424 1244 453 1219 q 336 1269 396 1269 q 247 1244 276 1269 q 212 1186 218 1219 q 206 1106 206 1153 l 43 1106 z "},"Ē":{"ha":671,"x_min":97,"x_max":638,"o":"m 97 0 l 97 1042 l 626 1042 l 610 879 l 301 879 l 301 631 l 521 631 l 519 456 l 301 456 l 301 163 l 638 163 l 621 0 l 97 0 m 140 1106 l 140 1236 l 531 1236 l 531 1106 l 140 1106 z "},"Ę":{"ha":671,"x_min":97,"x_max":646,"o":"m 646 -132 q 567 -231 619 -193 q 454 -268 514 -268 q 381 -247 415 -268 q 324 -193 346 -226 q 303 -124 303 -160 q 342 0 303 -51 l 97 0 l 97 1042 l 626 1042 l 610 879 l 301 879 l 301 631 l 521 631 l 519 456 l 301 456 l 301 163 l 638 163 l 621 0 l 479 0 q 447 -40 458 -21 q 435 -79 435 -58 q 450 -122 435 -106 q 489 -139 465 -139 q 571 -79 539 -139 l 646 -132 z "},"Ẽ":{"ha":671,"x_min":97,"x_max":638,"o":"m 97 0 l 97 1042 l 626 1042 l 610 879 l 301 879 l 301 631 l 521 631 l 519 456 l 301 456 l 301 163 l 638 163 l 621 0 l 97 0 m 425 1139 q 385 1147 403 1139 q 338 1172 367 1156 q 292 1199 311 1190 q 249 1207 272 1207 q 131 1139 192 1207 l 121 1264 q 188 1324 156 1301 q 257 1346 219 1346 q 294 1340 276 1346 q 340 1319 311 1333 q 385 1299 367 1306 q 425 1292 404 1292 q 483 1308 456 1292 q 522 1346 510 1325 l 553 1236 q 535 1207 553 1232 q 488 1160 517 1182 q 425 1139 460 1139 z "},"F":{"ha":639,"x_min":97,"x_max":626,"o":"m 97 -8 l 97 1042 l 626 1042 l 610 878 l 301 878 l 301 606 l 519 606 l 519 433 l 301 433 l 301 8 l 97 -8 z "},"G":{"ha":768,"x_min":56,"x_max":699,"o":"m 353 -19 q 127 135 199 -19 q 56 525 56 289 q 90 779 56 657 q 199 981 124 901 q 393 1061 275 1061 q 562 1012 494 1061 q 662 881 629 963 q 694 701 694 800 l 501 689 l 497 718 q 468 849 489 800 q 390 897 447 897 q 288 781 318 897 q 258 514 258 665 q 265 332 258 407 q 301 201 272 257 q 392 144 331 144 q 473 208 443 144 q 503 365 503 272 l 400 365 l 417 521 l 699 521 l 699 8 l 621 0 l 574 193 q 542 96 561 139 q 478 17 524 53 q 353 -19 432 -19 z "},"Ğ":{"ha":768,"x_min":56,"x_max":699,"o":"m 353 -19 q 127 135 199 -19 q 56 525 56 289 q 90 779 56 657 q 199 981 124 901 q 393 1061 275 1061 q 562 1012 494 1061 q 662 881 629 963 q 694 701 694 800 l 501 689 l 497 718 q 468 849 489 800 q 390 897 447 897 q 288 781 318 897 q 258 514 258 665 q 265 332 258 407 q 301 201 272 257 q 392 144 331 144 q 473 208 443 144 q 503 365 503 272 l 400 365 l 417 521 l 699 521 l 699 8 l 621 0 l 574 193 q 542 96 561 139 q 478 17 524 53 q 353 -19 432 -19 m 386 1129 q 237 1184 288 1129 q 176 1332 186 1239 l 293 1332 q 301 1304 294 1328 q 328 1269 308 1281 q 383 1257 349 1257 q 435 1267 418 1257 q 458 1290 453 1278 q 472 1332 463 1301 l 589 1332 q 529 1185 579 1240 q 386 1129 479 1129 z "},"Ǧ":{"ha":768,"x_min":56,"x_max":699,"o":"m 353 -19 q 127 135 199 -19 q 56 525 56 289 q 90 779 56 657 q 199 981 124 901 q 393 1061 275 1061 q 562 1012 494 1061 q 662 881 629 963 q 694 701 694 800 l 501 689 l 497 718 q 468 849 489 800 q 390 897 447 897 q 288 781 318 897 q 258 514 258 665 q 265 332 258 407 q 301 201 272 257 q 392 144 331 144 q 473 208 443 144 q 503 365 503 272 l 400 365 l 417 521 l 699 521 l 699 8 l 621 0 l 574 193 q 542 96 561 139 q 478 17 524 53 q 353 -19 432 -19 m 318 1106 l 156 1432 l 297 1432 l 376 1235 l 442 1432 l 611 1432 l 454 1106 l 318 1106 z "},"Ĝ":{"ha":768,"x_min":56,"x_max":699,"o":"m 353 -19 q 127 135 199 -19 q 56 525 56 289 q 90 779 56 657 q 199 981 124 901 q 393 1061 275 1061 q 562 1012 494 1061 q 662 881 629 963 q 694 701 694 800 l 501 689 l 497 718 q 468 849 489 800 q 390 897 447 897 q 288 781 318 897 q 258 514 258 665 q 265 332 258 407 q 301 201 272 257 q 392 144 331 144 q 473 208 443 144 q 503 365 503 272 l 400 365 l 417 521 l 699 521 l 699 8 l 621 0 l 574 193 q 542 96 561 139 q 478 17 524 53 q 353 -19 432 -19 m 156 1106 l 318 1432 l 454 1432 l 611 1106 l 442 1106 l 376 1303 l 297 1106 l 156 1106 z "},"Ģ":{"ha":768,"x_min":56,"x_max":699,"o":"m 353 -19 q 127 135 199 -19 q 56 525 56 289 q 90 779 56 657 q 199 981 124 901 q 393 1061 275 1061 q 562 1012 494 1061 q 662 881 629 963 q 694 701 694 800 l 501 689 l 497 718 q 468 849 489 800 q 390 897 447 897 q 288 781 318 897 q 258 514 258 665 q 265 332 258 407 q 301 201 272 257 q 392 144 331 144 q 473 208 443 144 q 503 365 503 272 l 400 365 l 417 521 l 699 521 l 699 8 l 621 0 l 574 193 q 542 96 561 139 q 478 17 524 53 q 353 -19 432 -19 m 357 -328 q 414 -294 397 -328 q 422 -262 419 -282 l 324 -262 l 324 -67 l 519 -67 l 519 -262 q 497 -371 519 -329 q 438 -433 474 -412 q 357 -458 401 -454 l 357 -328 z "},"Ġ":{"ha":768,"x_min":56,"x_max":699,"o":"m 353 -19 q 127 135 199 -19 q 56 525 56 289 q 90 779 56 657 q 199 981 124 901 q 393 1061 275 1061 q 562 1012 494 1061 q 662 881 629 963 q 694 701 694 800 l 501 689 l 497 718 q 468 849 489 800 q 390 897 447 897 q 288 781 318 897 q 258 514 258 665 q 265 332 258 407 q 301 201 272 257 q 392 144 331 144 q 473 208 443 144 q 503 365 503 272 l 400 365 l 417 521 l 699 521 l 699 8 l 621 0 l 574 193 q 542 96 561 139 q 478 17 524 53 q 353 -19 432 -19 m 285 1106 l 285 1301 l 481 1301 l 481 1106 l 285 1106 z "},"H":{"ha":797,"x_min":97,"x_max":700,"o":"m 97 -8 l 97 1025 l 301 1042 l 301 619 l 496 619 l 496 1025 l 700 1042 l 700 8 l 496 -8 l 496 433 l 301 433 l 301 8 l 97 -8 z "},"Ħ":{"ha":800,"x_min":18,"x_max":772,"o":"m 99 -8 l 99 788 l 18 788 l 18 911 l 99 911 l 99 1025 l 301 1042 l 301 911 l 497 911 l 497 1025 l 700 1042 l 700 911 l 772 911 l 772 788 l 700 788 l 700 8 l 497 -8 l 497 433 l 301 433 l 301 8 l 99 -8 m 301 619 l 497 619 l 497 788 l 301 788 l 301 619 z "},"Ĥ":{"ha":797,"x_min":97,"x_max":700,"o":"m 97 -8 l 97 1025 l 301 1042 l 301 619 l 496 619 l 496 1025 l 700 1042 l 700 8 l 496 -8 l 496 433 l 301 433 l 301 8 l 97 -8 m 171 1106 l 333 1432 l 469 1432 l 626 1106 l 457 1106 l 392 1303 l 313 1106 l 171 1106 z "},"I":{"ha":399,"x_min":97,"x_max":301,"o":"m 97 -8 l 97 1025 l 301 1042 l 301 8 l 97 -8 z "},"Ĳ":{"ha":861,"x_min":97,"x_max":769,"o":"m 97 -8 l 97 1025 l 301 1042 l 301 8 l 97 -8 m 567 -19 q 436 1 511 -19 l 436 139 q 490 129 465 129 q 553 167 540 129 q 567 278 567 204 l 567 1025 l 769 1042 l 769 261 q 723 53 769 126 q 567 -19 676 -19 z "},"Í":{"ha":399,"x_min":97,"x_max":474,"o":"m 97 -8 l 97 1025 l 301 1042 l 301 8 l 97 -8 m 222 1101 l 150 1171 l 331 1444 l 474 1313 l 222 1101 z "},"Ĭ":{"ha":399,"x_min":-7,"x_max":406,"o":"m 97 -8 l 97 1025 l 301 1042 l 301 8 l 97 -8 m 203 1129 q 53 1184 104 1129 q -7 1332 3 1239 l 110 1332 q 118 1304 111 1328 q 145 1269 125 1281 q 200 1257 165 1257 q 252 1267 235 1257 q 274 1290 269 1278 q 289 1332 279 1301 l 406 1332 q 346 1185 396 1240 q 203 1129 296 1129 z "},"Î":{"ha":399,"x_min":-28,"x_max":428,"o":"m 97 -8 l 97 1025 l 301 1042 l 301 8 l 97 -8 m -28 1106 l 135 1432 l 271 1432 l 428 1106 l 258 1106 l 193 1303 l 114 1106 l -28 1106 z "},"Ȉ":{"ha":399,"x_min":-175,"x_max":435,"o":"m 97 -8 l 97 1025 l 301 1042 l 301 8 l 97 -8 m 342 1107 l 143 1418 l 326 1513 l 435 1156 l 342 1107 m 86 1106 l -175 1367 l -17 1499 l 167 1172 l 86 1106 z "},"Ï":{"ha":399,"x_min":-61,"x_max":460,"o":"m 97 -8 l 97 1025 l 301 1042 l 301 8 l 97 -8 m -61 1133 l -61 1329 l 135 1329 l 135 1133 l -61 1133 m 264 1133 l 264 1329 l 460 1329 l 460 1133 l 264 1133 z "},"İ":{"ha":399,"x_min":97,"x_max":301,"o":"m 97 -8 l 97 1025 l 301 1042 l 301 8 l 97 -8 m 101 1106 l 101 1301 l 297 1301 l 297 1106 l 101 1106 z "},"Ị":{"ha":399,"x_min":97,"x_max":301,"o":"m 97 -8 l 97 1025 l 301 1042 l 301 8 l 97 -8 m 101 -306 l 101 -110 l 297 -110 l 297 -306 l 101 -306 z "},"Ì":{"ha":399,"x_min":-56,"x_max":301,"o":"m 97 -8 l 97 1025 l 301 1042 l 301 8 l 97 -8 m 196 1101 l -56 1313 l 88 1444 l 268 1171 l 196 1101 z "},"Ỉ":{"ha":399,"x_min":47,"x_max":392,"o":"m 97 -8 l 97 1025 l 301 1042 l 301 8 l 97 -8 m 144 1097 q 143 1113 143 1103 q 163 1174 143 1149 q 215 1226 182 1199 q 244 1253 235 1242 q 254 1274 254 1264 q 221 1306 254 1306 q 172 1253 179 1306 l 47 1256 q 72 1331 49 1294 q 135 1390 94 1367 q 225 1413 175 1413 q 347 1374 301 1413 q 392 1274 392 1336 q 374 1216 392 1238 q 319 1168 356 1194 q 278 1134 292 1149 q 265 1099 265 1119 l 265 1097 l 144 1097 z "},"Ȋ":{"ha":399,"x_min":-93,"x_max":492,"o":"m 97 -8 l 97 1025 l 301 1042 l 301 8 l 97 -8 m -93 1106 q -65 1253 -93 1178 q 28 1380 -37 1328 q 200 1432 94 1432 q 371 1380 306 1432 q 464 1253 436 1328 q 492 1106 492 1178 l 329 1106 q 323 1186 329 1153 q 288 1244 317 1219 q 200 1269 260 1269 q 111 1244 140 1269 q 76 1186 82 1219 q 69 1106 69 1153 l -93 1106 z "},"Ī":{"ha":399,"x_min":4,"x_max":394,"o":"m 97 -8 l 97 1025 l 301 1042 l 301 8 l 97 -8 m 4 1106 l 4 1236 l 394 1236 l 394 1106 l 4 1106 z "},"Į":{"ha":399,"x_min":71,"x_max":414,"o":"m 414 -125 q 335 -224 388 -186 q 222 -261 282 -261 q 149 -240 183 -261 q 92 -186 114 -219 q 71 -117 71 -153 q 99 -8 71 -53 l 97 -8 l 97 1025 l 301 1042 l 301 8 l 244 4 q 203 -72 203 -35 q 218 -115 203 -99 q 257 -132 233 -132 q 339 -72 307 -132 l 414 -125 z "},"Ĩ":{"ha":399,"x_min":-15,"x_max":417,"o":"m 97 -8 l 97 1025 l 301 1042 l 301 8 l 97 -8 m 289 1139 q 249 1147 267 1139 q 201 1172 231 1156 q 156 1199 175 1190 q 113 1207 136 1207 q -6 1139 56 1207 l -15 1264 q 51 1324 19 1301 q 121 1346 83 1346 q 158 1340 140 1346 q 204 1319 175 1333 q 249 1299 231 1306 q 289 1292 268 1292 q 347 1308 319 1292 q 386 1346 374 1325 l 417 1236 q 399 1207 417 1232 q 352 1160 381 1182 q 289 1139 324 1139 z "},"J":{"ha":463,"x_min":38,"x_max":371,"o":"m 168 -19 q 38 1 113 -19 l 38 139 q 92 129 67 129 q 155 167 142 129 q 168 278 168 204 l 168 1025 l 371 1042 l 371 261 q 324 53 371 126 q 168 -19 278 -19 z "},"Ĵ":{"ha":463,"x_min":38,"x_max":503,"o":"m 168 -19 q 38 1 113 -19 l 38 139 q 92 129 67 129 q 155 167 142 129 q 168 278 168 204 l 168 1025 l 371 1042 l 371 261 q 324 53 371 126 q 168 -19 278 -19 m 47 1106 l 210 1432 l 346 1432 l 503 1106 l 333 1106 l 268 1303 l 189 1106 l 47 1106 z "},"K":{"ha":782,"x_min":97,"x_max":768,"o":"m 561 -18 l 381 467 l 301 329 l 301 0 l 97 0 l 97 1025 l 301 1042 l 301 586 l 549 1042 l 765 1042 l 542 611 l 768 29 l 561 -18 z "},"Ķ":{"ha":782,"x_min":97,"x_max":768,"o":"m 561 -18 l 381 467 l 301 329 l 301 0 l 97 0 l 97 1025 l 301 1042 l 301 586 l 549 1042 l 765 1042 l 542 611 l 768 29 l 561 -18 m 356 -328 q 413 -294 396 -328 q 421 -262 418 -282 l 322 -262 l 322 -67 l 518 -67 l 518 -262 q 495 -371 518 -329 q 436 -433 472 -412 q 356 -458 400 -454 l 356 -328 z "},"L":{"ha":651,"x_min":97,"x_max":642,"o":"m 97 0 l 97 1025 l 300 1042 l 300 163 l 642 163 l 621 0 l 97 0 z "},"Ǉ":{"ha":1114,"x_min":97,"x_max":1022,"o":"m 97 0 l 97 1025 l 300 1042 l 300 163 l 642 163 l 621 0 l 97 0 m 819 -19 q 689 1 764 -19 l 689 139 q 743 129 718 129 q 806 167 793 129 q 819 278 819 204 l 819 1025 l 1022 1042 l 1022 261 q 976 53 1022 126 q 819 -19 929 -19 z "},"Ĺ":{"ha":651,"x_min":97,"x_max":642,"o":"m 97 0 l 97 1025 l 300 1042 l 300 163 l 642 163 l 621 0 l 97 0 m 194 1100 l 122 1169 l 303 1443 l 446 1311 l 194 1100 z "},"Ľ":{"ha":651,"x_min":97,"x_max":642,"o":"m 97 0 l 97 1025 l 300 1042 l 300 163 l 642 163 l 621 0 l 97 0 m 310 -328 q 367 -294 350 -328 q 375 -262 372 -282 l 276 -262 l 276 -67 l 472 -67 l 472 -262 q 449 -371 472 -329 q 390 -433 426 -412 q 310 -458 354 -454 l 310 -328 z "},"Ļ":{"ha":651,"x_min":97,"x_max":642,"o":"m 97 0 l 97 1025 l 300 1042 l 300 163 l 642 163 l 621 0 l 97 0 m 310 -328 q 367 -294 350 -328 q 375 -262 372 -282 l 276 -262 l 276 -67 l 472 -67 l 472 -262 q 449 -371 472 -329 q 390 -433 426 -412 q 310 -458 354 -454 l 310 -328 z "},"Ŀ":{"ha":651,"x_min":97,"x_max":642,"o":"m 97 0 l 97 1025 l 300 1042 l 300 163 l 642 163 l 621 0 l 97 0 m 410 421 l 410 617 l 604 617 l 604 421 l 410 421 z "},"ǈ":{"ha":1019,"x_min":97,"x_max":939,"o":"m 97 0 l 97 1025 l 300 1042 l 300 163 l 642 163 l 621 0 l 97 0 m 743 882 l 743 1083 l 939 1097 l 939 890 l 743 882 m 765 -196 q 635 -182 708 -196 l 635 -65 q 708 -56 685 -65 q 737 -26 731 -46 q 743 36 743 -6 l 743 765 l 939 782 l 939 36 q 931 -100 939 -56 q 885 -170 922 -144 q 765 -196 849 -196 z "},"Ł":{"ha":668,"x_min":-1,"x_max":661,"o":"m 106 0 l 106 471 l -1 456 l -1 617 l 106 632 l 106 1025 l 308 1042 l 308 661 l 454 682 l 454 521 l 308 500 l 308 163 l 661 163 l 629 0 l 106 0 z "},"M":{"ha":1103,"x_min":97,"x_max":1006,"o":"m 794 -8 l 794 774 l 600 0 l 475 0 l 265 776 l 265 8 l 97 0 l 97 1032 l 396 1040 l 568 396 l 733 1017 l 1006 1033 l 1006 8 l 794 -8 z "},"N":{"ha":849,"x_min":97,"x_max":751,"o":"m 583 -8 l 279 643 l 279 8 l 97 0 l 97 1033 l 310 1042 l 579 422 l 579 1025 l 751 1042 l 751 8 l 583 -8 z "},"Ǌ":{"ha":1311,"x_min":97,"x_max":1219,"o":"m 583 -8 l 279 643 l 279 8 l 97 0 l 97 1033 l 310 1042 l 579 422 l 579 1025 l 751 1042 l 751 8 l 583 -8 m 1017 -19 q 886 1 961 -19 l 886 139 q 940 129 915 129 q 1003 167 990 129 q 1017 278 1017 204 l 1017 1025 l 1219 1042 l 1219 261 q 1173 53 1219 126 q 1017 -19 1126 -19 z "},"Ń":{"ha":849,"x_min":97,"x_max":751,"o":"m 583 -8 l 279 643 l 279 8 l 97 0 l 97 1033 l 310 1042 l 579 422 l 579 1025 l 751 1042 l 751 8 l 583 -8 m 447 1100 l 375 1169 l 556 1443 l 699 1311 l 447 1100 z "},"Ň":{"ha":849,"x_min":97,"x_max":751,"o":"m 583 -8 l 279 643 l 279 8 l 97 0 l 97 1033 l 310 1042 l 579 422 l 579 1025 l 751 1042 l 751 8 l 583 -8 m 360 1106 l 197 1432 l 339 1432 l 418 1235 l 483 1432 l 653 1432 l 496 1106 l 360 1106 z "},"Ņ":{"ha":849,"x_min":97,"x_max":751,"o":"m 583 -8 l 279 643 l 279 8 l 97 0 l 97 1033 l 310 1042 l 579 422 l 579 1025 l 751 1042 l 751 8 l 583 -8 m 381 -328 q 438 -294 421 -328 q 446 -262 443 -282 l 347 -262 l 347 -67 l 543 -67 l 543 -262 q 520 -371 543 -329 q 461 -433 497 -412 q 381 -458 425 -454 l 381 -328 z "},"Ṇ":{"ha":849,"x_min":97,"x_max":751,"o":"m 583 -8 l 279 643 l 279 8 l 97 0 l 97 1033 l 310 1042 l 579 422 l 579 1025 l 751 1042 l 751 8 l 583 -8 m 326 1106 l 326 1301 l 522 1301 l 522 1106 l 326 1106 z "},"Ŋ":{"ha":844,"x_min":96,"x_max":749,"o":"m 556 -215 q 426 -194 501 -215 l 426 -57 q 481 -67 456 -67 q 546 -47 525 -67 q 572 3 567 -26 q 576 82 576 33 l 576 97 l 278 676 l 278 8 l 96 0 l 96 1033 l 308 1042 l 576 490 l 576 1025 l 749 1042 l 749 64 q 703 -142 749 -69 q 556 -215 658 -215 z "},"Ɲ":{"ha":833,"x_min":-43,"x_max":751,"o":"m 97 1033 l 310 1042 l 579 422 l 579 1025 l 751 1042 l 751 8 l 583 -8 l 279 643 l 279 64 q 234 -142 279 -69 q 86 -215 189 -215 q -43 -194 32 -215 l -43 -57 q 11 -67 -14 -67 q 74 -47 56 -67 q 95 -3 93 -26 q 97 82 97 21 l 97 1033 z "},"ǋ":{"ha":1217,"x_min":97,"x_max":1136,"o":"m 583 -8 l 279 643 l 279 8 l 97 0 l 97 1033 l 310 1042 l 579 422 l 579 1025 l 751 1042 l 751 8 l 583 -8 m 940 882 l 940 1083 l 1136 1097 l 1136 890 l 940 882 m 963 -196 q 832 -182 906 -196 l 832 -65 q 905 -56 882 -65 q 934 -26 928 -46 q 940 36 940 -6 l 940 765 l 1136 782 l 1136 36 q 1128 -100 1136 -56 q 1083 -170 1119 -144 q 963 -196 1046 -196 z "},"Ñ":{"ha":849,"x_min":97,"x_max":751,"o":"m 583 -8 l 279 643 l 279 8 l 97 0 l 97 1033 l 310 1042 l 579 422 l 579 1025 l 751 1042 l 751 8 l 583 -8 m 514 1094 q 474 1103 492 1094 q 426 1128 456 1111 q 381 1154 400 1146 q 338 1163 361 1163 q 219 1094 281 1163 l 210 1219 q 276 1279 244 1257 q 346 1301 308 1301 q 383 1295 365 1301 q 429 1275 400 1289 q 474 1254 456 1261 q 514 1247 493 1247 q 572 1264 544 1247 q 611 1301 599 1281 l 642 1192 q 624 1163 642 1188 q 577 1116 606 1138 q 514 1094 549 1094 z "},"O":{"ha":763,"x_min":58,"x_max":704,"o":"m 378 -19 q 130 133 201 -19 q 58 526 58 285 q 135 922 58 783 q 381 1061 211 1061 q 704 532 704 1061 q 631 138 704 294 q 378 -19 558 -19 m 381 144 q 478 241 454 144 q 501 533 501 338 q 478 794 501 690 q 381 897 456 897 q 283 794 306 897 q 261 535 261 692 q 284 241 261 338 q 381 144 307 144 z "},"Ó":{"ha":763,"x_min":58,"x_max":704,"o":"m 378 -19 q 130 133 201 -19 q 58 526 58 285 q 135 922 58 783 q 381 1061 211 1061 q 704 532 704 1061 q 631 138 704 294 q 378 -19 558 -19 m 381 144 q 478 241 454 144 q 501 533 501 338 q 478 794 501 690 q 381 897 456 897 q 283 794 306 897 q 261 535 261 692 q 284 241 261 338 q 381 144 307 144 m 404 1101 l 332 1171 l 513 1444 l 656 1313 l 404 1101 z "},"Ŏ":{"ha":763,"x_min":58,"x_max":704,"o":"m 378 -19 q 130 133 201 -19 q 58 526 58 285 q 135 922 58 783 q 381 1061 211 1061 q 704 532 704 1061 q 631 138 704 294 q 378 -19 558 -19 m 381 144 q 478 241 454 144 q 501 533 501 338 q 478 794 501 690 q 381 897 456 897 q 283 794 306 897 q 261 535 261 692 q 284 241 261 338 q 381 144 307 144 m 385 1129 q 235 1184 286 1129 q 175 1332 185 1239 l 292 1332 q 300 1304 293 1328 q 327 1269 307 1281 q 382 1257 347 1257 q 434 1267 417 1257 q 456 1290 451 1278 q 471 1332 461 1301 l 588 1332 q 528 1185 578 1240 q 385 1129 478 1129 z "},"Ô":{"ha":763,"x_min":58,"x_max":704,"o":"m 378 -19 q 130 133 201 -19 q 58 526 58 285 q 135 922 58 783 q 381 1061 211 1061 q 704 532 704 1061 q 631 138 704 294 q 378 -19 558 -19 m 381 144 q 478 241 454 144 q 501 533 501 338 q 478 794 501 690 q 381 897 456 897 q 283 794 306 897 q 261 535 261 692 q 284 241 261 338 q 381 144 307 144 m 154 1107 l 317 1433 l 453 1433 l 610 1107 l 440 1107 l 375 1304 l 296 1107 l 154 1107 z "},"Ố":{"ha":763,"x_min":58,"x_max":817,"o":"m 378 -19 q 130 133 201 -19 q 58 526 58 285 q 135 922 58 783 q 381 1061 211 1061 q 704 532 704 1061 q 631 138 704 294 q 378 -19 558 -19 m 381 144 q 478 241 454 144 q 501 533 501 338 q 478 794 501 690 q 381 897 456 897 q 283 794 306 897 q 261 535 261 692 q 284 241 261 338 q 381 144 307 144 m 681 1521 l 817 1407 l 621 1243 l 556 1294 l 681 1521 m 317 1376 l 453 1376 l 610 1133 l 440 1133 l 375 1268 l 296 1133 l 154 1133 l 317 1376 z "},"Ộ":{"ha":763,"x_min":58,"x_max":704,"o":"m 378 -19 q 130 133 201 -19 q 58 526 58 285 q 135 922 58 783 q 381 1061 211 1061 q 704 532 704 1061 q 631 138 704 294 q 378 -19 558 -19 m 381 144 q 478 241 454 144 q 501 533 501 338 q 478 794 501 690 q 381 897 456 897 q 283 794 306 897 q 261 535 261 692 q 284 241 261 338 q 381 144 307 144 m 154 1107 l 317 1433 l 453 1433 l 610 1107 l 440 1107 l 375 1304 l 296 1107 l 154 1107 m 283 -306 l 283 -110 l 479 -110 l 479 -306 l 283 -306 z "},"Ồ":{"ha":763,"x_min":-42,"x_max":704,"o":"m 378 -19 q 130 133 201 -19 q 58 526 58 285 q 135 922 58 783 q 381 1061 211 1061 q 704 532 704 1061 q 631 138 704 294 q 378 -19 558 -19 m 381 144 q 478 241 454 144 q 501 533 501 338 q 478 794 501 690 q 381 897 456 897 q 283 794 306 897 q 261 535 261 692 q 284 241 261 338 q 381 144 307 144 m 94 1493 l 219 1267 l 154 1215 l -42 1379 l 94 1493 m 619 1106 l 450 1106 l 385 1240 l 306 1106 l 164 1106 l 326 1349 l 463 1349 l 619 1106 z "},"Ổ":{"ha":763,"x_min":58,"x_max":867,"o":"m 378 -19 q 130 133 201 -19 q 58 526 58 285 q 135 922 58 783 q 381 1061 211 1061 q 704 532 704 1061 q 631 138 704 294 q 378 -19 558 -19 m 381 144 q 478 241 454 144 q 501 533 501 338 q 478 794 501 690 q 381 897 456 897 q 283 794 306 897 q 261 535 261 692 q 284 241 261 338 q 381 144 307 144 m 700 1522 q 822 1484 776 1522 q 867 1383 867 1446 q 849 1326 867 1347 q 794 1278 831 1304 q 753 1244 767 1258 q 740 1208 740 1229 l 740 1207 l 619 1207 q 618 1222 618 1213 q 638 1283 618 1258 q 690 1336 657 1308 q 719 1363 710 1351 q 729 1383 729 1374 q 696 1415 729 1415 q 647 1363 654 1415 l 522 1365 q 547 1440 524 1404 q 610 1499 569 1476 q 700 1522 650 1522 m 321 1349 l 457 1349 l 614 1106 l 444 1106 l 379 1240 l 300 1106 l 158 1106 l 321 1349 z "},"Ỗ":{"ha":763,"x_min":58,"x_max":704,"o":"m 378 -19 q 130 133 201 -19 q 58 526 58 285 q 135 922 58 783 q 381 1061 211 1061 q 704 532 704 1061 q 631 138 704 294 q 378 -19 558 -19 m 381 144 q 478 241 454 144 q 501 533 501 338 q 478 794 501 690 q 381 897 456 897 q 283 794 306 897 q 261 535 261 692 q 284 241 261 338 q 381 144 307 144 m 318 1456 q 200 1388 261 1456 l 190 1513 q 257 1572 225 1550 q 326 1594 289 1594 q 363 1588 346 1594 q 410 1568 381 1582 q 455 1547 436 1554 q 494 1540 474 1540 q 552 1557 525 1540 q 592 1594 579 1574 l 622 1485 q 604 1456 622 1481 q 558 1409 586 1431 q 494 1388 529 1388 q 454 1396 472 1388 q 407 1421 436 1404 q 361 1447 381 1439 q 318 1456 342 1456 m 326 1349 l 463 1349 l 619 1106 l 450 1106 l 385 1240 l 306 1106 l 164 1106 l 326 1349 z "},"Ȍ":{"ha":763,"x_min":7,"x_max":704,"o":"m 378 -19 q 130 133 201 -19 q 58 526 58 285 q 135 922 58 783 q 381 1061 211 1061 q 704 532 704 1061 q 631 138 704 294 q 378 -19 558 -19 m 381 144 q 478 241 454 144 q 501 533 501 338 q 478 794 501 690 q 381 897 456 897 q 283 794 306 897 q 261 535 261 692 q 284 241 261 338 q 381 144 307 144 m 524 1107 l 325 1418 l 508 1513 l 617 1156 l 524 1107 m 268 1106 l 7 1367 l 165 1499 l 349 1172 l 268 1106 z "},"Ö":{"ha":763,"x_min":58,"x_max":704,"o":"m 378 -19 q 130 133 201 -19 q 58 526 58 285 q 135 922 58 783 q 381 1061 211 1061 q 704 532 704 1061 q 631 138 704 294 q 378 -19 558 -19 m 381 144 q 478 241 454 144 q 501 533 501 338 q 478 794 501 690 q 381 897 456 897 q 283 794 306 897 q 261 535 261 692 q 284 241 261 338 q 381 144 307 144 m 121 1133 l 121 1329 l 317 1329 l 317 1133 l 121 1133 m 446 1133 l 446 1329 l 642 1329 l 642 1133 l 446 1133 z "},"Ȫ":{"ha":763,"x_min":58,"x_max":704,"o":"m 378 -19 q 130 133 201 -19 q 58 526 58 285 q 135 922 58 783 q 381 1061 211 1061 q 704 532 704 1061 q 631 138 704 294 q 378 -19 558 -19 m 381 144 q 478 241 454 144 q 501 533 501 338 q 478 794 501 690 q 381 897 456 897 q 283 794 306 897 q 261 535 261 692 q 284 241 261 338 q 381 144 307 144 m 121 1133 l 121 1329 l 317 1329 l 317 1133 l 121 1133 m 446 1133 l 446 1329 l 642 1329 l 642 1133 l 446 1133 m 186 1393 l 186 1524 l 576 1524 l 576 1393 l 186 1393 z "},"Ȱ":{"ha":763,"x_min":58,"x_max":704,"o":"m 378 -19 q 130 133 201 -19 q 58 526 58 285 q 135 922 58 783 q 381 1061 211 1061 q 704 532 704 1061 q 631 138 704 294 q 378 -19 558 -19 m 381 144 q 478 241 454 144 q 501 533 501 338 q 478 794 501 690 q 381 897 456 897 q 283 794 306 897 q 261 535 261 692 q 284 241 261 338 q 381 144 307 144 m 283 1106 l 283 1301 l 479 1301 l 479 1106 l 283 1106 m 186 1365 l 186 1496 l 576 1496 l 576 1365 l 186 1365 z "},"Ọ":{"ha":763,"x_min":58,"x_max":704,"o":"m 378 -19 q 130 133 201 -19 q 58 526 58 285 q 135 922 58 783 q 381 1061 211 1061 q 704 532 704 1061 q 631 138 704 294 q 378 -19 558 -19 m 381 144 q 478 241 454 144 q 501 533 501 338 q 478 794 501 690 q 381 897 456 897 q 283 794 306 897 q 261 535 261 692 q 284 241 261 338 q 381 144 307 144 m 283 -306 l 283 -110 l 479 -110 l 479 -306 l 283 -306 z "},"Ò":{"ha":763,"x_min":58,"x_max":704,"o":"m 378 -19 q 130 133 201 -19 q 58 526 58 285 q 135 922 58 783 q 381 1061 211 1061 q 704 532 704 1061 q 631 138 704 294 q 378 -19 558 -19 m 381 144 q 478 241 454 144 q 501 533 501 338 q 478 794 501 690 q 381 897 456 897 q 283 794 306 897 q 261 535 261 692 q 284 241 261 338 q 381 144 307 144 m 378 1101 l 126 1313 l 269 1444 l 450 1171 l 378 1101 z "},"Ỏ":{"ha":763,"x_min":58,"x_max":704,"o":"m 378 -19 q 130 133 201 -19 q 58 526 58 285 q 135 922 58 783 q 381 1061 211 1061 q 704 532 704 1061 q 631 138 704 294 q 378 -19 558 -19 m 381 144 q 478 241 454 144 q 501 533 501 338 q 478 794 501 690 q 381 897 456 897 q 283 794 306 897 q 261 535 261 692 q 284 241 261 338 q 381 144 307 144 m 326 1097 q 325 1113 325 1103 q 344 1174 325 1149 q 397 1226 364 1199 q 426 1253 417 1242 q 436 1274 436 1264 q 403 1306 436 1306 q 354 1253 361 1306 l 229 1256 q 253 1331 231 1294 q 317 1390 276 1367 q 407 1413 357 1413 q 528 1374 483 1413 q 574 1274 574 1336 q 556 1216 574 1238 q 501 1168 538 1194 q 460 1134 474 1149 q 447 1099 447 1119 l 447 1097 l 326 1097 z "},"Ơ":{"ha":893,"x_min":58,"x_max":842,"o":"m 842 960 q 797 833 842 886 q 685 763 751 779 q 704 532 704 658 q 631 138 704 294 q 378 -19 558 -19 q 130 133 201 -19 q 58 526 58 285 q 135 922 58 783 q 381 1061 211 1061 q 650 878 571 1061 q 681 903 669 886 q 692 938 692 919 q 681 990 692 961 q 654 1046 669 1019 l 792 1097 q 826 1039 811 1071 q 842 960 842 1007 m 381 144 q 478 241 454 144 q 501 533 501 338 q 478 794 501 690 q 381 897 456 897 q 283 794 306 897 q 261 535 261 692 q 284 241 261 338 q 381 144 307 144 z "},"Ớ":{"ha":893,"x_min":58,"x_max":842,"o":"m 842 960 q 797 833 842 886 q 685 763 751 779 q 704 532 704 658 q 631 138 704 294 q 378 -19 558 -19 q 130 133 201 -19 q 58 526 58 285 q 135 922 58 783 q 381 1061 211 1061 q 650 878 571 1061 q 681 903 669 886 q 692 938 692 919 q 681 990 692 961 q 654 1046 669 1019 l 792 1097 q 826 1039 811 1071 q 842 960 842 1007 m 381 144 q 478 241 454 144 q 501 533 501 338 q 478 794 501 690 q 381 897 456 897 q 283 794 306 897 q 261 535 261 692 q 284 241 261 338 q 381 144 307 144 m 404 1101 l 332 1171 l 513 1444 l 656 1313 l 404 1101 z "},"Ợ":{"ha":893,"x_min":58,"x_max":842,"o":"m 842 960 q 797 833 842 886 q 685 763 751 779 q 704 532 704 658 q 631 138 704 294 q 378 -19 558 -19 q 130 133 201 -19 q 58 526 58 285 q 135 922 58 783 q 381 1061 211 1061 q 650 878 571 1061 q 681 903 669 886 q 692 938 692 919 q 681 990 692 961 q 654 1046 669 1019 l 792 1097 q 826 1039 811 1071 q 842 960 842 1007 m 381 144 q 478 241 454 144 q 501 533 501 338 q 478 794 501 690 q 381 897 456 897 q 283 794 306 897 q 261 535 261 692 q 284 241 261 338 q 381 144 307 144 m 283 -306 l 283 -110 l 479 -110 l 479 -306 l 283 -306 z "},"Ờ":{"ha":893,"x_min":58,"x_max":842,"o":"m 842 960 q 797 833 842 886 q 685 763 751 779 q 704 532 704 658 q 631 138 704 294 q 378 -19 558 -19 q 130 133 201 -19 q 58 526 58 285 q 135 922 58 783 q 381 1061 211 1061 q 650 878 571 1061 q 681 903 669 886 q 692 938 692 919 q 681 990 692 961 q 654 1046 669 1019 l 792 1097 q 826 1039 811 1071 q 842 960 842 1007 m 381 144 q 478 241 454 144 q 501 533 501 338 q 478 794 501 690 q 381 897 456 897 q 283 794 306 897 q 261 535 261 692 q 284 241 261 338 q 381 144 307 144 m 378 1101 l 126 1313 l 269 1444 l 450 1171 l 378 1101 z "},"Ở":{"ha":893,"x_min":58,"x_max":842,"o":"m 842 960 q 797 833 842 886 q 685 763 751 779 q 704 532 704 658 q 631 138 704 294 q 378 -19 558 -19 q 130 133 201 -19 q 58 526 58 285 q 135 922 58 783 q 381 1061 211 1061 q 650 878 571 1061 q 681 903 669 886 q 692 938 692 919 q 681 990 692 961 q 654 1046 669 1019 l 792 1097 q 826 1039 811 1071 q 842 960 842 1007 m 381 144 q 478 241 454 144 q 501 533 501 338 q 478 794 501 690 q 381 897 456 897 q 283 794 306 897 q 261 535 261 692 q 284 241 261 338 q 381 144 307 144 m 326 1097 q 325 1113 325 1103 q 344 1174 325 1149 q 397 1226 364 1199 q 426 1253 417 1242 q 436 1274 436 1264 q 403 1306 436 1306 q 354 1253 361 1306 l 229 1256 q 253 1331 231 1294 q 317 1390 276 1367 q 407 1413 357 1413 q 528 1374 483 1413 q 574 1274 574 1336 q 556 1216 574 1238 q 501 1168 538 1194 q 460 1134 474 1149 q 447 1099 447 1119 l 447 1097 l 326 1097 z "},"Ỡ":{"ha":893,"x_min":58,"x_max":842,"o":"m 842 960 q 797 833 842 886 q 685 763 751 779 q 704 532 704 658 q 631 138 704 294 q 378 -19 558 -19 q 130 133 201 -19 q 58 526 58 285 q 135 922 58 783 q 381 1061 211 1061 q 650 878 571 1061 q 681 903 669 886 q 692 938 692 919 q 681 990 692 961 q 654 1046 669 1019 l 792 1097 q 826 1039 811 1071 q 842 960 842 1007 m 381 144 q 478 241 454 144 q 501 533 501 338 q 478 794 501 690 q 381 897 456 897 q 283 794 306 897 q 261 535 261 692 q 284 241 261 338 q 381 144 307 144 m 471 1139 q 431 1147 449 1139 q 383 1172 413 1156 q 338 1199 357 1190 q 294 1207 318 1207 q 176 1139 238 1207 l 167 1264 q 233 1324 201 1301 q 303 1346 265 1346 q 340 1340 322 1346 q 386 1319 357 1333 q 431 1299 413 1306 q 471 1292 450 1292 q 528 1308 501 1292 q 568 1346 556 1325 l 599 1236 q 581 1207 599 1232 q 534 1160 563 1182 q 471 1139 506 1139 z "},"Ő":{"ha":763,"x_min":58,"x_max":838,"o":"m 378 -19 q 130 133 201 -19 q 58 526 58 285 q 135 922 58 783 q 381 1061 211 1061 q 704 532 704 1061 q 631 138 704 294 q 378 -19 558 -19 m 381 144 q 478 241 454 144 q 501 533 501 338 q 478 794 501 690 q 381 897 456 897 q 283 794 306 897 q 261 535 261 692 q 284 241 261 338 q 381 144 307 144 m 236 1121 l 156 1186 l 338 1513 l 496 1381 l 236 1121 m 576 1121 l 496 1186 l 679 1513 l 838 1381 l 576 1121 z "},"Ȏ":{"ha":763,"x_min":58,"x_max":704,"o":"m 378 -19 q 130 133 201 -19 q 58 526 58 285 q 135 922 58 783 q 381 1061 211 1061 q 704 532 704 1061 q 631 138 704 294 q 378 -19 558 -19 m 381 144 q 478 241 454 144 q 501 533 501 338 q 478 794 501 690 q 381 897 456 897 q 283 794 306 897 q 261 535 261 692 q 284 241 261 338 q 381 144 307 144 m 89 1106 q 117 1253 89 1178 q 210 1380 144 1328 q 382 1432 276 1432 q 553 1380 488 1432 q 646 1253 618 1328 q 674 1106 674 1178 l 511 1106 q 505 1186 511 1153 q 470 1244 499 1219 q 382 1269 442 1269 q 293 1244 322 1269 q 258 1186 264 1219 q 251 1106 251 1153 l 89 1106 z "},"Ō":{"ha":763,"x_min":58,"x_max":704,"o":"m 378 -19 q 130 133 201 -19 q 58 526 58 285 q 135 922 58 783 q 381 1061 211 1061 q 704 532 704 1061 q 631 138 704 294 q 378 -19 558 -19 m 381 144 q 478 241 454 144 q 501 533 501 338 q 478 794 501 690 q 381 897 456 897 q 283 794 306 897 q 261 535 261 692 q 284 241 261 338 q 381 144 307 144 m 186 1106 l 186 1236 l 576 1236 l 576 1106 l 186 1106 z "},"Ǫ":{"ha":763,"x_min":58,"x_max":704,"o":"m 469 -132 q 551 -72 519 -132 l 626 -125 q 547 -224 600 -186 q 435 -261 494 -261 q 361 -240 396 -261 q 305 -186 326 -219 q 283 -117 283 -153 q 310 -12 283 -56 q 58 526 58 43 q 135 922 58 783 q 381 1061 211 1061 q 704 532 704 1061 q 645 166 704 317 q 440 -14 586 15 q 415 -72 415 -42 q 431 -115 415 -99 q 469 -132 446 -132 m 381 897 q 283 794 306 897 q 261 535 261 692 q 284 241 261 338 q 381 144 307 144 q 478 241 454 144 q 501 533 501 338 q 478 794 501 690 q 381 897 456 897 z "},"Ø":{"ha":765,"x_min":19,"x_max":767,"o":"m 381 -22 q 133 131 213 -22 l 85 72 l 19 135 l 96 226 q 58 556 58 358 q 138 929 58 794 q 381 1064 217 1064 q 644 893 564 1064 l 701 963 l 767 900 l 679 794 q 706 556 706 682 q 635 138 706 297 q 381 -22 564 -22 m 494 711 q 381 901 474 901 q 284 800 307 901 q 261 556 261 699 q 263 431 261 468 l 494 711 m 381 151 q 459 199 433 151 q 493 329 485 246 q 501 556 501 413 l 501 579 l 274 301 q 310 189 285 226 q 381 151 335 151 z "},"Ǿ":{"ha":765,"x_min":19,"x_max":767,"o":"m 381 -22 q 133 131 213 -22 l 85 72 l 19 135 l 96 226 q 58 556 58 358 q 138 929 58 794 q 381 1064 217 1064 q 644 893 564 1064 l 701 963 l 767 900 l 679 794 q 706 556 706 682 q 635 138 706 297 q 381 -22 564 -22 m 494 711 q 381 901 474 901 q 284 800 307 901 q 261 556 261 699 q 263 431 261 468 l 494 711 m 381 151 q 459 199 433 151 q 493 329 485 246 q 501 556 501 413 l 501 579 l 274 301 q 310 189 285 226 q 381 151 335 151 m 406 1142 l 333 1211 l 514 1485 l 657 1353 l 406 1142 z "},"Õ":{"ha":763,"x_min":58,"x_max":704,"o":"m 378 -19 q 130 133 201 -19 q 58 526 58 285 q 135 922 58 783 q 381 1061 211 1061 q 704 532 704 1061 q 631 138 704 294 q 378 -19 558 -19 m 381 144 q 478 241 454 144 q 501 533 501 338 q 478 794 501 690 q 381 897 456 897 q 283 794 306 897 q 261 535 261 692 q 284 241 261 338 q 381 144 307 144 m 471 1139 q 431 1147 449 1139 q 383 1172 413 1156 q 338 1199 357 1190 q 294 1207 318 1207 q 176 1139 238 1207 l 167 1264 q 233 1324 201 1301 q 303 1346 265 1346 q 340 1340 322 1346 q 386 1319 357 1333 q 431 1299 413 1306 q 471 1292 450 1292 q 528 1308 501 1292 q 568 1346 556 1325 l 599 1236 q 581 1207 599 1232 q 534 1160 563 1182 q 471 1139 506 1139 z "},"Ȭ":{"ha":763,"x_min":58,"x_max":704,"o":"m 378 -19 q 130 133 201 -19 q 58 526 58 285 q 135 922 58 783 q 381 1061 211 1061 q 704 532 704 1061 q 631 138 704 294 q 378 -19 558 -19 m 381 144 q 478 241 454 144 q 501 533 501 338 q 478 794 501 690 q 381 897 456 897 q 283 794 306 897 q 261 535 261 692 q 284 241 261 338 q 381 144 307 144 m 471 1094 q 431 1103 449 1094 q 383 1128 413 1111 q 338 1154 357 1146 q 294 1163 318 1163 q 176 1094 238 1163 l 167 1219 q 233 1279 201 1257 q 303 1301 265 1301 q 340 1295 322 1301 q 386 1275 357 1289 q 431 1254 413 1261 q 471 1247 450 1247 q 528 1264 501 1247 q 568 1301 556 1281 l 599 1192 q 581 1163 599 1188 q 534 1116 563 1138 q 471 1094 506 1094 m 186 1365 l 186 1496 l 576 1496 l 576 1365 l 186 1365 z "},"Œ":{"ha":1097,"x_min":58,"x_max":1057,"o":"m 381 -18 q 128 138 197 -18 q 58 550 58 294 q 138 915 58 782 q 381 1049 218 1049 q 521 965 468 1049 l 521 1042 l 1046 1042 l 1046 879 l 724 879 l 724 631 l 926 631 l 926 456 l 724 456 l 724 163 l 1057 163 l 1057 0 l 521 0 l 521 65 q 381 -18 468 -18 m 381 154 q 490 231 460 154 q 521 463 521 307 l 521 600 q 489 801 521 715 q 381 886 457 886 q 284 787 307 886 q 261 550 261 688 q 269 328 261 410 q 303 200 276 246 q 381 154 329 154 z "},"P":{"ha":740,"x_min":97,"x_max":714,"o":"m 97 1042 l 228 1042 q 478 1028 385 1042 q 642 947 571 1015 q 714 729 714 879 q 653 523 714 593 q 505 431 593 453 q 301 410 417 410 l 301 8 l 97 -8 l 97 1042 m 338 575 q 465 608 418 575 q 511 731 511 642 q 468 849 511 818 q 332 879 425 879 l 303 879 l 303 575 l 338 575 z "},"Þ":{"ha":733,"x_min":94,"x_max":711,"o":"m 94 1042 l 300 1042 l 300 792 q 508 770 422 790 q 653 683 594 750 q 711 486 711 617 q 651 288 711 356 q 502 200 590 221 q 299 179 414 179 l 299 -46 l 94 -62 l 94 1042 m 335 331 q 462 365 415 331 q 508 488 508 399 q 465 606 508 575 q 329 636 422 636 l 300 636 l 300 331 l 335 331 z "},"Q":{"ha":763,"x_min":58,"x_max":704,"o":"m 704 532 q 665 221 704 357 q 532 24 626 85 l 658 -164 l 533 -246 l 372 -19 q 58 526 58 -14 q 135 922 58 783 q 381 1061 211 1061 q 704 532 704 1061 m 261 535 q 284 241 261 338 q 381 144 307 144 q 478 241 454 144 q 501 533 501 338 q 478 794 501 690 q 381 897 456 897 q 283 794 306 897 q 261 535 261 692 z "},"R":{"ha":785,"x_min":97,"x_max":765,"o":"m 379 457 l 300 457 l 300 8 l 97 -8 l 97 1033 l 344 1042 q 625 970 524 1042 q 726 751 726 899 q 688 592 726 654 q 578 488 650 529 l 671 261 l 765 36 l 565 -18 l 379 457 m 369 607 q 483 637 442 607 q 524 750 524 667 q 396 879 524 879 l 300 879 l 300 607 l 369 607 z "},"Ŕ":{"ha":785,"x_min":97,"x_max":765,"o":"m 379 457 l 300 457 l 300 8 l 97 -8 l 97 1033 l 344 1042 q 625 970 524 1042 q 726 751 726 899 q 688 592 726 654 q 578 488 650 529 l 671 261 l 765 36 l 565 -18 l 379 457 m 369 607 q 483 637 442 607 q 524 750 524 667 q 396 879 524 879 l 300 879 l 300 607 l 369 607 m 415 1100 l 343 1169 l 524 1443 l 667 1311 l 415 1100 z "},"Ř":{"ha":785,"x_min":97,"x_max":765,"o":"m 379 457 l 300 457 l 300 8 l 97 -8 l 97 1033 l 344 1042 q 625 970 524 1042 q 726 751 726 899 q 688 592 726 654 q 578 488 650 529 l 671 261 l 765 36 l 565 -18 l 379 457 m 369 607 q 483 637 442 607 q 524 750 524 667 q 396 879 524 879 l 300 879 l 300 607 l 369 607 m 328 1106 l 165 1432 l 307 1432 l 386 1235 l 451 1432 l 621 1432 l 464 1106 l 328 1106 z "},"Ŗ":{"ha":785,"x_min":97,"x_max":765,"o":"m 379 457 l 300 457 l 300 8 l 97 -8 l 97 1033 l 344 1042 q 625 970 524 1042 q 726 751 726 899 q 688 592 726 654 q 578 488 650 529 l 671 261 l 765 36 l 565 -18 l 379 457 m 369 607 q 483 637 442 607 q 524 750 524 667 q 396 879 524 879 l 300 879 l 300 607 l 369 607 m 340 -328 q 397 -294 381 -328 q 406 -262 403 -282 l 307 -262 l 307 -67 l 503 -67 l 503 -262 q 480 -371 503 -329 q 421 -433 457 -412 q 340 -458 385 -454 l 340 -328 z "},"Ȑ":{"ha":785,"x_min":18,"x_max":765,"o":"m 379 457 l 300 457 l 300 8 l 97 -8 l 97 1033 l 344 1042 q 625 970 524 1042 q 726 751 726 899 q 688 592 726 654 q 578 488 650 529 l 671 261 l 765 36 l 565 -18 l 379 457 m 369 607 q 483 637 442 607 q 524 750 524 667 q 396 879 524 879 l 300 879 l 300 607 l 369 607 m 535 1107 l 336 1418 l 519 1513 l 628 1156 l 535 1107 m 279 1106 l 18 1367 l 176 1499 l 360 1172 l 279 1106 z "},"Ȓ":{"ha":785,"x_min":97,"x_max":765,"o":"m 379 457 l 300 457 l 300 8 l 97 -8 l 97 1033 l 344 1042 q 625 970 524 1042 q 726 751 726 899 q 688 592 726 654 q 578 488 650 529 l 671 261 l 765 36 l 565 -18 l 379 457 m 369 607 q 483 637 442 607 q 524 750 524 667 q 396 879 524 879 l 300 879 l 300 607 l 369 607 m 100 1106 q 128 1253 100 1178 q 222 1380 156 1328 q 393 1432 288 1432 q 564 1380 499 1432 q 657 1253 629 1328 q 685 1106 685 1178 l 522 1106 q 516 1186 522 1153 q 481 1244 510 1219 q 393 1269 453 1269 q 304 1244 333 1269 q 269 1186 275 1219 q 263 1106 263 1153 l 100 1106 z "},"S":{"ha":740,"x_min":32,"x_max":704,"o":"m 372 -19 q 159 51 246 -19 q 32 239 72 121 l 204 319 l 221 292 q 298 183 261 222 q 390 144 335 144 q 455 179 426 144 q 483 256 483 214 q 464 326 483 294 q 414 378 444 358 l 232 486 q 106 599 153 531 q 58 751 58 667 q 101 913 58 842 q 216 1022 143 983 q 381 1061 289 1061 q 563 1008 488 1061 q 674 851 638 956 l 501 774 q 478 824 496 785 q 434 880 460 863 q 371 897 408 897 q 301 868 325 897 q 276 793 276 839 q 295 733 276 760 q 340 690 314 706 l 508 592 q 704 314 694 486 q 660 140 704 215 q 541 22 617 64 q 372 -19 465 -19 z "},"Ś":{"ha":740,"x_min":32,"x_max":704,"o":"m 372 -19 q 159 51 246 -19 q 32 239 72 121 l 204 319 l 221 292 q 298 183 261 222 q 390 144 335 144 q 455 179 426 144 q 483 256 483 214 q 464 326 483 294 q 414 378 444 358 l 232 486 q 106 599 153 531 q 58 751 58 667 q 101 913 58 842 q 216 1022 143 983 q 381 1061 289 1061 q 563 1008 488 1061 q 674 851 638 956 l 501 774 q 478 824 496 785 q 434 880 460 863 q 371 897 408 897 q 301 868 325 897 q 276 793 276 839 q 295 733 276 760 q 340 690 314 706 l 508 592 q 704 314 694 486 q 660 140 704 215 q 541 22 617 64 q 372 -19 465 -19 m 393 1100 l 321 1169 l 501 1443 l 644 1311 l 393 1100 z "},"Š":{"ha":740,"x_min":32,"x_max":704,"o":"m 372 -19 q 159 51 246 -19 q 32 239 72 121 l 204 319 l 221 292 q 298 183 261 222 q 390 144 335 144 q 455 179 426 144 q 483 256 483 214 q 464 326 483 294 q 414 378 444 358 l 232 486 q 106 599 153 531 q 58 751 58 667 q 101 913 58 842 q 216 1022 143 983 q 381 1061 289 1061 q 563 1008 488 1061 q 674 851 638 956 l 501 774 q 478 824 496 785 q 434 880 460 863 q 371 897 408 897 q 301 868 325 897 q 276 793 276 839 q 295 733 276 760 q 340 690 314 706 l 508 592 q 704 314 694 486 q 660 140 704 215 q 541 22 617 64 q 372 -19 465 -19 m 306 1106 l 143 1432 l 285 1432 l 364 1235 l 429 1432 l 599 1432 l 442 1106 l 306 1106 z "},"Ş":{"ha":740,"x_min":32,"x_max":704,"o":"m 704 314 q 667 150 704 222 q 563 35 629 78 q 413 -18 496 -8 l 404 -51 q 533 -134 503 -79 q 564 -229 564 -189 q 522 -341 564 -306 q 417 -376 481 -376 q 331 -365 374 -376 q 261 -333 289 -353 l 261 -222 q 358 -246 314 -246 q 408 -232 392 -246 q 424 -196 424 -218 q 390 -140 424 -165 q 294 -115 357 -115 l 313 -15 q 139 69 210 1 q 32 239 68 136 l 204 319 l 221 292 q 298 183 261 222 q 390 144 335 144 q 455 179 426 144 q 483 256 483 214 q 464 326 483 294 q 414 378 444 358 l 232 486 q 106 599 153 531 q 58 751 58 667 q 101 913 58 842 q 216 1022 143 983 q 381 1061 289 1061 q 563 1008 488 1061 q 674 851 638 956 l 501 774 q 478 824 496 785 q 434 880 460 863 q 371 897 408 897 q 301 868 325 897 q 276 793 276 839 q 295 733 276 760 q 340 690 314 706 l 508 592 q 704 314 694 486 z "},"Ŝ":{"ha":740,"x_min":32,"x_max":704,"o":"m 372 -19 q 159 51 246 -19 q 32 239 72 121 l 204 319 l 221 292 q 298 183 261 222 q 390 144 335 144 q 455 179 426 144 q 483 256 483 214 q 464 326 483 294 q 414 378 444 358 l 232 486 q 106 599 153 531 q 58 751 58 667 q 101 913 58 842 q 216 1022 143 983 q 381 1061 289 1061 q 563 1008 488 1061 q 674 851 638 956 l 501 774 q 478 824 496 785 q 434 880 460 863 q 371 897 408 897 q 301 868 325 897 q 276 793 276 839 q 295 733 276 760 q 340 690 314 706 l 508 592 q 704 314 694 486 q 660 140 704 215 q 541 22 617 64 q 372 -19 465 -19 m 143 1106 l 306 1432 l 442 1432 l 599 1106 l 429 1106 l 364 1303 l 285 1106 l 143 1106 z "},"Ș":{"ha":740,"x_min":32,"x_max":704,"o":"m 372 -19 q 159 51 246 -19 q 32 239 72 121 l 204 319 l 221 292 q 298 183 261 222 q 390 144 335 144 q 455 179 426 144 q 483 256 483 214 q 464 326 483 294 q 414 378 444 358 l 232 486 q 106 599 153 531 q 58 751 58 667 q 101 913 58 842 q 216 1022 143 983 q 381 1061 289 1061 q 563 1008 488 1061 q 674 851 638 956 l 501 774 q 478 824 496 785 q 434 880 460 863 q 371 897 408 897 q 301 868 325 897 q 276 793 276 839 q 295 733 276 760 q 340 690 314 706 l 508 592 q 704 314 694 486 q 660 140 704 215 q 541 22 617 64 q 372 -19 465 -19 m 314 -329 q 371 -296 354 -329 q 379 -264 376 -283 l 281 -264 l 281 -68 l 476 -68 l 476 -264 q 453 -372 476 -331 q 394 -435 431 -414 q 314 -460 358 -456 l 314 -329 z "},"Ṣ":{"ha":740,"x_min":32,"x_max":704,"o":"m 372 -19 q 159 51 246 -19 q 32 239 72 121 l 204 319 l 221 292 q 298 183 261 222 q 390 144 335 144 q 455 179 426 144 q 483 256 483 214 q 464 326 483 294 q 414 378 444 358 l 232 486 q 106 599 153 531 q 58 751 58 667 q 101 913 58 842 q 216 1022 143 983 q 381 1061 289 1061 q 563 1008 488 1061 q 674 851 638 956 l 501 774 q 478 824 496 785 q 434 880 460 863 q 371 897 408 897 q 301 868 325 897 q 276 793 276 839 q 295 733 276 760 q 340 690 314 706 l 508 592 q 704 314 694 486 q 660 140 704 215 q 541 22 617 64 q 372 -19 465 -19 m 272 1106 l 272 1301 l 468 1301 l 468 1106 l 272 1106 z "},"ẞ":{"ha":929,"x_min":85,"x_max":860,"o":"m 635 590 q 800 494 740 556 q 860 318 860 433 q 733 70 860 150 q 408 -17 606 -10 l 408 125 q 549 153 493 125 q 630 226 604 182 q 656 315 656 269 q 633 399 656 357 q 566 469 610 440 q 465 503 522 499 l 447 617 l 581 901 q 510 915 547 911 q 451 919 472 919 q 335 880 382 919 q 289 753 289 840 l 289 0 l 85 -17 l 85 717 q 140 939 85 863 q 278 1040 194 1015 q 471 1064 361 1064 q 626 1051 536 1064 q 801 1015 715 1039 l 801 932 l 635 590 z "},"Ə":{"ha":753,"x_min":47,"x_max":694,"o":"m 368 -22 q 117 138 186 -22 q 47 553 47 297 l 490 553 q 467 799 490 697 q 369 901 443 901 q 288 848 318 901 q 247 708 258 794 l 60 774 q 372 1064 131 1064 q 694 532 694 1064 q 622 135 694 293 q 368 -22 550 -22 m 369 151 q 456 214 431 151 q 488 404 482 276 l 253 404 q 285 213 260 275 q 369 151 310 151 z "},"T":{"ha":663,"x_min":19,"x_max":646,"o":"m 232 -8 l 232 879 l 19 879 l 35 1042 l 646 1042 l 629 879 l 435 879 l 435 8 l 232 -8 z "},"Ŧ":{"ha":663,"x_min":19,"x_max":646,"o":"m 629 879 l 435 879 l 435 546 l 522 546 l 522 415 l 435 415 l 435 8 l 232 -8 l 232 415 l 132 415 l 132 546 l 232 546 l 232 879 l 19 879 l 35 1042 l 646 1042 l 629 879 z "},"Ť":{"ha":663,"x_min":19,"x_max":646,"o":"m 232 -8 l 232 879 l 19 879 l 35 1042 l 646 1042 l 629 879 l 435 879 l 435 8 l 232 -8 m 267 1106 l 104 1432 l 246 1432 l 325 1235 l 390 1432 l 560 1432 l 403 1106 l 267 1106 z "},"Ţ":{"ha":663,"x_min":19,"x_max":646,"o":"m 378 4 l 365 -51 q 494 -134 464 -79 q 525 -229 525 -189 q 483 -341 525 -306 q 378 -376 442 -376 q 292 -365 335 -376 q 222 -333 250 -353 l 222 -222 q 319 -246 275 -246 q 369 -232 353 -246 q 385 -196 385 -218 q 351 -140 385 -165 q 256 -115 318 -115 l 275 -4 l 232 -8 l 232 879 l 19 879 l 35 1042 l 646 1042 l 629 879 l 435 879 l 435 8 l 378 4 z "},"Ț":{"ha":663,"x_min":19,"x_max":646,"o":"m 232 -8 l 232 879 l 19 879 l 35 1042 l 646 1042 l 629 879 l 435 879 l 435 8 l 232 -8 m 278 -328 q 335 -294 318 -328 q 343 -262 340 -282 l 244 -262 l 244 -67 l 440 -67 l 440 -262 q 417 -371 440 -329 q 358 -433 394 -412 q 278 -458 322 -454 l 278 -328 z "},"U":{"ha":789,"x_min":89,"x_max":699,"o":"m 400 -19 q 167 81 244 -19 q 89 343 89 181 l 89 1033 l 293 1042 l 293 326 q 299 235 293 272 q 331 171 306 197 q 407 144 356 144 q 478 172 456 144 q 507 235 501 199 q 513 329 513 272 l 513 1025 l 699 1042 l 699 367 q 641 100 699 219 q 400 -19 583 -19 z "},"Ú":{"ha":789,"x_min":89,"x_max":699,"o":"m 400 -19 q 167 81 244 -19 q 89 343 89 181 l 89 1033 l 293 1042 l 293 326 q 299 235 293 272 q 331 171 306 197 q 407 144 356 144 q 478 172 456 144 q 507 235 501 199 q 513 329 513 272 l 513 1025 l 699 1042 l 699 367 q 641 100 699 219 q 400 -19 583 -19 m 417 1101 l 344 1171 l 525 1444 l 668 1313 l 417 1101 z "},"Ŭ":{"ha":789,"x_min":89,"x_max":699,"o":"m 400 -19 q 167 81 244 -19 q 89 343 89 181 l 89 1033 l 293 1042 l 293 326 q 299 235 293 272 q 331 171 306 197 q 407 144 356 144 q 478 172 456 144 q 507 235 501 199 q 513 329 513 272 l 513 1025 l 699 1042 l 699 367 q 641 100 699 219 q 400 -19 583 -19 m 397 1129 q 248 1184 299 1129 q 188 1332 197 1239 l 304 1332 q 313 1304 306 1328 q 340 1269 319 1281 q 394 1257 360 1257 q 447 1267 429 1257 q 469 1290 464 1278 q 483 1332 474 1301 l 600 1332 q 540 1185 590 1240 q 397 1129 490 1129 z "},"Ǔ":{"ha":789,"x_min":89,"x_max":699,"o":"m 400 -19 q 167 81 244 -19 q 89 343 89 181 l 89 1033 l 293 1042 l 293 326 q 299 235 293 272 q 331 171 306 197 q 407 144 356 144 q 478 172 456 144 q 507 235 501 199 q 513 329 513 272 l 513 1025 l 699 1042 l 699 367 q 641 100 699 219 q 400 -19 583 -19 m 329 1106 l 167 1432 l 308 1432 l 388 1235 l 453 1432 l 622 1432 l 465 1106 l 329 1106 z "},"Û":{"ha":789,"x_min":89,"x_max":699,"o":"m 400 -19 q 167 81 244 -19 q 89 343 89 181 l 89 1033 l 293 1042 l 293 326 q 299 235 293 272 q 331 171 306 197 q 407 144 356 144 q 478 172 456 144 q 507 235 501 199 q 513 329 513 272 l 513 1025 l 699 1042 l 699 367 q 641 100 699 219 q 400 -19 583 -19 m 167 1106 l 329 1432 l 465 1432 l 622 1106 l 453 1106 l 388 1303 l 308 1106 l 167 1106 z "},"Ȕ":{"ha":789,"x_min":19,"x_max":699,"o":"m 400 -19 q 167 81 244 -19 q 89 343 89 181 l 89 1033 l 293 1042 l 293 326 q 299 235 293 272 q 331 171 306 197 q 407 144 356 144 q 478 172 456 144 q 507 235 501 199 q 513 329 513 272 l 513 1025 l 699 1042 l 699 367 q 641 100 699 219 q 400 -19 583 -19 m 536 1107 l 338 1418 l 521 1513 l 629 1156 l 536 1107 m 281 1106 l 19 1367 l 178 1499 l 361 1172 l 281 1106 z "},"Ü":{"ha":789,"x_min":89,"x_max":699,"o":"m 400 -19 q 167 81 244 -19 q 89 343 89 181 l 89 1033 l 293 1042 l 293 326 q 299 235 293 272 q 331 171 306 197 q 407 144 356 144 q 478 172 456 144 q 507 235 501 199 q 513 329 513 272 l 513 1025 l 699 1042 l 699 367 q 641 100 699 219 q 400 -19 583 -19 m 133 1133 l 133 1329 l 329 1329 l 329 1133 l 133 1133 m 458 1133 l 458 1329 l 654 1329 l 654 1133 l 458 1133 z "},"Ụ":{"ha":789,"x_min":89,"x_max":699,"o":"m 400 -19 q 167 81 244 -19 q 89 343 89 181 l 89 1033 l 293 1042 l 293 326 q 299 235 293 272 q 331 171 306 197 q 407 144 356 144 q 478 172 456 144 q 507 235 501 199 q 513 329 513 272 l 513 1025 l 699 1042 l 699 367 q 641 100 699 219 q 400 -19 583 -19 m 296 -306 l 296 -110 l 492 -110 l 492 -306 l 296 -306 z "},"Ù":{"ha":789,"x_min":89,"x_max":699,"o":"m 400 -19 q 167 81 244 -19 q 89 343 89 181 l 89 1033 l 293 1042 l 293 326 q 299 235 293 272 q 331 171 306 197 q 407 144 356 144 q 478 172 456 144 q 507 235 501 199 q 513 329 513 272 l 513 1025 l 699 1042 l 699 367 q 641 100 699 219 q 400 -19 583 -19 m 390 1101 l 139 1313 l 282 1444 l 463 1171 l 390 1101 z "},"Ủ":{"ha":789,"x_min":89,"x_max":699,"o":"m 400 -19 q 167 81 244 -19 q 89 343 89 181 l 89 1033 l 293 1042 l 293 326 q 299 235 293 272 q 331 171 306 197 q 407 144 356 144 q 478 172 456 144 q 507 235 501 199 q 513 329 513 272 l 513 1025 l 699 1042 l 699 367 q 641 100 699 219 q 400 -19 583 -19 m 339 1097 q 338 1113 338 1103 q 357 1174 338 1149 q 410 1226 376 1199 q 439 1253 429 1242 q 449 1274 449 1264 q 415 1306 449 1306 q 367 1253 374 1306 l 242 1256 q 266 1331 243 1294 q 329 1390 289 1367 q 419 1413 369 1413 q 541 1374 496 1413 q 586 1274 586 1336 q 568 1216 586 1238 q 514 1168 550 1194 q 473 1134 486 1149 q 460 1099 460 1119 l 460 1097 l 339 1097 z "},"Ư":{"ha":890,"x_min":89,"x_max":932,"o":"m 882 1100 q 917 1042 901 1074 q 932 963 932 1010 q 902 858 932 904 q 824 785 872 811 q 724 758 776 758 q 699 760 707 758 l 699 367 q 641 100 699 219 q 400 -19 583 -19 q 167 81 244 -19 q 89 343 89 181 l 89 1033 l 293 1042 l 293 326 q 299 235 293 272 q 331 171 306 197 q 407 144 356 144 q 478 172 456 144 q 507 235 501 199 q 513 329 513 272 l 513 1025 l 699 1042 l 699 878 q 760 893 739 874 q 782 940 782 913 q 771 993 782 964 q 744 1049 760 1022 l 882 1100 z "},"Ứ":{"ha":890,"x_min":89,"x_max":932,"o":"m 882 1100 q 917 1042 901 1074 q 932 963 932 1010 q 902 858 932 904 q 824 785 872 811 q 724 758 776 758 q 699 760 707 758 l 699 367 q 641 100 699 219 q 400 -19 583 -19 q 167 81 244 -19 q 89 343 89 181 l 89 1033 l 293 1042 l 293 326 q 299 235 293 272 q 331 171 306 197 q 407 144 356 144 q 478 172 456 144 q 507 235 501 199 q 513 329 513 272 l 513 1025 l 699 1042 l 699 878 q 760 893 739 874 q 782 940 782 913 q 771 993 782 964 q 744 1049 760 1022 l 882 1100 m 417 1101 l 344 1171 l 525 1444 l 668 1313 l 417 1101 z "},"Ự":{"ha":890,"x_min":89,"x_max":932,"o":"m 882 1100 q 917 1042 901 1074 q 932 963 932 1010 q 902 858 932 904 q 824 785 872 811 q 724 758 776 758 q 699 760 707 758 l 699 367 q 641 100 699 219 q 400 -19 583 -19 q 167 81 244 -19 q 89 343 89 181 l 89 1033 l 293 1042 l 293 326 q 299 235 293 272 q 331 171 306 197 q 407 144 356 144 q 478 172 456 144 q 507 235 501 199 q 513 329 513 272 l 513 1025 l 699 1042 l 699 878 q 760 893 739 874 q 782 940 782 913 q 771 993 782 964 q 744 1049 760 1022 l 882 1100 m 296 -306 l 296 -110 l 492 -110 l 492 -306 l 296 -306 z "},"Ừ":{"ha":890,"x_min":89,"x_max":932,"o":"m 882 1100 q 917 1042 901 1074 q 932 963 932 1010 q 902 858 932 904 q 824 785 872 811 q 724 758 776 758 q 699 760 707 758 l 699 367 q 641 100 699 219 q 400 -19 583 -19 q 167 81 244 -19 q 89 343 89 181 l 89 1033 l 293 1042 l 293 326 q 299 235 293 272 q 331 171 306 197 q 407 144 356 144 q 478 172 456 144 q 507 235 501 199 q 513 329 513 272 l 513 1025 l 699 1042 l 699 878 q 760 893 739 874 q 782 940 782 913 q 771 993 782 964 q 744 1049 760 1022 l 882 1100 m 390 1101 l 139 1313 l 282 1444 l 463 1171 l 390 1101 z "},"Ử":{"ha":890,"x_min":89,"x_max":932,"o":"m 882 1100 q 917 1042 901 1074 q 932 963 932 1010 q 902 858 932 904 q 824 785 872 811 q 724 758 776 758 q 699 760 707 758 l 699 367 q 641 100 699 219 q 400 -19 583 -19 q 167 81 244 -19 q 89 343 89 181 l 89 1033 l 293 1042 l 293 326 q 299 235 293 272 q 331 171 306 197 q 407 144 356 144 q 478 172 456 144 q 507 235 501 199 q 513 329 513 272 l 513 1025 l 699 1042 l 699 878 q 760 893 739 874 q 782 940 782 913 q 771 993 782 964 q 744 1049 760 1022 l 882 1100 m 339 1097 q 338 1113 338 1103 q 357 1174 338 1149 q 410 1226 376 1199 q 439 1253 429 1242 q 449 1274 449 1264 q 415 1306 449 1306 q 367 1253 374 1306 l 242 1256 q 266 1331 243 1294 q 329 1390 289 1367 q 419 1413 369 1413 q 541 1374 496 1413 q 586 1274 586 1336 q 568 1216 586 1238 q 514 1168 550 1194 q 473 1134 486 1149 q 460 1099 460 1119 l 460 1097 l 339 1097 z "},"Ữ":{"ha":890,"x_min":89,"x_max":932,"o":"m 882 1100 q 917 1042 901 1074 q 932 963 932 1010 q 902 858 932 904 q 824 785 872 811 q 724 758 776 758 q 699 760 707 758 l 699 367 q 641 100 699 219 q 400 -19 583 -19 q 167 81 244 -19 q 89 343 89 181 l 89 1033 l 293 1042 l 293 326 q 299 235 293 272 q 331 171 306 197 q 407 144 356 144 q 478 172 456 144 q 507 235 501 199 q 513 329 513 272 l 513 1025 l 699 1042 l 699 878 q 760 893 739 874 q 782 940 782 913 q 771 993 782 964 q 744 1049 760 1022 l 882 1100 m 483 1139 q 443 1147 461 1139 q 396 1172 425 1156 q 350 1199 369 1190 q 307 1207 331 1207 q 189 1139 250 1207 l 179 1264 q 246 1324 214 1301 q 315 1346 278 1346 q 352 1340 335 1346 q 399 1319 369 1333 q 444 1299 425 1306 q 483 1292 463 1292 q 541 1308 514 1292 q 581 1346 568 1325 l 611 1236 q 593 1207 611 1232 q 547 1160 575 1182 q 483 1139 518 1139 z "},"Ű":{"ha":789,"x_min":89,"x_max":865,"o":"m 400 -19 q 167 81 244 -19 q 89 343 89 181 l 89 1033 l 293 1042 l 293 326 q 299 235 293 272 q 331 171 306 197 q 407 144 356 144 q 478 172 456 144 q 507 235 501 199 q 513 329 513 272 l 513 1025 l 699 1042 l 699 367 q 641 100 699 219 q 400 -19 583 -19 m 264 1121 l 183 1186 l 365 1513 l 524 1381 l 264 1121 m 604 1121 l 524 1186 l 707 1513 l 865 1381 l 604 1121 z "},"Ȗ":{"ha":789,"x_min":89,"x_max":699,"o":"m 400 -19 q 167 81 244 -19 q 89 343 89 181 l 89 1033 l 293 1042 l 293 326 q 299 235 293 272 q 331 171 306 197 q 407 144 356 144 q 478 172 456 144 q 507 235 501 199 q 513 329 513 272 l 513 1025 l 699 1042 l 699 367 q 641 100 699 219 q 400 -19 583 -19 m 101 1106 q 129 1253 101 1178 q 223 1380 157 1328 q 394 1432 289 1432 q 565 1380 500 1432 q 658 1253 631 1328 q 686 1106 686 1178 l 524 1106 q 517 1186 524 1153 q 483 1244 511 1219 q 394 1269 454 1269 q 306 1244 335 1269 q 270 1186 276 1219 q 264 1106 264 1153 l 101 1106 z "},"Ū":{"ha":789,"x_min":89,"x_max":699,"o":"m 400 -19 q 167 81 244 -19 q 89 343 89 181 l 89 1033 l 293 1042 l 293 326 q 299 235 293 272 q 331 171 306 197 q 407 144 356 144 q 478 172 456 144 q 507 235 501 199 q 513 329 513 272 l 513 1025 l 699 1042 l 699 367 q 641 100 699 219 q 400 -19 583 -19 m 199 1106 l 199 1236 l 589 1236 l 589 1106 l 199 1106 z "},"Ų":{"ha":789,"x_min":89,"x_max":699,"o":"m 699 367 q 449 -17 699 14 q 426 -72 426 -46 q 442 -115 426 -99 q 481 -132 457 -132 q 563 -72 531 -132 l 638 -125 q 558 -224 611 -186 q 446 -261 506 -261 q 372 -240 407 -261 q 316 -186 338 -219 q 294 -117 294 -153 q 321 -11 294 -54 q 147 108 204 13 q 89 343 89 203 l 89 1033 l 293 1042 l 293 326 q 299 235 293 272 q 331 171 306 197 q 407 144 356 144 q 478 172 456 144 q 507 235 501 199 q 513 329 513 272 l 513 1025 l 699 1042 l 699 367 z "},"Ů":{"ha":789,"x_min":89,"x_max":699,"o":"m 400 -19 q 167 81 244 -19 q 89 343 89 181 l 89 1033 l 293 1042 l 293 326 q 299 235 293 272 q 331 171 306 197 q 407 144 356 144 q 478 172 456 144 q 507 235 501 199 q 513 329 513 272 l 513 1025 l 699 1042 l 699 367 q 641 100 699 219 q 400 -19 583 -19 m 394 1106 q 245 1154 308 1106 q 182 1290 182 1203 q 244 1426 182 1378 q 394 1475 307 1475 q 543 1427 481 1475 q 606 1290 606 1379 q 576 1190 606 1232 q 497 1126 546 1147 q 394 1106 449 1106 m 393 1214 q 452 1234 426 1214 q 478 1290 478 1254 q 452 1345 478 1325 q 393 1365 426 1365 q 335 1345 360 1365 q 310 1290 310 1325 q 335 1235 310 1256 q 393 1214 360 1214 z "},"Ũ":{"ha":789,"x_min":89,"x_max":699,"o":"m 400 -19 q 167 81 244 -19 q 89 343 89 181 l 89 1033 l 293 1042 l 293 326 q 299 235 293 272 q 331 171 306 197 q 407 144 356 144 q 478 172 456 144 q 507 235 501 199 q 513 329 513 272 l 513 1025 l 699 1042 l 699 367 q 641 100 699 219 q 400 -19 583 -19 m 483 1139 q 443 1147 461 1139 q 396 1172 425 1156 q 350 1199 369 1190 q 307 1207 331 1207 q 189 1139 250 1207 l 179 1264 q 246 1324 214 1301 q 315 1346 278 1346 q 352 1340 335 1346 q 399 1319 369 1333 q 444 1299 425 1306 q 483 1292 463 1292 q 541 1308 514 1292 q 581 1346 568 1325 l 611 1236 q 593 1207 611 1232 q 547 1160 575 1182 q 483 1139 518 1139 z "},"V":{"ha":740,"x_min":11,"x_max":731,"o":"m 257 0 l 11 1033 l 253 1042 l 390 322 l 535 1033 l 731 1042 l 481 0 l 257 0 z "},"W":{"ha":1075,"x_min":18,"x_max":1064,"o":"m 231 0 l 18 1033 l 240 1042 l 350 418 l 468 1033 l 635 1042 l 744 411 l 876 1033 l 1064 1042 l 840 0 l 639 0 l 529 636 l 417 0 l 231 0 z "},"Ẃ":{"ha":1075,"x_min":18,"x_max":1064,"o":"m 231 0 l 18 1033 l 240 1042 l 350 418 l 468 1033 l 635 1042 l 744 411 l 876 1033 l 1064 1042 l 840 0 l 639 0 l 529 636 l 417 0 l 231 0 m 560 1100 l 488 1169 l 668 1443 l 811 1311 l 560 1100 z "},"Ŵ":{"ha":1075,"x_min":18,"x_max":1064,"o":"m 231 0 l 18 1033 l 240 1042 l 350 418 l 468 1033 l 635 1042 l 744 411 l 876 1033 l 1064 1042 l 840 0 l 639 0 l 529 636 l 417 0 l 231 0 m 310 1106 l 472 1432 l 608 1432 l 765 1106 l 596 1106 l 531 1303 l 451 1106 l 310 1106 z "},"Ẅ":{"ha":1075,"x_min":18,"x_max":1064,"o":"m 231 0 l 18 1033 l 240 1042 l 350 418 l 468 1033 l 635 1042 l 744 411 l 876 1033 l 1064 1042 l 840 0 l 639 0 l 529 636 l 417 0 l 231 0 m 276 1133 l 276 1329 l 472 1329 l 472 1133 l 276 1133 m 601 1133 l 601 1329 l 797 1329 l 797 1133 l 601 1133 z "},"Ẁ":{"ha":1075,"x_min":18,"x_max":1064,"o":"m 231 0 l 18 1033 l 240 1042 l 350 418 l 468 1033 l 635 1042 l 744 411 l 876 1033 l 1064 1042 l 840 0 l 639 0 l 529 636 l 417 0 l 231 0 m 561 1100 l 310 1311 l 453 1443 l 633 1169 l 561 1100 z "},"X":{"ha":722,"x_min":0,"x_max":729,"o":"m 0 0 l 260 529 l 11 1042 l 254 1042 l 375 771 l 500 1042 l 694 1042 l 460 568 l 729 0 l 488 0 l 340 326 l 193 0 l 0 0 z "},"Y":{"ha":696,"x_min":-1,"x_max":694,"o":"m 249 -8 l 249 413 l -1 1042 l 222 1042 l 365 608 l 519 1042 l 694 1042 l 454 436 l 454 8 l 249 -8 z "},"Ý":{"ha":696,"x_min":-1,"x_max":694,"o":"m 249 -8 l 249 413 l -1 1042 l 222 1042 l 365 608 l 519 1042 l 694 1042 l 454 436 l 454 8 l 249 -8 m 371 1101 l 299 1171 l 479 1444 l 622 1313 l 371 1101 z "},"Ŷ":{"ha":696,"x_min":-1,"x_max":694,"o":"m 249 -8 l 249 413 l -1 1042 l 222 1042 l 365 608 l 519 1042 l 694 1042 l 454 436 l 454 8 l 249 -8 m 121 1106 l 283 1432 l 419 1432 l 576 1106 l 407 1106 l 342 1303 l 263 1106 l 121 1106 z "},"Ÿ":{"ha":696,"x_min":-1,"x_max":694,"o":"m 249 -8 l 249 413 l -1 1042 l 222 1042 l 365 608 l 519 1042 l 694 1042 l 454 436 l 454 8 l 249 -8 m 88 1133 l 88 1329 l 283 1329 l 283 1133 l 88 1133 m 413 1133 l 413 1329 l 608 1329 l 608 1133 l 413 1133 z "},"Ỵ":{"ha":696,"x_min":-1,"x_max":694,"o":"m 249 -8 l 249 413 l -1 1042 l 222 1042 l 365 608 l 519 1042 l 694 1042 l 454 436 l 454 8 l 249 -8 m 250 -306 l 250 -110 l 446 -110 l 446 -306 l 250 -306 z "},"Ỳ":{"ha":696,"x_min":-1,"x_max":694,"o":"m 249 -8 l 249 413 l -1 1042 l 222 1042 l 365 608 l 519 1042 l 694 1042 l 454 436 l 454 8 l 249 -8 m 344 1101 l 93 1313 l 236 1444 l 417 1171 l 344 1101 z "},"Ỷ":{"ha":696,"x_min":-1,"x_max":694,"o":"m 249 -8 l 249 413 l -1 1042 l 222 1042 l 365 608 l 519 1042 l 694 1042 l 454 436 l 454 8 l 249 -8 m 293 1097 q 292 1113 292 1103 q 311 1174 292 1149 q 364 1226 331 1199 q 393 1253 383 1242 q 403 1274 403 1264 q 369 1306 403 1306 q 321 1253 328 1306 l 196 1256 q 220 1331 197 1294 q 283 1390 243 1367 q 374 1413 324 1413 q 495 1374 450 1413 q 540 1274 540 1336 q 522 1216 540 1238 q 468 1168 504 1194 q 427 1134 440 1149 q 414 1099 414 1119 l 414 1097 l 293 1097 z "},"Ȳ":{"ha":696,"x_min":-1,"x_max":694,"o":"m 249 -8 l 249 413 l -1 1042 l 222 1042 l 365 608 l 519 1042 l 694 1042 l 454 436 l 454 8 l 249 -8 m 153 1106 l 153 1236 l 543 1236 l 543 1106 l 153 1106 z "},"Ỹ":{"ha":696,"x_min":-1,"x_max":694,"o":"m 249 -8 l 249 413 l -1 1042 l 222 1042 l 365 608 l 519 1042 l 694 1042 l 454 436 l 454 8 l 249 -8 m 438 1139 q 397 1147 415 1139 q 350 1172 379 1156 q 304 1199 324 1190 q 261 1207 285 1207 q 143 1139 204 1207 l 133 1264 q 200 1324 168 1301 q 269 1346 232 1346 q 306 1340 289 1346 q 353 1319 324 1333 q 398 1299 379 1306 q 438 1292 417 1292 q 495 1308 468 1292 q 535 1346 522 1325 l 565 1236 q 547 1207 565 1232 q 501 1160 529 1182 q 438 1139 472 1139 z "},"Z":{"ha":656,"x_min":42,"x_max":622,"o":"m 42 0 l 42 129 l 376 879 l 74 879 l 90 1042 l 613 1042 l 613 907 l 286 163 l 622 163 l 590 0 l 42 0 z "},"Ź":{"ha":656,"x_min":42,"x_max":631,"o":"m 42 0 l 42 129 l 376 879 l 74 879 l 90 1042 l 613 1042 l 613 907 l 286 163 l 622 163 l 590 0 l 42 0 m 379 1100 l 307 1169 l 488 1443 l 631 1311 l 379 1100 z "},"Ž":{"ha":656,"x_min":42,"x_max":622,"o":"m 42 0 l 42 129 l 376 879 l 74 879 l 90 1042 l 613 1042 l 613 907 l 286 163 l 622 163 l 590 0 l 42 0 m 292 1106 l 129 1432 l 271 1432 l 350 1235 l 415 1432 l 585 1432 l 428 1106 l 292 1106 z "},"Ż":{"ha":656,"x_min":42,"x_max":622,"o":"m 42 0 l 42 129 l 376 879 l 74 879 l 90 1042 l 613 1042 l 613 907 l 286 163 l 622 163 l 590 0 l 42 0 m 258 1106 l 258 1301 l 454 1301 l 454 1106 l 258 1106 z "},"a":{"ha":654,"x_min":38,"x_max":599,"o":"m 213 -18 q 122 13 163 -18 q 60 98 82 44 q 38 218 38 151 q 141 431 38 369 q 382 501 244 493 q 372 613 382 576 q 325 649 363 649 q 276 624 293 649 q 256 560 260 599 l 65 593 q 153 746 79 700 q 325 792 226 792 q 515 725 451 792 q 578 551 578 658 l 578 147 q 599 8 578 82 l 408 -8 l 386 88 q 313 13 361 43 q 213 -18 264 -18 m 303 121 q 342 132 326 121 q 382 168 358 143 l 382 385 q 271 347 313 385 q 229 231 229 310 q 248 149 229 178 q 303 121 267 121 z "},"á":{"ha":654,"x_min":38,"x_max":613,"o":"m 213 -18 q 122 13 163 -18 q 60 98 82 44 q 38 218 38 151 q 141 431 38 369 q 382 501 244 493 q 372 613 382 576 q 325 649 363 649 q 276 624 293 649 q 256 560 260 599 l 65 593 q 153 746 79 700 q 325 792 226 792 q 515 725 451 792 q 578 551 578 658 l 578 147 q 599 8 578 82 l 408 -8 l 386 88 q 313 13 361 43 q 213 -18 264 -18 m 303 121 q 342 132 326 121 q 382 168 358 143 l 382 385 q 271 347 313 385 q 229 231 229 310 q 248 149 229 178 q 303 121 267 121 m 361 840 l 289 910 l 469 1183 l 613 1051 l 361 840 z "},"ă":{"ha":654,"x_min":38,"x_max":599,"o":"m 213 -18 q 122 13 163 -18 q 60 98 82 44 q 38 218 38 151 q 141 431 38 369 q 382 501 244 493 q 372 613 382 576 q 325 649 363 649 q 276 624 293 649 q 256 560 260 599 l 65 593 q 153 746 79 700 q 325 792 226 792 q 515 725 451 792 q 578 551 578 658 l 578 147 q 599 8 578 82 l 408 -8 l 386 88 q 313 13 361 43 q 213 -18 264 -18 m 303 121 q 342 132 326 121 q 382 168 358 143 l 382 385 q 271 347 313 385 q 229 231 229 310 q 248 149 229 178 q 303 121 267 121 m 342 869 q 192 924 243 869 q 132 1072 142 979 l 249 1072 q 257 1044 250 1068 q 284 1009 264 1021 q 339 997 304 997 q 391 1008 374 997 q 413 1030 408 1018 q 428 1072 418 1042 l 544 1072 q 485 925 535 981 q 342 869 435 869 z "},"ắ":{"ha":654,"x_min":38,"x_max":599,"o":"m 213 -18 q 122 13 163 -18 q 60 98 82 44 q 38 218 38 151 q 141 431 38 369 q 382 501 244 493 q 372 613 382 576 q 325 649 363 649 q 276 624 293 649 q 256 560 260 599 l 65 593 q 153 746 79 700 q 325 792 226 792 q 515 725 451 792 q 578 551 578 658 l 578 147 q 599 8 578 82 l 408 -8 l 386 88 q 313 13 361 43 q 213 -18 264 -18 m 303 121 q 342 132 326 121 q 382 168 358 143 l 382 385 q 271 347 313 385 q 229 231 229 310 q 248 149 229 178 q 303 121 267 121 m 329 869 q 180 924 231 869 q 119 1072 129 979 l 236 1072 q 244 1044 238 1068 q 272 1009 251 1021 q 326 997 292 997 q 378 1008 361 997 q 401 1030 396 1018 q 415 1072 406 1042 l 532 1072 q 472 925 522 981 q 329 869 422 869 m 333 1096 l 261 1165 l 442 1439 l 585 1307 l 333 1096 z "},"ặ":{"ha":654,"x_min":38,"x_max":599,"o":"m 329 -22 q 256 -12 294 -22 q 213 -18 238 -18 q 122 13 163 -18 q 60 98 82 44 q 38 218 38 151 q 141 431 38 369 q 382 501 244 493 q 372 613 382 576 q 325 649 363 649 q 276 624 293 649 q 256 560 260 599 l 65 593 q 153 746 79 700 q 325 792 226 792 q 515 725 451 792 q 578 551 578 658 l 578 147 q 599 8 578 82 l 411 -8 q 329 -22 372 -22 m 382 385 q 271 347 313 385 q 229 231 229 310 q 235 181 229 199 l 236 181 l 243 157 q 303 121 263 121 q 342 132 326 121 q 382 168 358 143 l 382 385 m 228 -306 l 228 -110 l 424 -110 l 424 -306 l 228 -306 z "},"ằ":{"ha":654,"x_min":38,"x_max":599,"o":"m 213 -18 q 122 13 163 -18 q 60 98 82 44 q 38 218 38 151 q 141 431 38 369 q 382 501 244 493 q 372 613 382 576 q 325 649 363 649 q 276 624 293 649 q 256 560 260 599 l 65 593 q 153 746 79 700 q 325 792 226 792 q 515 725 451 792 q 578 551 578 658 l 578 147 q 599 8 578 82 l 408 -8 l 386 88 q 313 13 361 43 q 213 -18 264 -18 m 303 121 q 342 132 326 121 q 382 168 358 143 l 382 385 q 271 347 313 385 q 229 231 229 310 q 248 149 229 178 q 303 121 267 121 m 349 869 q 199 924 250 869 q 139 1072 149 979 l 256 1072 q 264 1044 257 1068 q 291 1009 271 1021 q 346 997 311 997 q 398 1008 381 997 q 420 1030 415 1018 q 435 1072 425 1042 l 551 1072 q 492 925 542 981 q 349 869 442 869 m 344 1090 l 93 1301 l 236 1433 l 417 1160 l 344 1090 z "},"ẳ":{"ha":654,"x_min":38,"x_max":599,"o":"m 213 -18 q 122 13 163 -18 q 60 98 82 44 q 38 218 38 151 q 141 431 38 369 q 382 501 244 493 q 372 613 382 576 q 325 649 363 649 q 276 624 293 649 q 256 560 260 599 l 65 593 q 153 746 79 700 q 325 792 226 792 q 515 725 451 792 q 578 551 578 658 l 578 147 q 599 8 578 82 l 408 -8 l 386 88 q 313 13 361 43 q 213 -18 264 -18 m 303 121 q 342 132 326 121 q 382 168 358 143 l 382 385 q 271 347 313 385 q 229 231 229 310 q 248 149 229 178 q 303 121 267 121 m 339 869 q 190 924 240 869 q 129 1072 139 979 l 246 1072 q 254 1044 247 1068 q 281 1009 261 1021 q 336 997 301 997 q 388 1008 371 997 q 410 1030 406 1018 q 425 1072 415 1042 l 542 1072 q 482 925 532 981 q 339 869 432 869 m 272 1104 q 271 1119 271 1110 q 290 1181 271 1156 q 343 1233 310 1206 q 372 1260 363 1249 q 382 1281 382 1271 q 349 1313 382 1313 q 300 1260 307 1313 l 175 1263 q 199 1338 176 1301 q 263 1397 222 1374 q 353 1419 303 1419 q 474 1381 429 1419 q 519 1281 519 1343 q 501 1223 519 1244 q 447 1175 483 1201 q 406 1141 419 1156 q 393 1106 393 1126 l 393 1104 l 272 1104 z "},"ẵ":{"ha":654,"x_min":38,"x_max":599,"o":"m 213 -18 q 122 13 163 -18 q 60 98 82 44 q 38 218 38 151 q 141 431 38 369 q 382 501 244 493 q 372 613 382 576 q 325 649 363 649 q 276 624 293 649 q 256 560 260 599 l 65 593 q 153 746 79 700 q 325 792 226 792 q 515 725 451 792 q 578 551 578 658 l 578 147 q 599 8 578 82 l 408 -8 l 386 88 q 313 13 361 43 q 213 -18 264 -18 m 303 121 q 342 132 326 121 q 382 168 358 143 l 382 385 q 271 347 313 385 q 229 231 229 310 q 248 149 229 178 q 303 121 267 121 m 344 869 q 195 924 246 869 q 135 1072 144 979 l 251 1072 q 260 1044 253 1068 q 287 1009 267 1021 q 342 997 307 997 q 394 1008 376 997 q 416 1030 411 1018 q 431 1072 421 1042 l 547 1072 q 488 925 538 981 q 344 869 438 869 m 444 1108 q 404 1117 422 1108 q 357 1142 386 1125 q 311 1168 331 1160 q 268 1176 292 1176 q 150 1108 211 1176 l 140 1233 q 207 1293 175 1271 q 276 1315 239 1315 q 313 1309 296 1315 q 360 1289 331 1303 q 405 1268 386 1275 q 444 1261 424 1261 q 502 1278 475 1261 q 542 1315 529 1294 l 572 1206 q 554 1176 572 1201 q 508 1130 536 1151 q 444 1108 479 1108 z "},"â":{"ha":654,"x_min":38,"x_max":599,"o":"m 213 -18 q 122 13 163 -18 q 60 98 82 44 q 38 218 38 151 q 141 431 38 369 q 382 501 244 493 q 372 613 382 576 q 325 649 363 649 q 276 624 293 649 q 256 560 260 599 l 65 593 q 153 746 79 700 q 325 792 226 792 q 515 725 451 792 q 578 551 578 658 l 578 147 q 599 8 578 82 l 408 -8 l 386 88 q 313 13 361 43 q 213 -18 264 -18 m 303 121 q 342 132 326 121 q 382 168 358 143 l 382 385 q 271 347 313 385 q 229 231 229 310 q 248 149 229 178 q 303 121 267 121 m 111 846 l 274 1172 l 410 1172 l 567 846 l 397 846 l 332 1043 l 253 846 l 111 846 z "},"ấ":{"ha":654,"x_min":38,"x_max":774,"o":"m 213 -18 q 122 13 163 -18 q 60 98 82 44 q 38 218 38 151 q 141 431 38 369 q 382 501 244 493 q 372 613 382 576 q 325 649 363 649 q 276 624 293 649 q 256 560 260 599 l 65 593 q 153 746 79 700 q 325 792 226 792 q 515 725 451 792 q 578 551 578 658 l 578 147 q 599 8 578 82 l 408 -8 l 386 88 q 313 13 361 43 q 213 -18 264 -18 m 303 121 q 342 132 326 121 q 382 168 358 143 l 382 385 q 271 347 313 385 q 229 231 229 310 q 248 149 229 178 q 303 121 267 121 m 638 1261 l 774 1147 l 578 983 l 513 1035 l 638 1261 m 274 1117 l 410 1117 l 567 874 l 397 874 l 332 1008 l 253 874 l 111 874 l 274 1117 z "},"ậ":{"ha":654,"x_min":38,"x_max":599,"o":"m 213 -18 q 122 13 163 -18 q 60 98 82 44 q 38 218 38 151 q 141 431 38 369 q 382 501 244 493 q 372 613 382 576 q 325 649 363 649 q 276 624 293 649 q 256 560 260 599 l 65 593 q 153 746 79 700 q 325 792 226 792 q 515 725 451 792 q 578 551 578 658 l 578 147 q 599 8 578 82 l 408 -8 l 386 88 q 313 13 361 43 q 213 -18 264 -18 m 303 121 q 342 132 326 121 q 382 168 358 143 l 382 385 q 271 347 313 385 q 229 231 229 310 q 248 149 229 178 q 303 121 267 121 m 111 846 l 274 1172 l 410 1172 l 567 846 l 397 846 l 332 1043 l 253 846 l 111 846 m 228 -306 l 228 -110 l 424 -110 l 424 -306 l 228 -306 z "},"ầ":{"ha":654,"x_min":-85,"x_max":599,"o":"m 213 -18 q 122 13 163 -18 q 60 98 82 44 q 38 218 38 151 q 141 431 38 369 q 382 501 244 493 q 372 613 382 576 q 325 649 363 649 q 276 624 293 649 q 256 560 260 599 l 65 593 q 153 746 79 700 q 325 792 226 792 q 515 725 451 792 q 578 551 578 658 l 578 147 q 599 8 578 82 l 408 -8 l 386 88 q 313 13 361 43 q 213 -18 264 -18 m 303 121 q 342 132 326 121 q 382 168 358 143 l 382 385 q 271 347 313 385 q 229 231 229 310 q 248 149 229 178 q 303 121 267 121 m 51 1233 l 176 1007 l 111 956 l -85 1119 l 51 1233 m 576 846 l 407 846 l 342 981 l 263 846 l 121 846 l 283 1089 l 419 1089 l 576 846 z "},"ẩ":{"ha":654,"x_min":38,"x_max":824,"o":"m 213 -18 q 122 13 163 -18 q 60 98 82 44 q 38 218 38 151 q 141 431 38 369 q 382 501 244 493 q 372 613 382 576 q 325 649 363 649 q 276 624 293 649 q 256 560 260 599 l 65 593 q 153 746 79 700 q 325 792 226 792 q 515 725 451 792 q 578 551 578 658 l 578 147 q 599 8 578 82 l 408 -8 l 386 88 q 313 13 361 43 q 213 -18 264 -18 m 303 121 q 342 132 326 121 q 382 168 358 143 l 382 385 q 271 347 313 385 q 229 231 229 310 q 248 149 229 178 q 303 121 267 121 m 657 1263 q 778 1224 733 1263 q 824 1124 824 1186 q 806 1066 824 1088 q 751 1018 788 1044 q 710 984 724 999 q 697 949 697 969 l 697 947 l 576 947 q 575 963 575 953 q 594 1024 575 999 q 647 1076 614 1049 q 676 1103 667 1092 q 686 1124 686 1114 q 653 1156 686 1156 q 604 1103 611 1156 l 479 1106 q 503 1181 481 1144 q 567 1240 526 1217 q 657 1263 607 1263 m 278 1089 l 414 1089 l 571 846 l 401 846 l 336 981 l 257 846 l 115 846 l 278 1089 z "},"ẫ":{"ha":654,"x_min":38,"x_max":599,"o":"m 213 -18 q 122 13 163 -18 q 60 98 82 44 q 38 218 38 151 q 141 431 38 369 q 382 501 244 493 q 372 613 382 576 q 325 649 363 649 q 276 624 293 649 q 256 560 260 599 l 65 593 q 153 746 79 700 q 325 792 226 792 q 515 725 451 792 q 578 551 578 658 l 578 147 q 599 8 578 82 l 408 -8 l 386 88 q 313 13 361 43 q 213 -18 264 -18 m 303 121 q 342 132 326 121 q 382 168 358 143 l 382 385 q 271 347 313 385 q 229 231 229 310 q 248 149 229 178 q 303 121 267 121 m 275 1196 q 157 1128 218 1196 l 147 1253 q 214 1313 182 1290 q 283 1335 246 1335 q 320 1328 303 1335 q 367 1308 338 1322 q 412 1288 393 1294 q 451 1281 431 1281 q 509 1297 482 1281 q 549 1335 536 1314 l 579 1225 q 561 1196 579 1221 q 515 1149 543 1171 q 451 1128 486 1128 q 411 1136 429 1128 q 364 1161 393 1144 q 318 1188 338 1179 q 275 1196 299 1196 m 283 1089 l 419 1089 l 576 846 l 407 846 l 342 981 l 263 846 l 121 846 l 283 1089 z "},"ȁ":{"ha":654,"x_min":-36,"x_max":599,"o":"m 213 -18 q 122 13 163 -18 q 60 98 82 44 q 38 218 38 151 q 141 431 38 369 q 382 501 244 493 q 372 613 382 576 q 325 649 363 649 q 276 624 293 649 q 256 560 260 599 l 65 593 q 153 746 79 700 q 325 792 226 792 q 515 725 451 792 q 578 551 578 658 l 578 147 q 599 8 578 82 l 408 -8 l 386 88 q 313 13 361 43 q 213 -18 264 -18 m 303 121 q 342 132 326 121 q 382 168 358 143 l 382 385 q 271 347 313 385 q 229 231 229 310 q 248 149 229 178 q 303 121 267 121 m 481 847 l 282 1158 l 465 1253 l 574 896 l 481 847 m 225 846 l -36 1107 l 122 1239 l 306 913 l 225 846 z "},"ä":{"ha":654,"x_min":38,"x_max":599,"o":"m 213 -18 q 122 13 163 -18 q 60 98 82 44 q 38 218 38 151 q 141 431 38 369 q 382 501 244 493 q 372 613 382 576 q 325 649 363 649 q 276 624 293 649 q 256 560 260 599 l 65 593 q 153 746 79 700 q 325 792 226 792 q 515 725 451 792 q 578 551 578 658 l 578 147 q 599 8 578 82 l 408 -8 l 386 88 q 313 13 361 43 q 213 -18 264 -18 m 303 121 q 342 132 326 121 q 382 168 358 143 l 382 385 q 271 347 313 385 q 229 231 229 310 q 248 149 229 178 q 303 121 267 121 m 78 874 l 78 1069 l 274 1069 l 274 874 l 78 874 m 403 874 l 403 1069 l 599 1069 l 599 874 l 403 874 z "},"ạ":{"ha":654,"x_min":38,"x_max":599,"o":"m 213 -18 q 122 13 163 -18 q 60 98 82 44 q 38 218 38 151 q 141 431 38 369 q 382 501 244 493 q 372 613 382 576 q 325 649 363 649 q 276 624 293 649 q 256 560 260 599 l 65 593 q 153 746 79 700 q 325 792 226 792 q 515 725 451 792 q 578 551 578 658 l 578 147 q 599 8 578 82 l 408 -8 l 386 88 q 313 13 361 43 q 213 -18 264 -18 m 303 121 q 342 132 326 121 q 382 168 358 143 l 382 385 q 271 347 313 385 q 229 231 229 310 q 248 149 229 178 q 303 121 267 121 m 228 -306 l 228 -110 l 424 -110 l 424 -306 l 228 -306 z "},"à":{"ha":654,"x_min":38,"x_max":599,"o":"m 213 -18 q 122 13 163 -18 q 60 98 82 44 q 38 218 38 151 q 141 431 38 369 q 382 501 244 493 q 372 613 382 576 q 325 649 363 649 q 276 624 293 649 q 256 560 260 599 l 65 593 q 153 746 79 700 q 325 792 226 792 q 515 725 451 792 q 578 551 578 658 l 578 147 q 599 8 578 82 l 408 -8 l 386 88 q 313 13 361 43 q 213 -18 264 -18 m 303 121 q 342 132 326 121 q 382 168 358 143 l 382 385 q 271 347 313 385 q 229 231 229 310 q 248 149 229 178 q 303 121 267 121 m 363 840 l 111 1051 l 254 1183 l 435 910 l 363 840 z "},"ả":{"ha":654,"x_min":38,"x_max":599,"o":"m 213 -18 q 122 13 163 -18 q 60 98 82 44 q 38 218 38 151 q 141 431 38 369 q 382 501 244 493 q 372 613 382 576 q 325 649 363 649 q 276 624 293 649 q 256 560 260 599 l 65 593 q 153 746 79 700 q 325 792 226 792 q 515 725 451 792 q 578 551 578 658 l 578 147 q 599 8 578 82 l 408 -8 l 386 88 q 313 13 361 43 q 213 -18 264 -18 m 303 121 q 342 132 326 121 q 382 168 358 143 l 382 385 q 271 347 313 385 q 229 231 229 310 q 248 149 229 178 q 303 121 267 121 m 264 838 q 263 853 263 843 q 282 914 263 889 q 335 967 301 939 q 364 993 354 982 q 374 1014 374 1004 q 340 1046 374 1046 q 292 993 299 1046 l 167 996 q 191 1071 168 1035 q 254 1130 214 1107 q 344 1153 294 1153 q 466 1115 421 1153 q 511 1014 511 1076 q 493 956 511 978 q 439 908 475 935 q 398 874 411 889 q 385 839 385 860 l 385 838 l 264 838 z "},"ȃ":{"ha":654,"x_min":38,"x_max":631,"o":"m 213 -18 q 122 13 163 -18 q 60 98 82 44 q 38 218 38 151 q 141 431 38 369 q 382 501 244 493 q 372 613 382 576 q 325 649 363 649 q 276 624 293 649 q 256 560 260 599 l 65 593 q 153 746 79 700 q 325 792 226 792 q 515 725 451 792 q 578 551 578 658 l 578 147 q 599 8 578 82 l 408 -8 l 386 88 q 313 13 361 43 q 213 -18 264 -18 m 303 121 q 342 132 326 121 q 382 168 358 143 l 382 385 q 271 347 313 385 q 229 231 229 310 q 248 149 229 178 q 303 121 267 121 m 46 846 q 74 993 46 918 q 167 1120 101 1068 q 339 1172 233 1172 q 510 1120 444 1172 q 603 993 575 1068 q 631 846 631 918 l 468 846 q 462 926 468 893 q 427 985 456 960 q 339 1010 399 1010 q 250 985 279 1010 q 215 926 221 960 q 208 846 208 893 l 46 846 z "},"ā":{"ha":654,"x_min":38,"x_max":599,"o":"m 213 -18 q 122 13 163 -18 q 60 98 82 44 q 38 218 38 151 q 141 431 38 369 q 382 501 244 493 q 372 613 382 576 q 325 649 363 649 q 276 624 293 649 q 256 560 260 599 l 65 593 q 153 746 79 700 q 325 792 226 792 q 515 725 451 792 q 578 551 578 658 l 578 147 q 599 8 578 82 l 408 -8 l 386 88 q 313 13 361 43 q 213 -18 264 -18 m 303 121 q 342 132 326 121 q 382 168 358 143 l 382 385 q 271 347 313 385 q 229 231 229 310 q 248 149 229 178 q 303 121 267 121 m 143 846 l 143 976 l 533 976 l 533 846 l 143 846 z "},"ą":{"ha":654,"x_min":38,"x_max":703,"o":"m 703 -137 q 624 -236 676 -199 q 511 -274 571 -274 q 438 -253 472 -274 q 381 -199 403 -232 q 360 -129 360 -165 q 406 3 360 -50 l 386 88 q 313 13 361 43 q 213 -18 264 -18 q 122 13 163 -18 q 60 98 82 44 q 38 218 38 151 q 141 431 38 369 q 382 501 244 493 q 372 613 382 576 q 325 649 363 649 q 276 624 293 649 q 256 560 260 599 l 65 593 q 153 746 79 700 q 325 792 226 792 q 515 725 451 792 q 578 551 578 658 l 578 147 q 599 8 578 82 l 546 4 q 506 -41 519 -21 q 492 -85 492 -61 q 507 -128 492 -111 q 546 -144 522 -144 q 628 -85 596 -144 l 703 -137 m 382 385 q 271 347 313 385 q 229 231 229 310 q 248 149 229 178 q 303 121 267 121 q 342 132 326 121 q 382 168 358 143 l 382 385 z "},"å":{"ha":654,"x_min":38,"x_max":599,"o":"m 578 147 q 599 8 578 82 l 408 -8 l 386 88 q 313 13 361 43 q 213 -18 264 -18 q 122 13 163 -18 q 60 98 82 44 q 38 218 38 151 q 141 431 38 369 q 382 501 244 493 q 372 613 382 576 q 325 649 363 649 q 276 624 293 649 q 256 560 260 599 l 65 593 q 164 753 79 703 q 126 864 126 799 q 189 1000 126 951 q 339 1049 251 1049 q 488 1001 425 1049 q 550 864 550 953 q 499 739 550 788 q 578 551 578 674 l 578 147 m 254 864 q 270 817 254 836 q 311 792 286 799 l 325 792 q 360 790 349 792 q 404 816 386 797 q 422 864 422 835 q 397 919 422 899 q 338 939 371 939 q 279 919 304 939 q 254 864 254 899 m 382 385 q 271 347 313 385 q 229 231 229 310 q 248 149 229 178 q 303 121 267 121 q 342 132 326 121 q 382 168 358 143 l 382 385 z "},"ǻ":{"ha":654,"x_min":38,"x_max":613,"o":"m 578 147 q 599 8 578 82 l 408 -8 l 386 88 q 313 13 361 43 q 213 -18 264 -18 q 122 13 163 -18 q 60 98 82 44 q 38 218 38 151 q 141 431 38 369 q 382 501 244 493 q 372 613 382 576 q 325 649 363 649 q 276 624 293 649 q 256 560 260 599 l 65 593 q 164 753 79 703 q 126 864 126 799 q 189 1000 126 951 q 339 1049 251 1049 q 488 1001 425 1049 q 550 864 550 953 q 499 739 550 788 q 578 551 578 674 l 578 147 m 254 864 q 270 817 254 836 q 311 792 286 799 l 325 792 q 360 790 349 792 q 404 816 386 797 q 422 864 422 835 q 397 919 422 899 q 338 939 371 939 q 279 919 304 939 q 254 864 254 899 m 382 385 q 271 347 313 385 q 229 231 229 310 q 248 149 229 178 q 303 121 267 121 q 342 132 326 121 q 382 168 358 143 l 382 385 m 361 1107 l 289 1176 l 469 1450 l 613 1318 l 361 1107 z "},"ã":{"ha":654,"x_min":38,"x_max":599,"o":"m 213 -18 q 122 13 163 -18 q 60 98 82 44 q 38 218 38 151 q 141 431 38 369 q 382 501 244 493 q 372 613 382 576 q 325 649 363 649 q 276 624 293 649 q 256 560 260 599 l 65 593 q 153 746 79 700 q 325 792 226 792 q 515 725 451 792 q 578 551 578 658 l 578 147 q 599 8 578 82 l 408 -8 l 386 88 q 313 13 361 43 q 213 -18 264 -18 m 303 121 q 342 132 326 121 q 382 168 358 143 l 382 385 q 271 347 313 385 q 229 231 229 310 q 248 149 229 178 q 303 121 267 121 m 428 835 q 388 843 406 835 q 340 868 369 851 q 294 894 314 886 q 251 903 275 903 q 133 835 194 903 l 124 960 q 190 1019 158 997 q 260 1042 222 1042 q 297 1035 279 1042 q 343 1015 314 1029 q 388 994 369 1001 q 428 988 407 988 q 485 1004 458 988 q 525 1042 513 1021 l 556 932 q 538 903 556 928 q 491 856 519 878 q 428 835 463 835 z "},"æ":{"ha":988,"x_min":36,"x_max":949,"o":"m 258 -18 q 95 49 154 -18 q 36 221 36 115 q 140 431 36 369 q 381 501 244 493 q 370 615 381 581 q 324 649 360 649 q 254 560 265 649 l 64 593 q 150 745 76 699 q 317 792 224 792 q 418 769 378 792 q 490 700 458 747 q 575 769 531 746 q 679 792 619 792 q 879 689 810 792 q 949 399 949 586 l 949 364 l 576 364 q 599 199 576 274 q 669 125 622 125 q 751 187 725 125 q 779 253 778 249 l 926 197 q 835 40 900 99 q 674 -18 769 -18 q 565 10 610 -18 q 483 97 521 39 q 388 10 453 38 q 258 -18 324 -18 m 763 476 q 740 607 763 557 q 676 657 718 657 q 606 607 633 657 q 576 476 579 557 l 763 476 m 297 121 q 361 167 342 121 q 381 260 381 214 l 381 385 q 269 347 311 385 q 228 232 228 310 q 247 151 228 181 q 297 121 265 121 z "},"ǽ":{"ha":988,"x_min":36,"x_max":949,"o":"m 513 869 l 440 939 l 621 1213 l 764 1081 l 513 869 m 258 -18 q 95 49 154 -18 q 36 221 36 115 q 140 431 36 369 q 381 501 244 493 q 370 615 381 581 q 324 649 360 649 q 254 560 265 649 l 64 593 q 150 745 76 699 q 317 792 224 792 q 418 769 378 792 q 490 700 458 747 q 575 769 531 746 q 679 792 619 792 q 879 689 810 792 q 949 399 949 586 l 949 364 l 576 364 q 599 199 576 274 q 669 125 622 125 q 751 187 725 125 q 779 253 778 249 l 926 197 q 835 40 900 99 q 674 -18 769 -18 q 565 10 610 -18 q 483 97 521 39 q 388 10 453 38 q 258 -18 324 -18 m 763 476 q 740 607 763 557 q 676 657 718 657 q 606 607 633 657 q 576 476 579 557 l 763 476 m 297 121 q 361 167 342 121 q 381 260 381 214 l 381 385 q 269 347 311 385 q 228 232 228 310 q 247 151 228 181 q 297 121 265 121 z "},"ǣ":{"ha":988,"x_min":36,"x_max":949,"o":"m 258 -18 q 95 49 154 -18 q 36 221 36 115 q 140 431 36 369 q 381 501 244 493 q 370 615 381 581 q 324 649 360 649 q 254 560 265 649 l 64 593 q 150 745 76 699 q 317 792 224 792 q 418 769 378 792 q 490 700 458 747 q 575 769 531 746 q 679 792 619 792 q 879 689 810 792 q 949 399 949 586 l 949 364 l 576 364 q 599 199 576 274 q 669 125 622 125 q 751 187 725 125 q 779 253 778 249 l 926 197 q 835 40 900 99 q 674 -18 769 -18 q 565 10 610 -18 q 483 97 521 39 q 388 10 453 38 q 258 -18 324 -18 m 763 476 q 740 607 763 557 q 676 657 718 657 q 606 607 633 657 q 576 476 579 557 l 763 476 m 297 121 q 361 167 342 121 q 381 260 381 214 l 381 385 q 269 347 311 385 q 228 232 228 310 q 247 151 228 181 q 297 121 265 121 m 304 874 l 304 1004 l 694 1004 l 694 874 l 304 874 z "},"b":{"ha":719,"x_min":85,"x_max":671,"o":"m 447 -18 q 332 13 369 -18 q 279 97 294 44 l 232 -8 l 85 8 l 85 1017 l 279 1042 l 279 682 q 367 762 314 732 q 478 792 419 792 q 619 697 568 792 q 671 390 671 601 q 447 -18 671 -18 m 375 121 q 458 189 439 121 q 476 390 476 257 q 469 533 476 483 q 442 603 461 582 q 388 625 424 625 q 329 607 363 625 q 279 572 296 589 l 279 325 q 306 167 279 214 q 375 121 333 121 z "},"c":{"ha":618,"x_min":47,"x_max":581,"o":"m 326 -18 q 174 38 238 -18 q 79 185 111 93 q 47 383 47 276 q 78 582 47 489 q 174 733 110 675 q 331 792 238 792 q 458 756 401 792 q 546 657 514 721 q 581 511 578 593 l 396 503 q 391 547 396 508 q 370 611 386 586 q 329 636 354 636 q 258 560 274 636 q 243 390 243 485 q 259 222 243 297 q 335 146 275 146 q 413 293 410 146 l 576 275 q 504 56 558 131 q 326 -18 450 -18 z "},"ć":{"ha":618,"x_min":47,"x_max":582,"o":"m 331 839 l 258 908 l 439 1182 l 582 1050 l 331 839 m 326 -18 q 174 38 238 -18 q 79 185 111 93 q 47 383 47 276 q 78 582 47 489 q 174 733 110 675 q 331 792 238 792 q 458 756 401 792 q 546 657 514 721 q 581 511 578 593 l 396 503 q 391 547 396 508 q 370 611 386 586 q 329 636 354 636 q 258 560 274 636 q 243 390 243 485 q 259 222 243 297 q 335 146 275 146 q 413 293 410 146 l 576 275 q 504 56 558 131 q 326 -18 450 -18 z "},"č":{"ha":618,"x_min":47,"x_max":581,"o":"m 326 -18 q 174 38 238 -18 q 79 185 111 93 q 47 383 47 276 q 78 582 47 489 q 174 733 110 675 q 331 792 238 792 q 458 756 401 792 q 546 657 514 721 q 581 511 578 593 l 396 503 q 391 547 396 508 q 370 611 386 586 q 329 636 354 636 q 258 560 274 636 q 243 390 243 485 q 259 222 243 297 q 335 146 275 146 q 413 293 410 146 l 576 275 q 504 56 558 131 q 326 -18 450 -18 m 244 846 l 82 1172 l 224 1172 l 303 975 l 368 1172 l 538 1172 l 381 846 l 244 846 z "},"ç":{"ha":618,"x_min":47,"x_max":581,"o":"m 576 275 q 510 64 558 138 q 351 -17 461 -10 l 343 -51 q 472 -134 442 -79 q 503 -229 503 -189 q 461 -341 503 -306 q 356 -376 419 -376 q 270 -365 313 -376 q 200 -333 228 -353 l 200 -222 q 297 -246 253 -246 q 347 -232 331 -246 q 363 -196 363 -218 q 329 -140 363 -165 q 233 -115 296 -115 l 253 -7 q 101 134 154 25 q 47 383 47 243 q 78 582 47 489 q 174 733 110 675 q 331 792 238 792 q 458 756 401 792 q 546 657 514 721 q 581 511 578 593 l 396 503 q 391 547 396 508 q 370 611 386 586 q 329 636 354 636 q 258 560 274 636 q 243 390 243 485 q 259 222 243 297 q 335 146 275 146 q 413 293 410 146 l 576 275 z "},"ĉ":{"ha":618,"x_min":47,"x_max":581,"o":"m 326 -18 q 174 38 238 -18 q 79 185 111 93 q 47 383 47 276 q 78 582 47 489 q 174 733 110 675 q 331 792 238 792 q 458 756 401 792 q 546 657 514 721 q 581 511 578 593 l 396 503 q 391 547 396 508 q 370 611 386 586 q 329 636 354 636 q 258 560 274 636 q 243 390 243 485 q 259 222 243 297 q 335 146 275 146 q 413 293 410 146 l 576 275 q 504 56 558 131 q 326 -18 450 -18 m 82 846 l 244 1172 l 381 1172 l 538 846 l 368 846 l 303 1043 l 224 846 l 82 846 z "},"ċ":{"ha":618,"x_min":47,"x_max":581,"o":"m 326 -18 q 174 38 238 -18 q 79 185 111 93 q 47 383 47 276 q 78 582 47 489 q 174 733 110 675 q 331 792 238 792 q 458 756 401 792 q 546 657 514 721 q 581 511 578 593 l 396 503 q 391 547 396 508 q 370 611 386 586 q 329 636 354 636 q 258 560 274 636 q 243 390 243 485 q 259 222 243 297 q 335 146 275 146 q 413 293 410 146 l 576 275 q 504 56 558 131 q 326 -18 450 -18 m 211 846 l 211 1042 l 407 1042 l 407 846 l 211 846 z "},"d":{"ha":719,"x_min":50,"x_max":638,"o":"m 275 -18 q 50 390 50 -18 q 106 697 50 603 q 279 792 161 792 q 375 759 329 792 q 442 678 421 726 l 442 1017 l 638 1042 l 638 8 l 490 -8 l 442 97 q 390 14 428 46 q 275 -18 353 -18 m 347 121 q 415 167 389 121 q 442 325 442 214 l 442 586 q 347 649 401 649 q 280 616 301 649 q 252 531 258 583 q 246 390 246 478 q 252 246 246 301 q 281 156 258 190 q 347 121 303 121 z "},"ð":{"ha":682,"x_min":50,"x_max":642,"o":"m 533 893 q 612 698 582 804 q 642 503 642 592 q 617 209 642 321 q 526 40 593 97 q 336 -18 460 -18 q 120 79 190 -18 q 50 390 50 176 q 106 697 50 603 q 279 792 161 792 q 340 776 307 792 q 401 733 372 760 q 346 851 378 797 l 197 819 l 168 914 l 283 939 q 207 1017 251 978 l 415 1042 q 475 982 443 1024 l 597 1008 l 628 914 l 533 893 m 328 121 q 397 142 374 121 q 434 238 421 163 q 447 476 447 314 q 438 592 447 528 q 347 649 400 649 q 280 616 301 649 q 252 531 258 583 q 246 390 246 478 q 265 195 246 269 q 328 121 285 121 z "},"ď":{"ha":892,"x_min":53,"x_max":931,"o":"m 278 -18 q 53 390 53 -18 q 74 624 53 536 q 143 751 96 711 q 268 792 190 792 q 331 776 299 792 q 390 735 363 760 q 444 678 418 711 l 444 1017 l 640 1042 l 640 8 l 492 -8 l 444 97 q 415 39 436 67 q 278 -18 369 -18 m 768 782 q 825 814 810 782 q 833 846 831 828 l 735 839 l 735 1042 l 931 1042 l 931 846 q 908 738 931 779 q 849 675 885 696 q 768 651 813 653 l 768 782 m 350 121 q 418 167 392 121 q 444 325 444 214 l 444 586 q 415 617 425 608 q 350 649 381 649 q 283 616 304 649 q 255 531 261 583 q 249 390 249 478 q 255 246 249 301 q 283 156 261 190 q 350 121 306 121 z "},"đ":{"ha":719,"x_min":50,"x_max":719,"o":"m 719 826 l 638 826 l 638 8 l 490 -8 l 442 97 q 390 14 428 46 q 275 -18 353 -18 q 50 390 50 -18 q 106 697 50 603 q 279 792 161 792 q 375 759 329 792 q 442 678 421 726 l 442 826 l 288 826 l 288 961 l 442 961 l 442 1017 l 638 1042 l 638 961 l 719 961 l 719 826 m 442 586 q 347 649 401 649 q 280 616 301 649 q 252 531 258 583 q 246 390 246 478 q 252 246 246 301 q 281 156 258 190 q 347 121 303 121 q 415 167 389 121 q 442 325 442 214 l 442 586 z "},"ǳ":{"ha":1310,"x_min":50,"x_max":1281,"o":"m 275 -18 q 50 390 50 -18 q 106 697 50 603 q 279 792 161 792 q 375 759 329 792 q 442 678 421 726 l 442 1017 l 638 1042 l 638 8 l 490 -8 l 442 97 q 390 14 428 46 q 275 -18 353 -18 m 347 121 q 415 167 389 121 q 442 325 442 214 l 442 586 q 347 649 401 649 q 280 616 301 649 q 252 531 258 583 q 246 390 246 478 q 252 246 246 301 q 281 156 258 190 q 347 121 303 121 m 781 0 l 781 122 l 1043 629 l 792 629 l 808 782 l 1260 782 l 1260 665 l 1001 154 l 1281 154 l 1264 0 l 781 0 z "},"ǆ":{"ha":1310,"x_min":50,"x_max":1281,"o":"m 275 -18 q 50 390 50 -18 q 106 697 50 603 q 279 792 161 792 q 375 759 329 792 q 442 678 421 726 l 442 1017 l 638 1042 l 638 8 l 490 -8 l 442 97 q 390 14 428 46 q 275 -18 353 -18 m 347 121 q 415 167 389 121 q 442 325 442 214 l 442 586 q 347 649 401 649 q 280 616 301 649 q 252 531 258 583 q 246 390 246 478 q 252 246 246 301 q 281 156 258 190 q 347 121 303 121 m 781 0 l 781 122 l 1043 629 l 792 629 l 808 782 l 1260 782 l 1260 665 l 1001 154 l 1281 154 l 1264 0 l 781 0 m 982 846 l 819 1172 l 961 1172 l 1040 975 l 1106 1172 l 1275 1172 l 1118 846 l 982 846 z "},"e":{"ha":654,"x_min":47,"x_max":621,"o":"m 333 -18 q 121 92 194 -18 q 47 386 47 203 q 122 682 47 572 q 340 792 197 792 q 549 682 476 792 q 621 386 621 572 q 617 370 621 375 q 613 364 613 365 l 242 364 q 265 199 242 274 q 338 125 289 125 q 418 188 392 125 q 446 253 444 250 l 593 197 q 500 40 564 97 q 333 -18 436 -18 m 429 476 q 407 608 429 560 q 338 657 385 657 q 292 633 314 657 q 256 568 269 610 q 242 476 242 526 l 429 476 z "},"é":{"ha":654,"x_min":47,"x_max":621,"o":"m 333 -18 q 121 92 194 -18 q 47 386 47 203 q 122 682 47 572 q 340 792 197 792 q 549 682 476 792 q 621 386 621 572 q 617 370 621 375 q 613 364 613 365 l 242 364 q 265 199 242 274 q 338 125 289 125 q 418 188 392 125 q 446 253 444 250 l 593 197 q 500 40 564 97 q 333 -18 436 -18 m 429 476 q 407 608 429 560 q 338 657 385 657 q 292 633 314 657 q 256 568 269 610 q 242 476 242 526 l 429 476 m 350 840 l 278 910 l 458 1183 l 601 1051 l 350 840 z "},"ĕ":{"ha":654,"x_min":47,"x_max":621,"o":"m 382 892 q 233 947 283 892 q 172 1094 182 1001 l 289 1094 q 297 1067 290 1090 q 324 1031 304 1043 q 379 1019 344 1019 q 431 1030 414 1019 q 453 1052 449 1040 q 468 1094 458 1064 l 585 1094 q 525 947 575 1003 q 382 892 475 892 m 333 -18 q 121 92 194 -18 q 47 386 47 203 q 122 682 47 572 q 340 792 197 792 q 549 682 476 792 q 621 386 621 572 q 617 370 621 375 q 613 364 613 365 l 242 364 q 265 199 242 274 q 338 125 289 125 q 418 188 392 125 q 446 253 444 250 l 593 197 q 500 40 564 97 q 333 -18 436 -18 m 429 476 q 407 608 429 560 q 338 657 385 657 q 292 633 314 657 q 256 568 269 610 q 242 476 242 526 l 429 476 z "},"ě":{"ha":654,"x_min":47,"x_max":621,"o":"m 290 874 l 128 1200 l 269 1200 l 349 1003 l 414 1200 l 583 1200 l 426 874 l 290 874 m 333 -18 q 121 92 194 -18 q 47 386 47 203 q 122 682 47 572 q 340 792 197 792 q 549 682 476 792 q 621 386 621 572 q 617 370 621 375 q 613 364 613 365 l 242 364 q 265 199 242 274 q 338 125 289 125 q 418 188 392 125 q 446 253 444 250 l 593 197 q 500 40 564 97 q 333 -18 436 -18 m 429 476 q 407 608 429 560 q 338 657 385 657 q 292 633 314 657 q 256 568 269 610 q 242 476 242 526 l 429 476 z "},"ê":{"ha":654,"x_min":47,"x_max":621,"o":"m 333 -18 q 121 92 194 -18 q 47 386 47 203 q 122 682 47 572 q 340 792 197 792 q 549 682 476 792 q 621 386 621 572 q 617 370 621 375 q 613 364 613 365 l 242 364 q 265 199 242 274 q 338 125 289 125 q 418 188 392 125 q 446 253 444 250 l 593 197 q 500 40 564 97 q 333 -18 436 -18 m 429 476 q 407 608 429 560 q 338 657 385 657 q 292 633 314 657 q 256 568 269 610 q 242 476 242 526 l 429 476 m 100 846 l 263 1172 l 399 1172 l 556 846 l 386 846 l 321 1043 l 242 846 l 100 846 z "},"ế":{"ha":654,"x_min":47,"x_max":763,"o":"m 333 -18 q 121 92 194 -18 q 47 386 47 203 q 122 682 47 572 q 340 792 197 792 q 549 682 476 792 q 621 386 621 572 q 617 370 621 375 q 613 364 613 365 l 242 364 q 265 199 242 274 q 338 125 289 125 q 418 188 392 125 q 446 253 444 250 l 593 197 q 500 40 564 97 q 333 -18 436 -18 m 429 476 q 407 608 429 560 q 338 657 385 657 q 292 633 314 657 q 256 568 269 610 q 242 476 242 526 l 429 476 m 626 1261 l 763 1147 l 567 983 l 501 1035 l 626 1261 m 263 1117 l 399 1117 l 556 874 l 386 874 l 321 1008 l 242 874 l 100 874 l 263 1117 z "},"ệ":{"ha":654,"x_min":47,"x_max":621,"o":"m 333 -18 q 121 92 194 -18 q 47 386 47 203 q 122 682 47 572 q 340 792 197 792 q 549 682 476 792 q 621 386 621 572 q 617 370 621 375 q 613 364 613 365 l 242 364 q 265 199 242 274 q 338 125 289 125 q 418 188 392 125 q 446 253 444 250 l 593 197 q 500 40 564 97 q 333 -18 436 -18 m 429 476 q 407 608 429 560 q 338 657 385 657 q 292 633 314 657 q 256 568 269 610 q 242 476 242 526 l 429 476 m 100 846 l 263 1172 l 399 1172 l 556 846 l 386 846 l 321 1043 l 242 846 l 100 846 m 229 -306 l 229 -110 l 425 -110 l 425 -306 l 229 -306 z "},"ề":{"ha":654,"x_min":-96,"x_max":621,"o":"m 333 -18 q 121 92 194 -18 q 47 386 47 203 q 122 682 47 572 q 340 792 197 792 q 549 682 476 792 q 621 386 621 572 q 617 370 621 375 q 613 364 613 365 l 242 364 q 265 199 242 274 q 338 125 289 125 q 418 188 392 125 q 446 253 444 250 l 593 197 q 500 40 564 97 q 333 -18 436 -18 m 429 476 q 407 608 429 560 q 338 657 385 657 q 292 633 314 657 q 256 568 269 610 q 242 476 242 526 l 429 476 m 40 1233 l 165 1007 l 100 956 l -96 1119 l 40 1233 m 565 846 l 396 846 l 331 981 l 251 846 l 110 846 l 272 1089 l 408 1089 l 565 846 z "},"ể":{"ha":654,"x_min":47,"x_max":813,"o":"m 333 -18 q 121 92 194 -18 q 47 386 47 203 q 122 682 47 572 q 340 792 197 792 q 549 682 476 792 q 621 386 621 572 q 617 370 621 375 q 613 364 613 365 l 242 364 q 265 199 242 274 q 338 125 289 125 q 418 188 392 125 q 446 253 444 250 l 593 197 q 500 40 564 97 q 333 -18 436 -18 m 429 476 q 407 608 429 560 q 338 657 385 657 q 292 633 314 657 q 256 568 269 610 q 242 476 242 526 l 429 476 m 646 1263 q 767 1224 722 1263 q 813 1124 813 1186 q 794 1066 813 1088 q 740 1018 776 1044 q 699 984 713 999 q 686 949 686 969 l 686 947 l 565 947 q 564 963 564 953 q 583 1024 564 999 q 636 1076 603 1049 q 665 1103 656 1092 q 675 1124 675 1114 q 642 1156 675 1156 q 593 1103 600 1156 l 468 1106 q 492 1181 469 1144 q 556 1240 515 1217 q 646 1263 596 1263 m 267 1089 l 403 1089 l 560 846 l 390 846 l 325 981 l 246 846 l 104 846 l 267 1089 z "},"ễ":{"ha":654,"x_min":47,"x_max":621,"o":"m 333 -18 q 121 92 194 -18 q 47 386 47 203 q 122 682 47 572 q 340 792 197 792 q 549 682 476 792 q 621 386 621 572 q 617 370 621 375 q 613 364 613 365 l 242 364 q 265 199 242 274 q 338 125 289 125 q 418 188 392 125 q 446 253 444 250 l 593 197 q 500 40 564 97 q 333 -18 436 -18 m 429 476 q 407 608 429 560 q 338 657 385 657 q 292 633 314 657 q 256 568 269 610 q 242 476 242 526 l 429 476 m 264 1196 q 146 1128 207 1196 l 136 1253 q 203 1313 171 1290 q 272 1335 235 1335 q 309 1328 292 1335 q 356 1308 326 1322 q 401 1288 382 1294 q 440 1281 419 1281 q 498 1297 471 1281 q 538 1335 525 1314 l 568 1225 q 550 1196 568 1221 q 503 1149 532 1171 q 440 1128 475 1128 q 400 1136 418 1128 q 353 1161 382 1144 q 307 1188 326 1179 q 264 1196 288 1196 m 272 1089 l 408 1089 l 565 846 l 396 846 l 331 981 l 251 846 l 110 846 l 272 1089 z "},"ȅ":{"ha":654,"x_min":-75,"x_max":621,"o":"m 442 849 l 243 1160 l 426 1254 l 535 897 l 442 849 m 186 847 l -75 1108 l 83 1240 l 267 914 l 186 847 m 333 -18 q 121 92 194 -18 q 47 386 47 203 q 122 682 47 572 q 340 792 197 792 q 549 682 476 792 q 621 386 621 572 q 617 370 621 375 q 613 364 613 365 l 242 364 q 265 199 242 274 q 338 125 289 125 q 418 188 392 125 q 446 253 444 250 l 593 197 q 500 40 564 97 q 333 -18 436 -18 m 429 476 q 407 608 429 560 q 338 657 385 657 q 292 633 314 657 q 256 568 269 610 q 242 476 242 526 l 429 476 z "},"ë":{"ha":654,"x_min":47,"x_max":624,"o":"m 103 885 l 103 1081 l 299 1081 l 299 885 l 103 885 m 428 885 l 428 1081 l 624 1081 l 624 885 l 428 885 m 333 -18 q 121 92 194 -18 q 47 386 47 203 q 122 682 47 572 q 340 792 197 792 q 549 682 476 792 q 621 386 621 572 q 617 370 621 375 q 613 364 613 365 l 242 364 q 265 199 242 274 q 338 125 289 125 q 418 188 392 125 q 446 253 444 250 l 593 197 q 500 40 564 97 q 333 -18 436 -18 m 429 476 q 407 608 429 560 q 338 657 385 657 q 292 633 314 657 q 256 568 269 610 q 242 476 242 526 l 429 476 z "},"ė":{"ha":654,"x_min":47,"x_max":621,"o":"m 242 875 l 242 1071 l 438 1071 l 438 875 l 242 875 m 333 -18 q 121 92 194 -18 q 47 386 47 203 q 122 682 47 572 q 340 792 197 792 q 549 682 476 792 q 621 386 621 572 q 617 370 621 375 q 613 364 613 365 l 242 364 q 265 199 242 274 q 338 125 289 125 q 418 188 392 125 q 446 253 444 250 l 593 197 q 500 40 564 97 q 333 -18 436 -18 m 429 476 q 407 608 429 560 q 338 657 385 657 q 292 633 314 657 q 256 568 269 610 q 242 476 242 526 l 429 476 z "},"ẹ":{"ha":654,"x_min":47,"x_max":621,"o":"m 333 -18 q 121 92 194 -18 q 47 386 47 203 q 122 682 47 572 q 340 792 197 792 q 549 682 476 792 q 621 386 621 572 q 617 370 621 375 q 613 364 613 365 l 242 364 q 265 199 242 274 q 338 125 289 125 q 418 188 392 125 q 446 253 444 250 l 593 197 q 500 40 564 97 q 333 -18 436 -18 m 429 476 q 407 608 429 560 q 338 657 385 657 q 292 633 314 657 q 256 568 269 610 q 242 476 242 526 l 429 476 m 229 -306 l 229 -110 l 425 -110 l 425 -306 l 229 -306 z "},"è":{"ha":654,"x_min":47,"x_max":621,"o":"m 333 -18 q 121 92 194 -18 q 47 386 47 203 q 122 682 47 572 q 340 792 197 792 q 549 682 476 792 q 621 386 621 572 q 617 370 621 375 q 613 364 613 365 l 242 364 q 265 199 242 274 q 338 125 289 125 q 418 188 392 125 q 446 253 444 250 l 593 197 q 500 40 564 97 q 333 -18 436 -18 m 429 476 q 407 608 429 560 q 338 657 385 657 q 292 633 314 657 q 256 568 269 610 q 242 476 242 526 l 429 476 m 351 840 l 100 1051 l 243 1183 l 424 910 l 351 840 z "},"ẻ":{"ha":654,"x_min":47,"x_max":621,"o":"m 333 -18 q 121 92 194 -18 q 47 386 47 203 q 122 682 47 572 q 340 792 197 792 q 549 682 476 792 q 621 386 621 572 q 617 370 621 375 q 613 364 613 365 l 242 364 q 265 199 242 274 q 338 125 289 125 q 418 188 392 125 q 446 253 444 250 l 593 197 q 500 40 564 97 q 333 -18 436 -18 m 429 476 q 407 608 429 560 q 338 657 385 657 q 292 633 314 657 q 256 568 269 610 q 242 476 242 526 l 429 476 m 253 838 q 251 853 251 843 q 271 914 251 889 q 324 967 290 939 q 353 993 343 982 q 363 1014 363 1004 q 329 1046 363 1046 q 281 993 288 1046 l 156 996 q 180 1071 157 1035 q 243 1130 203 1107 q 333 1153 283 1153 q 455 1115 410 1153 q 500 1014 500 1076 q 482 956 500 978 q 428 908 464 935 q 387 874 400 889 q 374 839 374 860 l 374 838 l 253 838 z "},"ȇ":{"ha":654,"x_min":35,"x_max":621,"o":"m 333 -18 q 121 92 194 -18 q 47 386 47 203 q 122 682 47 572 q 340 792 197 792 q 549 682 476 792 q 621 386 621 572 q 617 370 621 375 q 613 364 613 365 l 242 364 q 265 199 242 274 q 338 125 289 125 q 418 188 392 125 q 446 253 444 250 l 593 197 q 500 40 564 97 q 333 -18 436 -18 m 429 476 q 407 608 429 560 q 338 657 385 657 q 292 633 314 657 q 256 568 269 610 q 242 476 242 526 l 429 476 m 35 846 q 63 993 35 918 q 156 1120 90 1068 q 328 1172 222 1172 q 499 1120 433 1172 q 592 993 564 1068 q 619 846 619 918 l 457 846 q 451 926 457 893 q 416 985 444 960 q 328 1010 388 1010 q 239 985 268 1010 q 203 926 210 960 q 197 846 197 893 l 35 846 z "},"ē":{"ha":654,"x_min":47,"x_max":621,"o":"m 333 -18 q 121 92 194 -18 q 47 386 47 203 q 122 682 47 572 q 340 792 197 792 q 549 682 476 792 q 621 386 621 572 q 617 370 621 375 q 613 364 613 365 l 242 364 q 265 199 242 274 q 338 125 289 125 q 418 188 392 125 q 446 253 444 250 l 593 197 q 500 40 564 97 q 333 -18 436 -18 m 429 476 q 407 608 429 560 q 338 657 385 657 q 292 633 314 657 q 256 568 269 610 q 242 476 242 526 l 429 476 m 132 846 l 132 976 l 522 976 l 522 846 l 132 846 z "},"ę":{"ha":654,"x_min":47,"x_max":628,"o":"m 628 -125 q 549 -224 601 -186 q 436 -261 496 -261 q 363 -240 397 -261 q 306 -186 328 -219 q 285 -117 285 -153 q 308 -17 285 -60 q 115 102 182 -7 q 47 386 47 211 q 122 682 47 572 q 340 792 197 792 q 549 682 476 792 q 621 386 621 572 q 617 370 621 375 q 613 364 613 365 l 242 364 q 265 199 242 274 q 338 125 289 125 q 418 188 392 125 q 446 253 444 250 l 593 197 q 552 103 582 143 q 479 24 522 63 q 433 -25 449 -4 q 417 -72 417 -46 q 433 -116 417 -100 q 478 -132 449 -132 q 553 -72 521 -132 l 628 -125 m 338 657 q 292 633 314 657 q 256 568 269 610 q 242 476 242 526 l 429 476 q 407 608 429 560 q 338 657 385 657 z "},"ẽ":{"ha":654,"x_min":47,"x_max":621,"o":"m 333 -18 q 121 92 194 -18 q 47 386 47 203 q 122 682 47 572 q 340 792 197 792 q 549 682 476 792 q 621 386 621 572 q 617 370 621 375 q 613 364 613 365 l 242 364 q 265 199 242 274 q 338 125 289 125 q 418 188 392 125 q 446 253 444 250 l 593 197 q 500 40 564 97 q 333 -18 436 -18 m 429 476 q 407 608 429 560 q 338 657 385 657 q 292 633 314 657 q 256 568 269 610 q 242 476 242 526 l 429 476 m 417 835 q 376 843 394 835 q 329 868 358 851 q 283 894 303 886 q 240 903 264 903 q 122 835 183 903 l 113 960 q 179 1019 147 997 q 249 1042 211 1042 q 285 1035 268 1042 q 332 1015 303 1029 q 377 994 358 1001 q 417 988 396 988 q 474 1004 447 988 q 514 1042 501 1021 l 544 932 q 526 903 544 928 q 480 856 508 878 q 417 835 451 835 z "},"ə":{"ha":654,"x_min":36,"x_max":607,"o":"m 310 -22 q 94 92 151 -22 q 36 343 36 206 q 39 410 36 385 l 413 410 q 389 573 413 499 q 318 647 365 647 q 258 612 283 647 q 222 551 233 576 q 208 521 211 525 l 61 576 q 154 734 90 676 q 319 792 218 792 q 533 681 460 792 q 607 386 607 571 q 531 89 607 200 q 310 -22 456 -22 m 311 113 q 383 167 354 113 q 413 297 413 222 l 226 297 q 248 164 226 215 q 311 113 269 113 z "},"f":{"ha":469,"x_min":26,"x_max":456,"o":"m 122 635 l 26 635 l 33 782 l 122 782 l 122 796 q 133 928 122 878 q 185 1014 143 979 q 317 1049 228 1049 q 449 1028 401 1049 l 449 911 l 406 911 q 334 881 350 911 q 318 796 318 850 l 318 782 l 456 782 l 447 635 l 318 635 l 318 8 l 122 -8 l 122 635 z "},"g":{"ha":739,"x_min":22,"x_max":743,"o":"m 350 -243 q 108 -199 194 -243 q 22 -79 22 -156 q 61 10 22 -26 q 160 69 100 47 q 81 108 107 85 q 54 176 54 132 q 92 274 54 231 q 190 347 129 318 q 65 549 65 419 q 108 681 65 626 q 217 764 150 736 q 358 792 285 792 q 553 733 468 792 q 637 796 594 771 q 743 821 679 821 l 743 692 q 619 672 663 692 q 642 604 636 629 q 649 550 649 579 q 585 385 649 456 q 376 315 521 315 l 325 317 q 294 318 313 318 q 260 294 276 313 q 243 254 243 275 q 257 221 243 235 q 292 204 271 207 l 514 179 q 707 -8 707 157 q 608 -190 707 -137 q 350 -243 508 -243 m 356 426 q 422 459 399 426 q 446 551 446 492 q 421 643 446 613 q 357 674 396 674 q 289 639 314 674 q 264 553 264 604 q 285 466 264 506 q 356 426 306 426 m 358 -101 q 517 -15 517 -101 q 504 19 517 8 q 465 35 492 31 q 376 44 438 40 l 261 54 q 218 24 236 46 q 200 -24 200 3 q 240 -81 200 -61 q 358 -101 279 -101 z "},"ğ":{"ha":739,"x_min":22,"x_max":743,"o":"m 397 892 q 248 947 299 892 q 188 1094 197 1001 l 304 1094 q 313 1067 306 1090 q 340 1031 319 1043 q 394 1019 360 1019 q 447 1030 429 1019 q 469 1052 464 1040 q 483 1094 474 1064 l 600 1094 q 540 947 590 1003 q 397 892 490 892 m 350 -243 q 108 -199 194 -243 q 22 -79 22 -156 q 61 10 22 -26 q 160 69 100 47 q 81 108 107 85 q 54 176 54 132 q 92 274 54 231 q 190 347 129 318 q 65 549 65 419 q 108 681 65 626 q 217 764 150 736 q 358 792 285 792 q 553 733 468 792 q 637 796 594 771 q 743 821 679 821 l 743 692 q 619 672 663 692 q 642 604 636 629 q 649 550 649 579 q 585 385 649 456 q 376 315 521 315 l 325 317 q 294 318 313 318 q 260 294 276 313 q 243 254 243 275 q 257 221 243 235 q 292 204 271 207 l 514 179 q 707 -8 707 157 q 608 -190 707 -137 q 350 -243 508 -243 m 356 426 q 422 459 399 426 q 446 551 446 492 q 421 643 446 613 q 357 674 396 674 q 289 639 314 674 q 264 553 264 604 q 285 466 264 506 q 356 426 306 426 m 358 -101 q 517 -15 517 -101 q 504 19 517 8 q 465 35 492 31 q 376 44 438 40 l 261 54 q 218 24 236 46 q 200 -24 200 3 q 240 -81 200 -61 q 358 -101 279 -101 z "},"ǧ":{"ha":739,"x_min":22,"x_max":743,"o":"m 350 -243 q 108 -199 194 -243 q 22 -79 22 -156 q 61 10 22 -26 q 160 69 100 47 q 81 108 107 85 q 54 176 54 132 q 92 274 54 231 q 190 347 129 318 q 65 549 65 419 q 108 681 65 626 q 217 764 150 736 q 358 792 285 792 q 553 733 468 792 q 637 796 594 771 q 743 821 679 821 l 743 692 q 619 672 663 692 q 642 604 636 629 q 649 550 649 579 q 585 385 649 456 q 376 315 521 315 l 325 317 q 294 318 313 318 q 260 294 276 313 q 243 254 243 275 q 257 221 243 235 q 292 204 271 207 l 514 179 q 707 -8 707 157 q 608 -190 707 -137 q 350 -243 508 -243 m 356 426 q 422 459 399 426 q 446 551 446 492 q 421 643 446 613 q 357 674 396 674 q 289 639 314 674 q 264 553 264 604 q 285 466 264 506 q 356 426 306 426 m 358 -101 q 517 -15 517 -101 q 504 19 517 8 q 465 35 492 31 q 376 44 438 40 l 261 54 q 218 24 236 46 q 200 -24 200 3 q 240 -81 200 -61 q 358 -101 279 -101 m 304 846 l 142 1172 l 283 1172 l 363 975 l 428 1172 l 597 1172 l 440 846 l 304 846 z "},"ĝ":{"ha":739,"x_min":22,"x_max":743,"o":"m 139 849 l 301 1175 l 438 1175 l 594 849 l 425 849 l 360 1046 l 281 849 l 139 849 m 350 -243 q 108 -199 194 -243 q 22 -79 22 -156 q 61 10 22 -26 q 160 69 100 47 q 81 108 107 85 q 54 176 54 132 q 92 274 54 231 q 190 347 129 318 q 65 549 65 419 q 108 681 65 626 q 217 764 150 736 q 358 792 285 792 q 553 733 468 792 q 637 796 594 771 q 743 821 679 821 l 743 692 q 619 672 663 692 q 642 604 636 629 q 649 550 649 579 q 585 385 649 456 q 376 315 521 315 l 325 317 q 294 318 313 318 q 260 294 276 313 q 243 254 243 275 q 257 221 243 235 q 292 204 271 207 l 514 179 q 707 -8 707 157 q 608 -190 707 -137 q 350 -243 508 -243 m 356 426 q 422 459 399 426 q 446 551 446 492 q 421 643 446 613 q 357 674 396 674 q 289 639 314 674 q 264 553 264 604 q 285 466 264 506 q 356 426 306 426 m 358 -101 q 517 -15 517 -101 q 504 19 517 8 q 465 35 492 31 q 376 44 438 40 l 261 54 q 218 24 236 46 q 200 -24 200 3 q 240 -81 200 -61 q 358 -101 279 -101 z "},"ģ":{"ha":753,"x_min":22,"x_max":743,"o":"m 281 1107 q 338 1251 281 1204 q 476 1303 394 1299 l 476 1172 q 405 1153 429 1172 q 378 1107 381 1135 l 510 1107 l 510 892 l 281 883 l 281 1107 m 350 -243 q 108 -199 194 -243 q 22 -79 22 -156 q 61 10 22 -26 q 160 69 100 47 q 81 108 107 85 q 54 176 54 132 q 92 274 54 231 q 190 347 129 318 q 65 549 65 419 q 108 681 65 626 q 217 764 150 736 q 358 792 285 792 q 553 733 468 792 q 637 796 594 771 q 743 821 679 821 l 743 692 q 619 672 663 692 q 642 604 636 629 q 649 550 649 579 q 585 385 649 456 q 376 315 521 315 l 325 317 q 294 318 313 318 q 260 294 276 313 q 243 254 243 275 q 257 221 243 235 q 292 204 271 207 l 514 179 q 707 -8 707 157 q 608 -190 707 -137 q 350 -243 508 -243 m 356 426 q 422 459 399 426 q 446 551 446 492 q 421 643 446 613 q 357 674 396 674 q 289 639 314 674 q 264 553 264 604 q 285 466 264 506 q 356 426 306 426 m 358 -101 q 517 -15 517 -101 q 504 19 517 8 q 465 35 492 31 q 376 44 438 40 l 261 54 q 218 24 236 46 q 200 -24 200 3 q 240 -81 200 -61 q 358 -101 279 -101 z "},"ġ":{"ha":739,"x_min":22,"x_max":743,"o":"m 257 875 l 257 1071 l 453 1071 l 453 875 l 257 875 m 350 -243 q 108 -199 194 -243 q 22 -79 22 -156 q 61 10 22 -26 q 160 69 100 47 q 81 108 107 85 q 54 176 54 132 q 92 274 54 231 q 190 347 129 318 q 65 549 65 419 q 108 681 65 626 q 217 764 150 736 q 358 792 285 792 q 553 733 468 792 q 637 796 594 771 q 743 821 679 821 l 743 692 q 619 672 663 692 q 642 604 636 629 q 649 550 649 579 q 585 385 649 456 q 376 315 521 315 l 325 317 q 294 318 313 318 q 260 294 276 313 q 243 254 243 275 q 257 221 243 235 q 292 204 271 207 l 514 179 q 707 -8 707 157 q 608 -190 707 -137 q 350 -243 508 -243 m 356 426 q 422 459 399 426 q 446 551 446 492 q 421 643 446 613 q 357 674 396 674 q 289 639 314 674 q 264 553 264 604 q 285 466 264 506 q 356 426 306 426 m 358 -101 q 517 -15 517 -101 q 504 19 517 8 q 465 35 492 31 q 376 44 438 40 l 261 54 q 218 24 236 46 q 200 -24 200 3 q 240 -81 200 -61 q 358 -101 279 -101 z "},"h":{"ha":749,"x_min":85,"x_max":669,"o":"m 85 1017 l 279 1042 l 279 682 q 503 792 399 792 q 623 738 576 792 q 669 594 669 685 l 669 8 l 475 -8 l 475 524 q 456 600 475 575 q 407 625 438 625 q 354 613 382 625 q 279 572 326 600 l 279 8 l 85 -8 l 85 1017 z "},"ħ":{"ha":749,"x_min":-22,"x_max":669,"o":"m 503 792 q 623 738 576 792 q 669 594 669 685 l 669 8 l 475 -8 l 475 524 q 456 600 475 575 q 407 625 438 625 q 354 613 382 625 q 279 572 326 600 l 279 8 l 85 -8 l 85 810 l -22 810 l -22 940 l 85 940 l 85 1017 l 279 1042 l 279 940 l 433 940 l 433 810 l 279 810 l 279 682 q 503 792 399 792 z "},"ĥ":{"ha":749,"x_min":-49,"x_max":669,"o":"m 85 1017 l 279 1042 l 279 682 q 503 792 399 792 q 623 738 576 792 q 669 594 669 685 l 669 8 l 475 -8 l 475 524 q 456 600 475 575 q 407 625 438 625 q 354 613 382 625 q 279 572 326 600 l 279 8 l 85 -8 l 85 1017 m -49 1106 l 114 1432 l 250 1432 l 407 1106 l 238 1106 l 172 1303 l 93 1106 l -49 1106 z "},"i":{"ha":365,"x_min":85,"x_max":281,"o":"m 86 882 l 86 1083 l 281 1097 l 281 890 l 86 882 m 85 -8 l 85 765 l 279 782 l 279 8 l 85 -8 z "},"ı":{"ha":364,"x_min":85,"x_max":279,"o":"m 85 -8 l 85 765 l 279 782 l 279 8 l 85 -8 z "},"í":{"ha":364,"x_min":85,"x_max":456,"o":"m 85 -8 l 85 765 l 279 782 l 279 8 l 85 -8 m 204 840 l 132 910 l 313 1183 l 456 1051 l 204 840 z "},"ĭ":{"ha":364,"x_min":-25,"x_max":388,"o":"m 85 -8 l 85 765 l 279 782 l 279 8 l 85 -8 m 185 869 q 35 924 86 869 q -25 1072 -15 979 l 92 1072 q 100 1044 93 1068 q 127 1009 107 1021 q 182 997 147 997 q 234 1008 217 997 q 256 1030 251 1018 q 271 1072 261 1042 l 388 1072 q 328 925 378 981 q 185 869 278 869 z "},"î":{"ha":364,"x_min":-46,"x_max":410,"o":"m 85 -8 l 85 765 l 279 782 l 279 8 l 85 -8 m -46 846 l 117 1172 l 253 1172 l 410 846 l 240 846 l 175 1043 l 96 846 l -46 846 z "},"ȉ":{"ha":364,"x_min":-193,"x_max":417,"o":"m 85 -8 l 85 765 l 279 782 l 279 8 l 85 -8 m 324 847 l 125 1158 l 308 1253 l 417 896 l 324 847 m 68 846 l -193 1107 l -35 1239 l 149 913 l 68 846 z "},"ï":{"ha":364,"x_min":-79,"x_max":442,"o":"m 85 -8 l 85 765 l 279 782 l 279 8 l 85 -8 m -79 874 l -79 1069 l 117 1069 l 117 874 l -79 874 m 246 874 l 246 1069 l 442 1069 l 442 874 l 246 874 z "},"ị":{"ha":365,"x_min":78,"x_max":281,"o":"m 86 882 l 86 1083 l 281 1097 l 281 890 l 86 882 m 85 -8 l 85 765 l 279 782 l 279 8 l 85 -8 m 78 -306 l 78 -110 l 274 -110 l 274 -306 l 78 -306 z "},"ì":{"ha":364,"x_min":-46,"x_max":279,"o":"m 85 -8 l 85 765 l 279 782 l 279 8 l 85 -8 m 206 840 l -46 1051 l 97 1183 l 278 910 l 206 840 z "},"ỉ":{"ha":364,"x_min":10,"x_max":354,"o":"m 85 -8 l 85 765 l 279 782 l 279 8 l 85 -8 m 107 838 q 106 853 106 843 q 125 914 106 889 q 178 967 144 939 q 207 993 197 982 q 217 1014 217 1004 q 183 1046 217 1046 q 135 993 142 1046 l 10 996 q 34 1071 11 1035 q 97 1130 57 1107 q 188 1153 138 1153 q 309 1115 264 1153 q 354 1014 354 1076 q 336 956 354 978 q 282 908 318 935 q 241 874 254 889 q 228 839 228 860 l 228 838 l 107 838 z "},"ȋ":{"ha":364,"x_min":-111,"x_max":474,"o":"m 85 -8 l 85 765 l 279 782 l 279 8 l 85 -8 m -111 846 q -83 993 -111 918 q 10 1120 -56 1068 q 182 1172 76 1172 q 353 1120 288 1172 q 446 993 418 1068 q 474 846 474 918 l 311 846 q 305 926 311 893 q 270 985 299 960 q 182 1010 242 1010 q 93 985 122 1010 q 58 926 64 960 q 51 846 51 893 l -111 846 z "},"ĳ":{"ha":733,"x_min":85,"x_max":653,"o":"m 86 882 l 86 1083 l 281 1097 l 281 890 l 86 882 m 85 -8 l 85 765 l 279 782 l 279 8 l 85 -8 m 457 882 l 457 1083 l 653 1097 l 653 890 l 457 882 m 479 -196 q 349 -182 422 -196 l 349 -65 q 422 -56 399 -65 q 451 -26 444 -46 q 457 36 457 -6 l 457 765 l 653 782 l 653 36 q 644 -100 653 -56 q 599 -170 636 -144 q 479 -196 563 -196 z "},"ī":{"ha":364,"x_min":-14,"x_max":376,"o":"m 85 -8 l 85 765 l 279 782 l 279 8 l 85 -8 m -14 846 l -14 976 l 376 976 l 376 846 l -14 846 z "},"į":{"ha":365,"x_min":56,"x_max":399,"o":"m 86 882 l 86 1083 l 281 1097 l 281 890 l 86 882 m 85 -8 l 85 765 l 279 782 l 279 8 l 85 -8 m 250 24 q 203 -25 219 -4 q 188 -72 188 -46 q 203 -115 188 -99 q 242 -132 218 -132 q 324 -72 292 -132 l 399 -125 q 319 -224 372 -186 q 207 -261 267 -261 q 133 -240 168 -261 q 77 -186 99 -219 q 56 -117 56 -153 q 132 43 56 -14 l 250 24 z "},"ĩ":{"ha":364,"x_min":-33,"x_max":399,"o":"m 85 -8 l 85 765 l 279 782 l 279 8 l 85 -8 m 271 835 q 231 843 249 835 q 183 868 213 851 q 138 894 157 886 q 94 903 118 903 q -24 835 38 903 l -33 960 q 33 1019 1 997 q 103 1042 65 1042 q 140 1035 122 1042 q 186 1015 157 1029 q 231 994 213 1001 q 271 988 250 988 q 328 1004 301 988 q 368 1042 356 1021 l 399 932 q 381 903 399 928 q 334 856 363 878 q 271 835 306 835 z "},"j":{"ha":368,"x_min":-17,"x_max":288,"o":"m 92 882 l 92 1083 l 288 1097 l 288 890 l 92 882 m 114 -196 q -17 -182 57 -196 l -17 -65 q 56 -56 33 -65 q 85 -26 79 -46 q 92 36 92 -6 l 92 765 l 288 782 l 288 36 q 279 -100 288 -56 q 234 -170 271 -144 q 114 -196 197 -196 z "},"ȷ":{"ha":364,"x_min":-24,"x_max":279,"o":"m 107 -196 q -24 -182 50 -196 l -24 -65 q 49 -56 26 -65 q 78 -26 72 -46 q 85 36 85 -6 l 85 765 l 279 782 l 279 36 q 271 -100 279 -56 q 226 -170 263 -144 q 107 -196 189 -196 z "},"ĵ":{"ha":364,"x_min":-42,"x_max":414,"o":"m -42 847 l 121 1174 l 257 1174 l 414 847 l 244 847 l 179 1044 l 100 847 l -42 847 m 107 -196 q -24 -182 50 -196 l -24 -65 q 49 -56 26 -65 q 78 -26 72 -46 q 85 36 85 -6 l 85 765 l 279 782 l 279 36 q 271 -100 279 -56 q 226 -170 263 -144 q 107 -196 189 -196 z "},"k":{"ha":694,"x_min":85,"x_max":689,"o":"m 501 -18 l 343 371 l 279 286 l 279 0 l 85 0 l 85 1017 l 279 1042 l 279 525 l 478 782 l 689 782 l 469 500 l 674 40 l 501 -18 z "},"ķ":{"ha":694,"x_min":85,"x_max":689,"o":"m 501 -18 l 343 371 l 279 286 l 279 0 l 85 0 l 85 1017 l 279 1042 l 279 525 l 478 782 l 689 782 l 469 500 l 674 40 l 501 -18 m 282 -304 q 331 -285 315 -304 q 347 -239 346 -267 l 250 -239 l 250 -44 l 444 -44 l 444 -239 q 398 -383 444 -335 q 282 -435 351 -431 l 282 -304 z "},"ĸ":{"ha":694,"x_min":85,"x_max":689,"o":"m 501 -18 l 343 371 l 279 286 l 279 0 l 85 0 l 85 765 l 279 782 l 279 525 l 478 782 l 689 782 l 469 500 l 674 40 l 501 -18 z "},"l":{"ha":365,"x_min":86,"x_max":281,"o":"m 86 -8 l 86 1017 l 281 1042 l 281 8 l 86 -8 z "},"ĺ":{"ha":365,"x_min":86,"x_max":456,"o":"m 86 -8 l 86 1017 l 281 1042 l 281 8 l 86 -8 m 204 1106 l 132 1175 l 313 1449 l 456 1317 l 204 1106 z "},"ľ":{"ha":365,"x_min":72,"x_max":281,"o":"m 86 -8 l 86 1017 l 281 1042 l 281 8 l 86 -8 m 106 -328 q 163 -294 146 -328 q 171 -262 168 -282 l 72 -262 l 72 -67 l 268 -67 l 268 -262 q 245 -371 268 -329 q 186 -433 222 -412 q 106 -458 150 -454 l 106 -328 z "},"ļ":{"ha":365,"x_min":72,"x_max":281,"o":"m 86 -8 l 86 1017 l 281 1042 l 281 8 l 86 -8 m 106 -328 q 163 -294 146 -328 q 171 -262 168 -282 l 72 -262 l 72 -67 l 268 -67 l 268 -262 q 245 -371 268 -329 q 186 -433 222 -412 q 106 -458 150 -454 l 106 -328 z "},"ŀ":{"ha":365,"x_min":85,"x_max":281,"o":"m 86 1017 l 281 1042 l 281 8 l 86 -8 l 86 290 l 85 290 l 85 486 l 86 486 l 86 1017 z "},"ǉ":{"ha":733,"x_min":86,"x_max":653,"o":"m 86 -8 l 86 1017 l 281 1042 l 281 8 l 86 -8 m 457 882 l 457 1083 l 653 1097 l 653 890 l 457 882 m 479 -196 q 349 -182 422 -196 l 349 -65 q 422 -56 399 -65 q 451 -26 444 -46 q 457 36 457 -6 l 457 765 l 653 782 l 653 36 q 644 -100 653 -56 q 599 -170 636 -144 q 479 -196 563 -196 z "},"ł":{"ha":396,"x_min":0,"x_max":390,"o":"m 390 651 l 390 490 l 301 468 l 301 8 l 106 -8 l 106 417 l 0 390 l 0 551 l 106 578 l 106 1017 l 301 1042 l 301 629 l 390 651 z "},"m":{"ha":1024,"x_min":85,"x_max":946,"o":"m 85 765 l 275 782 l 275 682 q 374 762 318 732 q 486 792 431 792 q 601 669 574 792 q 807 792 693 792 q 914 732 882 792 q 946 554 946 672 l 946 8 l 754 -8 l 754 544 q 740 603 754 582 q 708 625 726 625 q 653 609 679 625 q 610 569 628 593 l 610 8 l 419 -8 l 419 546 q 408 605 419 585 q 381 625 396 625 q 324 608 353 625 q 275 569 294 592 l 275 8 l 85 -8 l 85 765 z "},"n":{"ha":749,"x_min":85,"x_max":669,"o":"m 85 765 l 279 782 l 279 682 q 397 763 339 735 q 503 792 454 792 q 623 738 576 792 q 669 594 669 685 l 669 8 l 475 -8 l 475 521 q 404 625 475 625 q 352 611 381 625 q 279 571 324 597 l 279 8 l 85 -8 l 85 765 z "},"ń":{"ha":749,"x_min":85,"x_max":669,"o":"m 85 765 l 279 782 l 279 682 q 397 763 339 735 q 503 792 454 792 q 623 738 576 792 q 669 594 669 685 l 669 8 l 475 -8 l 475 521 q 404 625 475 625 q 352 611 381 625 q 279 571 324 597 l 279 8 l 85 -8 l 85 765 m 397 840 l 325 910 l 506 1183 l 649 1051 l 397 840 z "},"ŉ":{"ha":908,"x_min":-14,"x_max":829,"o":"m 18 781 q 53 790 40 781 q 75 814 65 799 q 83 846 81 822 l -14 846 l -14 1042 l 181 1042 l 181 846 q 158 738 181 779 q 100 675 135 696 q 18 650 65 654 l 18 781 m 244 765 l 439 782 l 439 682 q 556 763 499 735 q 663 792 614 792 q 783 738 736 792 q 829 594 829 685 l 829 8 l 635 -8 l 635 521 q 564 625 635 625 q 512 611 540 625 q 439 571 483 597 l 439 8 l 244 -8 l 244 765 z "},"ň":{"ha":749,"x_min":85,"x_max":669,"o":"m 85 765 l 279 782 l 279 682 q 397 763 339 735 q 503 792 454 792 q 623 738 576 792 q 669 594 669 685 l 669 8 l 475 -8 l 475 521 q 404 625 475 625 q 352 611 381 625 q 279 571 324 597 l 279 8 l 85 -8 l 85 765 m 310 846 l 147 1172 l 289 1172 l 368 975 l 433 1172 l 603 1172 l 446 846 l 310 846 z "},"ņ":{"ha":749,"x_min":85,"x_max":669,"o":"m 85 765 l 279 782 l 279 682 q 397 763 339 735 q 503 792 454 792 q 623 738 576 792 q 669 594 669 685 l 669 8 l 475 -8 l 475 521 q 404 625 475 625 q 352 611 381 625 q 279 571 324 597 l 279 8 l 85 -8 l 85 765 m 300 -328 q 357 -294 340 -328 q 365 -262 363 -282 l 267 -262 l 267 -67 l 463 -67 l 463 -262 q 440 -371 463 -329 q 381 -433 417 -412 q 300 -458 344 -454 l 300 -328 z "},"ṇ":{"ha":749,"x_min":85,"x_max":669,"o":"m 85 765 l 279 782 l 279 682 q 397 763 339 735 q 503 792 454 792 q 623 738 576 792 q 669 594 669 685 l 669 8 l 475 -8 l 475 521 q 404 625 475 625 q 352 611 381 625 q 279 571 324 597 l 279 8 l 85 -8 l 85 765 m 276 -306 l 276 -110 l 472 -110 l 472 -306 l 276 -306 z "},"ŋ":{"ha":750,"x_min":85,"x_max":669,"o":"m 497 -196 q 367 -182 440 -196 l 367 -65 q 440 -56 417 -65 q 469 -26 463 -46 q 475 36 475 -6 l 475 521 q 404 625 475 625 q 352 611 381 625 q 279 571 324 597 l 279 8 l 85 -8 l 85 765 l 279 782 l 279 682 q 397 763 339 735 q 503 792 454 792 q 623 738 576 792 q 669 594 669 685 l 669 36 q 661 -100 669 -56 q 616 -170 653 -144 q 497 -196 579 -196 z "},"ɲ":{"ha":833,"x_min":-24,"x_max":669,"o":"m 85 765 l 279 782 l 279 682 q 397 763 339 735 q 503 792 454 792 q 623 738 576 792 q 669 594 669 685 l 669 8 l 475 -8 l 475 521 q 404 625 475 625 q 352 611 381 625 q 279 571 324 597 l 279 36 q 271 -100 279 -56 q 226 -170 263 -144 q 107 -196 189 -196 q -24 -182 50 -196 l -24 -65 q 49 -56 26 -65 q 78 -26 72 -46 q 85 36 85 -6 l 85 765 z "},"ǌ":{"ha":1117,"x_min":85,"x_max":1036,"o":"m 85 765 l 279 782 l 279 682 q 397 763 339 735 q 503 792 454 792 q 623 738 576 792 q 669 594 669 685 l 669 8 l 475 -8 l 475 521 q 404 625 475 625 q 352 611 381 625 q 279 571 324 597 l 279 8 l 85 -8 l 85 765 m 840 882 l 840 1083 l 1036 1097 l 1036 890 l 840 882 m 863 -196 q 732 -182 806 -196 l 732 -65 q 805 -56 782 -65 q 834 -26 828 -46 q 840 36 840 -6 l 840 765 l 1036 782 l 1036 36 q 1028 -100 1036 -56 q 983 -170 1019 -144 q 863 -196 946 -196 z "},"ñ":{"ha":749,"x_min":85,"x_max":669,"o":"m 85 765 l 279 782 l 279 682 q 397 763 339 735 q 503 792 454 792 q 623 738 576 792 q 669 594 669 685 l 669 8 l 475 -8 l 475 521 q 404 625 475 625 q 352 611 381 625 q 279 571 324 597 l 279 8 l 85 -8 l 85 765 m 464 835 q 424 843 442 835 q 376 868 406 851 q 331 894 350 886 q 288 903 311 903 q 169 835 231 903 l 160 960 q 226 1019 194 997 q 296 1042 258 1042 q 333 1035 315 1042 q 379 1015 350 1029 q 424 994 406 1001 q 464 988 443 988 q 522 1004 494 988 q 561 1042 549 1021 l 592 932 q 574 903 592 928 q 527 856 556 878 q 464 835 499 835 z "},"o":{"ha":681,"x_min":47,"x_max":633,"o":"m 339 -18 q 123 93 199 -18 q 47 389 47 204 q 122 682 47 572 q 339 792 197 792 q 556 682 479 792 q 633 389 633 572 q 556 94 633 206 q 339 -18 479 -18 m 339 126 q 419 203 401 126 q 438 390 438 279 q 419 578 438 501 q 339 654 401 654 q 260 582 276 654 q 243 406 243 510 q 260 202 243 278 q 339 126 276 126 z "},"ó":{"ha":681,"x_min":47,"x_max":633,"o":"m 339 -18 q 123 93 199 -18 q 47 389 47 204 q 122 682 47 572 q 339 792 197 792 q 556 682 479 792 q 633 389 633 572 q 556 94 633 206 q 339 -18 479 -18 m 339 126 q 419 203 401 126 q 438 390 438 279 q 419 578 438 501 q 339 654 401 654 q 260 582 276 654 q 243 406 243 510 q 260 202 243 278 q 339 126 276 126 m 363 840 l 290 910 l 471 1183 l 614 1051 l 363 840 z "},"ŏ":{"ha":681,"x_min":47,"x_max":633,"o":"m 339 -18 q 123 93 199 -18 q 47 389 47 204 q 122 682 47 572 q 339 792 197 792 q 556 682 479 792 q 633 389 633 572 q 556 94 633 206 q 339 -18 479 -18 m 339 126 q 419 203 401 126 q 438 390 438 279 q 419 578 438 501 q 339 654 401 654 q 260 582 276 654 q 243 406 243 510 q 260 202 243 278 q 339 126 276 126 m 343 869 q 194 924 244 869 q 133 1072 143 979 l 250 1072 q 258 1044 251 1068 q 285 1009 265 1021 q 340 997 306 997 q 392 1008 375 997 q 415 1030 410 1018 q 429 1072 419 1042 l 546 1072 q 486 925 536 981 q 343 869 436 869 z "},"ô":{"ha":681,"x_min":47,"x_max":633,"o":"m 339 -18 q 123 93 199 -18 q 47 389 47 204 q 122 682 47 572 q 339 792 197 792 q 556 682 479 792 q 633 389 633 572 q 556 94 633 206 q 339 -18 479 -18 m 339 126 q 419 203 401 126 q 438 390 438 279 q 419 578 438 501 q 339 654 401 654 q 260 582 276 654 q 243 406 243 510 q 260 202 243 278 q 339 126 276 126 m 113 846 l 275 1172 l 411 1172 l 568 846 l 399 846 l 333 1043 l 254 846 l 113 846 z "},"ố":{"ha":681,"x_min":47,"x_max":775,"o":"m 339 -18 q 123 93 199 -18 q 47 389 47 204 q 122 682 47 572 q 339 792 197 792 q 556 682 479 792 q 633 389 633 572 q 556 94 633 206 q 339 -18 479 -18 m 339 126 q 419 203 401 126 q 438 390 438 279 q 419 578 438 501 q 339 654 401 654 q 260 582 276 654 q 243 406 243 510 q 260 202 243 278 q 339 126 276 126 m 639 1261 l 775 1147 l 579 983 l 514 1035 l 639 1261 m 275 1117 l 411 1117 l 568 874 l 399 874 l 333 1008 l 254 874 l 113 874 l 275 1117 z "},"ộ":{"ha":681,"x_min":47,"x_max":633,"o":"m 339 -18 q 123 93 199 -18 q 47 389 47 204 q 122 682 47 572 q 339 792 197 792 q 556 682 479 792 q 633 389 633 572 q 556 94 633 206 q 339 -18 479 -18 m 339 126 q 419 203 401 126 q 438 390 438 279 q 419 578 438 501 q 339 654 401 654 q 260 582 276 654 q 243 406 243 510 q 260 202 243 278 q 339 126 276 126 m 113 846 l 275 1172 l 411 1172 l 568 846 l 399 846 l 333 1043 l 254 846 l 113 846 m 235 -306 l 235 -110 l 431 -110 l 431 -306 l 235 -306 z "},"ồ":{"ha":681,"x_min":-83,"x_max":633,"o":"m 339 -18 q 123 93 199 -18 q 47 389 47 204 q 122 682 47 572 q 339 792 197 792 q 556 682 479 792 q 633 389 633 572 q 556 94 633 206 q 339 -18 479 -18 m 339 126 q 419 203 401 126 q 438 390 438 279 q 419 578 438 501 q 339 654 401 654 q 260 582 276 654 q 243 406 243 510 q 260 202 243 278 q 339 126 276 126 m 53 1233 l 178 1007 l 113 956 l -83 1119 l 53 1233 m 578 846 l 408 846 l 343 981 l 264 846 l 122 846 l 285 1089 l 421 1089 l 578 846 z "},"ổ":{"ha":681,"x_min":47,"x_max":825,"o":"m 339 -18 q 123 93 199 -18 q 47 389 47 204 q 122 682 47 572 q 339 792 197 792 q 556 682 479 792 q 633 389 633 572 q 556 94 633 206 q 339 -18 479 -18 m 339 126 q 419 203 401 126 q 438 390 438 279 q 419 578 438 501 q 339 654 401 654 q 260 582 276 654 q 243 406 243 510 q 260 202 243 278 q 339 126 276 126 m 658 1263 q 780 1224 735 1263 q 825 1124 825 1186 q 807 1066 825 1088 q 753 1018 789 1044 q 712 984 725 999 q 699 949 699 969 l 699 947 l 578 947 q 576 963 576 953 q 596 1024 576 999 q 649 1076 615 1049 q 678 1103 668 1092 q 688 1124 688 1114 q 654 1156 688 1156 q 606 1103 613 1156 l 481 1106 q 505 1181 482 1144 q 568 1240 528 1217 q 658 1263 608 1263 m 279 1089 l 415 1089 l 572 846 l 403 846 l 338 981 l 258 846 l 117 846 l 279 1089 z "},"ỗ":{"ha":681,"x_min":47,"x_max":633,"o":"m 339 -18 q 123 93 199 -18 q 47 389 47 204 q 122 682 47 572 q 339 792 197 792 q 556 682 479 792 q 633 389 633 572 q 556 94 633 206 q 339 -18 479 -18 m 339 126 q 419 203 401 126 q 438 390 438 279 q 419 578 438 501 q 339 654 401 654 q 260 582 276 654 q 243 406 243 510 q 260 202 243 278 q 339 126 276 126 m 276 1196 q 158 1128 219 1196 l 149 1253 q 215 1313 183 1290 q 285 1335 247 1335 q 322 1328 304 1335 q 368 1308 339 1322 q 413 1288 394 1294 q 453 1281 432 1281 q 510 1297 483 1281 q 550 1335 538 1314 l 581 1225 q 563 1196 581 1221 q 516 1149 544 1171 q 453 1128 488 1128 q 413 1136 431 1128 q 365 1161 394 1144 q 319 1188 339 1179 q 276 1196 300 1196 m 285 1089 l 421 1089 l 578 846 l 408 846 l 343 981 l 264 846 l 122 846 l 285 1089 z "},"ȍ":{"ha":681,"x_min":-35,"x_max":633,"o":"m 339 -18 q 123 93 199 -18 q 47 389 47 204 q 122 682 47 572 q 339 792 197 792 q 556 682 479 792 q 633 389 633 572 q 556 94 633 206 q 339 -18 479 -18 m 339 126 q 419 203 401 126 q 438 390 438 279 q 419 578 438 501 q 339 654 401 654 q 260 582 276 654 q 243 406 243 510 q 260 202 243 278 q 339 126 276 126 m 482 847 l 283 1158 l 467 1253 l 575 896 l 482 847 m 226 846 l -35 1107 l 124 1239 l 307 913 l 226 846 z "},"ö":{"ha":681,"x_min":47,"x_max":633,"o":"m 339 -18 q 123 93 199 -18 q 47 389 47 204 q 122 682 47 572 q 339 792 197 792 q 556 682 479 792 q 633 389 633 572 q 556 94 633 206 q 339 -18 479 -18 m 339 126 q 419 203 401 126 q 438 390 438 279 q 419 578 438 501 q 339 654 401 654 q 260 582 276 654 q 243 406 243 510 q 260 202 243 278 q 339 126 276 126 m 79 874 l 79 1069 l 275 1069 l 275 874 l 79 874 m 404 874 l 404 1069 l 600 1069 l 600 874 l 404 874 z "},"ȫ":{"ha":681,"x_min":47,"x_max":633,"o":"m 339 -18 q 123 93 199 -18 q 47 389 47 204 q 122 682 47 572 q 339 792 197 792 q 556 682 479 792 q 633 389 633 572 q 556 94 633 206 q 339 -18 479 -18 m 339 126 q 419 203 401 126 q 438 390 438 279 q 419 578 438 501 q 339 654 401 654 q 260 582 276 654 q 243 406 243 510 q 260 202 243 278 q 339 126 276 126 m 79 874 l 79 1069 l 275 1069 l 275 874 l 79 874 m 404 874 l 404 1069 l 600 1069 l 600 874 l 404 874 m 144 1133 l 144 1264 l 535 1264 l 535 1133 l 144 1133 z "},"ȱ":{"ha":681,"x_min":47,"x_max":633,"o":"m 339 -18 q 123 93 199 -18 q 47 389 47 204 q 122 682 47 572 q 339 792 197 792 q 556 682 479 792 q 633 389 633 572 q 556 94 633 206 q 339 -18 479 -18 m 339 126 q 419 203 401 126 q 438 390 438 279 q 419 578 438 501 q 339 654 401 654 q 260 582 276 654 q 243 406 243 510 q 260 202 243 278 q 339 126 276 126 m 242 846 l 242 1042 l 438 1042 l 438 846 l 242 846 m 144 1106 l 144 1236 l 535 1236 l 535 1106 l 144 1106 z "},"ọ":{"ha":681,"x_min":47,"x_max":633,"o":"m 339 -18 q 123 93 199 -18 q 47 389 47 204 q 122 682 47 572 q 339 792 197 792 q 556 682 479 792 q 633 389 633 572 q 556 94 633 206 q 339 -18 479 -18 m 339 126 q 419 203 401 126 q 438 390 438 279 q 419 578 438 501 q 339 654 401 654 q 260 582 276 654 q 243 406 243 510 q 260 202 243 278 q 339 126 276 126 m 235 -306 l 235 -110 l 431 -110 l 431 -306 l 235 -306 z "},"ò":{"ha":681,"x_min":47,"x_max":633,"o":"m 339 -18 q 123 93 199 -18 q 47 389 47 204 q 122 682 47 572 q 339 792 197 792 q 556 682 479 792 q 633 389 633 572 q 556 94 633 206 q 339 -18 479 -18 m 339 126 q 419 203 401 126 q 438 390 438 279 q 419 578 438 501 q 339 654 401 654 q 260 582 276 654 q 243 406 243 510 q 260 202 243 278 q 339 126 276 126 m 364 840 l 113 1051 l 256 1183 l 436 910 l 364 840 z "},"ỏ":{"ha":681,"x_min":47,"x_max":633,"o":"m 339 -18 q 123 93 199 -18 q 47 389 47 204 q 122 682 47 572 q 339 792 197 792 q 556 682 479 792 q 633 389 633 572 q 556 94 633 206 q 339 -18 479 -18 m 339 126 q 419 203 401 126 q 438 390 438 279 q 419 578 438 501 q 339 654 401 654 q 260 582 276 654 q 243 406 243 510 q 260 202 243 278 q 339 126 276 126 m 265 838 q 264 853 264 843 q 283 914 264 889 q 336 967 303 939 q 365 993 356 982 q 375 1014 375 1004 q 342 1046 375 1046 q 293 993 300 1046 l 168 996 q 192 1071 169 1035 q 256 1130 215 1107 q 346 1153 296 1153 q 467 1115 422 1153 q 513 1014 513 1076 q 494 956 513 978 q 440 908 476 935 q 399 874 413 889 q 386 839 386 860 l 386 838 l 265 838 z "},"ơ":{"ha":786,"x_min":47,"x_max":828,"o":"m 828 681 q 799 578 828 624 q 725 506 771 532 q 628 476 679 479 q 633 389 633 439 q 556 94 633 206 q 339 -18 479 -18 q 123 93 199 -18 q 47 389 47 204 q 122 682 47 572 q 339 792 197 792 q 500 740 433 792 q 601 594 567 689 q 658 613 638 593 q 678 658 678 632 q 667 711 678 682 q 640 767 656 740 l 778 818 q 813 760 797 792 q 828 681 828 728 m 339 126 q 419 203 401 126 q 438 390 438 279 q 419 578 438 501 q 339 654 401 654 q 260 582 276 654 q 243 406 243 510 q 260 202 243 278 q 339 126 276 126 z "},"ớ":{"ha":786,"x_min":47,"x_max":828,"o":"m 828 681 q 799 578 828 624 q 725 506 771 532 q 628 476 679 479 q 633 389 633 439 q 556 94 633 206 q 339 -18 479 -18 q 123 93 199 -18 q 47 389 47 204 q 122 682 47 572 q 339 792 197 792 q 500 740 433 792 q 601 594 567 689 q 658 613 638 593 q 678 658 678 632 q 667 711 678 682 q 640 767 656 740 l 778 818 q 813 760 797 792 q 828 681 828 728 m 339 126 q 419 203 401 126 q 438 390 438 279 q 419 578 438 501 q 339 654 401 654 q 260 582 276 654 q 243 406 243 510 q 260 202 243 278 q 339 126 276 126 m 363 840 l 290 910 l 471 1183 l 614 1051 l 363 840 z "},"ợ":{"ha":786,"x_min":47,"x_max":828,"o":"m 828 681 q 799 578 828 624 q 725 506 771 532 q 628 476 679 479 q 633 389 633 439 q 556 94 633 206 q 339 -18 479 -18 q 123 93 199 -18 q 47 389 47 204 q 122 682 47 572 q 339 792 197 792 q 500 740 433 792 q 601 594 567 689 q 658 613 638 593 q 678 658 678 632 q 667 711 678 682 q 640 767 656 740 l 778 818 q 813 760 797 792 q 828 681 828 728 m 339 126 q 419 203 401 126 q 438 390 438 279 q 419 578 438 501 q 339 654 401 654 q 260 582 276 654 q 243 406 243 510 q 260 202 243 278 q 339 126 276 126 m 235 -306 l 235 -110 l 431 -110 l 431 -306 l 235 -306 z "},"ờ":{"ha":786,"x_min":47,"x_max":828,"o":"m 828 681 q 799 578 828 624 q 725 506 771 532 q 628 476 679 479 q 633 389 633 439 q 556 94 633 206 q 339 -18 479 -18 q 123 93 199 -18 q 47 389 47 204 q 122 682 47 572 q 339 792 197 792 q 500 740 433 792 q 601 594 567 689 q 658 613 638 593 q 678 658 678 632 q 667 711 678 682 q 640 767 656 740 l 778 818 q 813 760 797 792 q 828 681 828 728 m 339 126 q 419 203 401 126 q 438 390 438 279 q 419 578 438 501 q 339 654 401 654 q 260 582 276 654 q 243 406 243 510 q 260 202 243 278 q 339 126 276 126 m 364 840 l 113 1051 l 256 1183 l 436 910 l 364 840 z "},"ở":{"ha":786,"x_min":47,"x_max":828,"o":"m 828 681 q 799 578 828 624 q 725 506 771 532 q 628 476 679 479 q 633 389 633 439 q 556 94 633 206 q 339 -18 479 -18 q 123 93 199 -18 q 47 389 47 204 q 122 682 47 572 q 339 792 197 792 q 500 740 433 792 q 601 594 567 689 q 658 613 638 593 q 678 658 678 632 q 667 711 678 682 q 640 767 656 740 l 778 818 q 813 760 797 792 q 828 681 828 728 m 339 126 q 419 203 401 126 q 438 390 438 279 q 419 578 438 501 q 339 654 401 654 q 260 582 276 654 q 243 406 243 510 q 260 202 243 278 q 339 126 276 126 m 265 838 q 264 853 264 843 q 283 914 264 889 q 336 967 303 939 q 365 993 356 982 q 375 1014 375 1004 q 342 1046 375 1046 q 293 993 300 1046 l 168 996 q 192 1071 169 1035 q 256 1130 215 1107 q 346 1153 296 1153 q 467 1115 422 1153 q 513 1014 513 1076 q 494 956 513 978 q 440 908 476 935 q 399 874 413 889 q 386 839 386 860 l 386 838 l 265 838 z "},"ỡ":{"ha":786,"x_min":47,"x_max":828,"o":"m 828 681 q 799 578 828 624 q 725 506 771 532 q 628 476 679 479 q 633 389 633 439 q 556 94 633 206 q 339 -18 479 -18 q 123 93 199 -18 q 47 389 47 204 q 122 682 47 572 q 339 792 197 792 q 500 740 433 792 q 601 594 567 689 q 658 613 638 593 q 678 658 678 632 q 667 711 678 682 q 640 767 656 740 l 778 818 q 813 760 797 792 q 828 681 828 728 m 339 126 q 419 203 401 126 q 438 390 438 279 q 419 578 438 501 q 339 654 401 654 q 260 582 276 654 q 243 406 243 510 q 260 202 243 278 q 339 126 276 126 m 429 835 q 389 843 407 835 q 342 868 371 851 q 296 894 315 886 q 253 903 276 903 q 135 835 196 903 l 125 960 q 192 1019 160 997 q 261 1042 224 1042 q 298 1035 281 1042 q 344 1015 315 1029 q 390 994 371 1001 q 429 988 408 988 q 487 1004 460 988 q 526 1042 514 1021 l 557 932 q 539 903 557 928 q 492 856 521 878 q 429 835 464 835 z "},"ő":{"ha":681,"x_min":47,"x_max":810,"o":"m 208 861 l 128 926 l 310 1253 l 468 1121 l 208 861 m 549 861 l 468 926 l 651 1253 l 810 1121 l 549 861 m 339 -18 q 123 93 199 -18 q 47 389 47 204 q 122 682 47 572 q 339 792 197 792 q 556 682 479 792 q 633 389 633 572 q 556 94 633 206 q 339 -18 479 -18 m 339 126 q 419 203 401 126 q 438 390 438 279 q 419 578 438 501 q 339 654 401 654 q 260 582 276 654 q 243 406 243 510 q 260 202 243 278 q 339 126 276 126 z "},"ȏ":{"ha":681,"x_min":47,"x_max":633,"o":"m 339 -18 q 123 93 199 -18 q 47 389 47 204 q 122 682 47 572 q 339 792 197 792 q 556 682 479 792 q 633 389 633 572 q 556 94 633 206 q 339 -18 479 -18 m 339 126 q 419 203 401 126 q 438 390 438 279 q 419 578 438 501 q 339 654 401 654 q 260 582 276 654 q 243 406 243 510 q 260 202 243 278 q 339 126 276 126 m 47 846 q 75 993 47 918 q 169 1120 103 1068 q 340 1172 235 1172 q 511 1120 446 1172 q 604 993 576 1068 q 632 846 632 918 l 469 846 q 463 926 469 893 q 428 985 457 960 q 340 1010 400 1010 q 251 985 281 1010 q 216 926 222 960 q 210 846 210 893 l 47 846 z "},"ō":{"ha":681,"x_min":47,"x_max":633,"o":"m 164 879 l 164 1010 l 554 1010 l 554 879 l 164 879 m 339 -18 q 123 93 199 -18 q 47 389 47 204 q 122 682 47 572 q 339 792 197 792 q 556 682 479 792 q 633 389 633 572 q 556 94 633 206 q 339 -18 479 -18 m 339 126 q 419 203 401 126 q 438 390 438 279 q 419 578 438 501 q 339 654 401 654 q 260 582 276 654 q 243 406 243 510 q 260 202 243 278 q 339 126 276 126 z "},"ǫ":{"ha":681,"x_min":47,"x_max":633,"o":"m 438 -132 q 519 -72 488 -132 l 594 -125 q 515 -224 568 -186 q 403 -261 463 -261 q 329 -240 364 -261 q 273 -186 294 -219 q 251 -117 251 -153 q 278 -12 251 -53 q 106 119 165 13 q 47 389 47 226 q 122 682 47 572 q 339 792 197 792 q 556 682 479 792 q 633 389 633 572 q 576 125 633 231 q 413 -8 519 19 q 383 -72 383 -43 q 399 -115 383 -99 q 438 -132 414 -132 m 339 654 q 260 582 276 654 q 243 406 243 510 q 260 202 243 278 q 339 126 276 126 q 419 203 401 126 q 438 390 438 279 q 419 578 438 501 q 339 654 401 654 z "},"ø":{"ha":681,"x_min":-18,"x_max":681,"o":"m 603 592 q 633 389 633 500 q 556 94 633 206 q 339 -18 479 -18 q 165 44 236 -18 l 103 -35 l -18 81 l 74 197 q 47 389 47 278 q 122 682 47 572 q 339 792 197 792 q 501 740 433 792 l 558 813 l 681 697 l 603 592 m 339 654 q 260 582 276 654 q 243 406 243 510 l 243 396 l 408 604 q 339 654 383 654 m 339 126 q 419 203 401 126 q 438 390 438 279 l 438 404 l 267 186 q 339 126 290 126 z "},"ǿ":{"ha":681,"x_min":-18,"x_max":681,"o":"m 603 592 q 633 389 633 500 q 556 94 633 206 q 339 -18 479 -18 q 165 44 236 -18 l 103 -35 l -18 81 l 74 197 q 47 389 47 278 q 122 682 47 572 q 339 792 197 792 q 501 740 433 792 l 558 813 l 681 697 l 603 592 m 339 654 q 260 582 276 654 q 243 406 243 510 l 243 396 l 408 604 q 339 654 383 654 m 339 126 q 419 203 401 126 q 438 390 438 279 l 438 404 l 267 186 q 339 126 290 126 m 363 840 l 290 910 l 471 1183 l 614 1051 l 363 840 z "},"õ":{"ha":681,"x_min":47,"x_max":633,"o":"m 339 -18 q 123 93 199 -18 q 47 389 47 204 q 122 682 47 572 q 339 792 197 792 q 556 682 479 792 q 633 389 633 572 q 556 94 633 206 q 339 -18 479 -18 m 339 126 q 419 203 401 126 q 438 390 438 279 q 419 578 438 501 q 339 654 401 654 q 260 582 276 654 q 243 406 243 510 q 260 202 243 278 q 339 126 276 126 m 429 835 q 389 843 407 835 q 342 868 371 851 q 296 894 315 886 q 253 903 276 903 q 135 835 196 903 l 125 960 q 192 1019 160 997 q 261 1042 224 1042 q 298 1035 281 1042 q 344 1015 315 1029 q 390 994 371 1001 q 429 988 408 988 q 487 1004 460 988 q 526 1042 514 1021 l 557 932 q 539 903 557 928 q 492 856 521 878 q 429 835 464 835 z "},"ȭ":{"ha":681,"x_min":47,"x_max":633,"o":"m 339 -18 q 123 93 199 -18 q 47 389 47 204 q 122 682 47 572 q 339 792 197 792 q 556 682 479 792 q 633 389 633 572 q 556 94 633 206 q 339 -18 479 -18 m 339 126 q 419 203 401 126 q 438 390 438 279 q 419 578 438 501 q 339 654 401 654 q 260 582 276 654 q 243 406 243 510 q 260 202 243 278 q 339 126 276 126 m 429 835 q 389 843 407 835 q 342 868 371 851 q 296 894 315 886 q 253 903 276 903 q 135 835 196 903 l 125 960 q 192 1019 160 997 q 261 1042 224 1042 q 298 1035 281 1042 q 344 1015 315 1029 q 390 994 371 1001 q 429 988 408 988 q 487 1004 460 988 q 526 1042 514 1021 l 557 932 q 539 903 557 928 q 492 856 521 878 q 429 835 464 835 m 144 1106 l 144 1236 l 535 1236 l 535 1106 l 144 1106 z "},"œ":{"ha":1043,"x_min":47,"x_max":1006,"o":"m 335 -18 q 123 94 199 -18 q 47 389 47 206 q 122 681 47 571 q 332 792 197 792 q 538 676 461 792 q 624 765 578 738 q 735 792 671 792 q 951 664 897 792 q 1006 408 1006 536 l 1006 364 l 632 364 q 656 200 632 275 q 726 125 679 125 q 808 187 781 125 q 836 253 835 249 l 983 197 q 891 40 956 99 q 726 -18 826 -18 q 619 8 664 -18 q 536 89 575 33 q 335 -18 461 -18 m 818 476 q 797 607 818 557 q 733 657 775 657 q 660 604 689 657 q 632 476 632 551 l 818 476 m 339 126 q 419 203 401 126 q 438 390 438 279 q 419 578 438 501 q 339 654 401 654 q 260 580 279 654 q 242 392 242 506 q 260 199 242 272 q 339 126 279 126 z "},"p":{"ha":701,"x_min":85,"x_max":651,"o":"m 85 765 l 279 782 l 279 706 q 365 772 325 751 q 457 792 404 792 q 572 751 529 792 q 633 626 614 711 q 651 397 651 540 q 606 92 651 201 q 433 -18 561 -18 q 340 4 375 -18 q 279 67 306 26 l 279 -204 l 85 -243 l 85 765 m 364 131 q 433 185 410 131 q 456 389 456 239 q 433 592 456 532 q 363 651 410 651 q 279 597 314 651 l 279 193 q 364 131 307 131 z "},"þ":{"ha":710,"x_min":85,"x_max":658,"o":"m 85 1017 l 279 1042 l 279 706 q 365 772 325 751 q 457 792 404 792 q 576 751 532 792 q 639 626 619 711 q 658 399 658 540 q 612 92 658 203 q 435 -18 565 -18 q 340 4 375 -18 q 279 67 306 26 l 279 -204 l 85 -243 l 85 1017 m 365 131 q 438 185 413 131 q 463 389 463 240 q 438 591 463 531 q 364 651 414 651 q 279 597 314 651 l 279 193 q 365 131 307 131 z "},"q":{"ha":688,"x_min":50,"x_max":604,"o":"m 408 67 q 347 5 383 28 q 257 -18 311 -18 q 119 47 165 -18 q 62 195 74 111 q 50 378 50 279 q 63 578 50 490 q 121 728 75 665 q 258 792 167 792 q 346 769 310 792 q 408 706 382 746 l 415 765 l 604 782 l 604 -218 l 408 -243 l 408 67 m 326 131 q 376 149 356 131 q 408 193 396 167 l 408 597 q 376 638 393 624 q 336 651 360 651 q 268 590 290 651 q 246 382 246 529 q 266 183 246 236 q 326 131 286 131 z "},"r":{"ha":561,"x_min":85,"x_max":540,"o":"m 85 765 l 279 782 l 279 656 q 383 752 321 715 q 540 789 444 789 l 540 599 q 409 581 490 599 q 279 521 328 564 l 279 8 l 85 -8 l 85 765 z "},"ŕ":{"ha":561,"x_min":85,"x_max":554,"o":"m 85 765 l 279 782 l 279 656 q 383 752 321 715 q 540 789 444 789 l 540 599 q 409 581 490 599 q 279 521 328 564 l 279 8 l 85 -8 l 85 765 m 303 840 l 231 910 l 411 1183 l 554 1051 l 303 840 z "},"ř":{"ha":561,"x_min":53,"x_max":540,"o":"m 85 765 l 279 782 l 279 656 q 383 752 321 715 q 540 789 444 789 l 540 599 q 409 581 490 599 q 279 521 328 564 l 279 8 l 85 -8 l 85 765 m 215 846 l 53 1172 l 194 1172 l 274 975 l 339 1172 l 508 1172 l 351 846 l 215 846 z "},"ŗ":{"ha":561,"x_min":79,"x_max":540,"o":"m 85 765 l 279 782 l 279 656 q 383 752 321 715 q 540 789 444 789 l 540 599 q 409 581 490 599 q 279 521 328 564 l 279 8 l 85 -8 l 85 765 m 113 -331 q 169 -297 153 -331 q 178 -265 175 -285 l 79 -265 l 79 -69 l 275 -69 l 275 -265 q 252 -374 275 -332 q 193 -436 229 -415 q 113 -461 157 -457 l 113 -331 z "},"ȑ":{"ha":561,"x_min":-94,"x_max":540,"o":"m 85 765 l 279 782 l 279 656 q 383 752 321 715 q 540 789 444 789 l 540 599 q 409 581 490 599 q 279 521 328 564 l 279 8 l 85 -8 l 85 765 m 422 847 l 224 1158 l 407 1253 l 515 896 l 422 847 m 167 846 l -94 1107 l 64 1239 l 247 913 l 167 846 z "},"ȓ":{"ha":561,"x_min":-12,"x_max":572,"o":"m 85 765 l 279 782 l 279 656 q 383 752 321 715 q 540 789 444 789 l 540 599 q 409 581 490 599 q 279 521 328 564 l 279 8 l 85 -8 l 85 765 m -12 846 q 15 993 -12 918 q 109 1120 43 1068 q 281 1172 175 1172 q 451 1120 386 1172 q 544 993 517 1068 q 572 846 572 918 l 410 846 q 403 926 410 893 q 369 985 397 960 q 281 1010 340 1010 q 192 985 221 1010 q 156 926 163 960 q 150 846 150 893 l -12 846 z "},"s":{"ha":626,"x_min":40,"x_max":590,"o":"m 318 -18 q 132 34 203 -18 q 40 179 61 86 l 192 229 q 213 182 197 203 q 306 136 244 136 q 372 151 340 136 q 404 199 404 167 q 344 265 404 242 l 181 332 q 81 415 115 360 q 46 551 46 471 q 83 681 46 626 q 180 763 119 735 q 310 792 240 792 q 471 741 397 792 q 569 603 544 690 l 408 553 q 389 600 403 576 q 311 647 358 647 q 251 631 276 647 q 226 585 226 615 q 294 518 226 549 l 433 461 q 549 374 507 426 q 590 232 590 321 q 551 95 590 151 q 450 10 513 39 q 318 -18 388 -18 z "},"ś":{"ha":626,"x_min":40,"x_max":590,"o":"m 318 -18 q 132 34 203 -18 q 40 179 61 86 l 192 229 q 213 182 197 203 q 306 136 244 136 q 372 151 340 136 q 404 199 404 167 q 344 265 404 242 l 181 332 q 81 415 115 360 q 46 551 46 471 q 83 681 46 626 q 180 763 119 735 q 310 792 240 792 q 471 741 397 792 q 569 603 544 690 l 408 553 q 389 600 403 576 q 311 647 358 647 q 251 631 276 647 q 226 585 226 615 q 294 518 226 549 l 433 461 q 549 374 507 426 q 590 232 590 321 q 551 95 590 151 q 450 10 513 39 q 318 -18 388 -18 m 336 840 l 264 910 l 444 1183 l 588 1051 l 336 840 z "},"š":{"ha":626,"x_min":40,"x_max":590,"o":"m 318 -18 q 132 34 203 -18 q 40 179 61 86 l 192 229 q 213 182 197 203 q 306 136 244 136 q 372 151 340 136 q 404 199 404 167 q 344 265 404 242 l 181 332 q 81 415 115 360 q 46 551 46 471 q 83 681 46 626 q 180 763 119 735 q 310 792 240 792 q 471 741 397 792 q 569 603 544 690 l 408 553 q 389 600 403 576 q 311 647 358 647 q 251 631 276 647 q 226 585 226 615 q 294 518 226 549 l 433 461 q 549 374 507 426 q 590 232 590 321 q 551 95 590 151 q 450 10 513 39 q 318 -18 388 -18 m 249 846 l 86 1172 l 228 1172 l 307 975 l 372 1172 l 542 1172 l 385 846 l 249 846 z "},"ş":{"ha":626,"x_min":40,"x_max":590,"o":"m 590 232 q 522 60 590 124 q 356 -15 454 -4 l 347 -51 q 476 -134 446 -79 q 507 -229 507 -189 q 465 -341 507 -306 q 360 -376 424 -376 q 274 -365 317 -376 q 204 -333 232 -353 l 204 -222 q 301 -246 257 -246 q 351 -232 335 -246 q 367 -196 367 -218 q 333 -140 367 -165 q 238 -115 300 -115 l 256 -14 q 113 49 167 0 q 40 179 58 99 l 192 229 q 213 182 197 203 q 306 136 244 136 q 372 151 340 136 q 404 199 404 167 q 344 265 404 242 l 181 332 q 81 415 115 360 q 46 551 46 471 q 83 681 46 626 q 180 763 119 735 q 310 792 240 792 q 471 741 397 792 q 569 603 544 690 l 408 553 q 389 600 403 576 q 311 647 358 647 q 251 631 276 647 q 226 585 226 615 q 294 518 226 549 l 433 461 q 549 374 507 426 q 590 232 590 321 z "},"ŝ":{"ha":626,"x_min":40,"x_max":590,"o":"m 318 -18 q 132 34 203 -18 q 40 179 61 86 l 192 229 q 213 182 197 203 q 306 136 244 136 q 372 151 340 136 q 404 199 404 167 q 344 265 404 242 l 181 332 q 81 415 115 360 q 46 551 46 471 q 83 681 46 626 q 180 763 119 735 q 310 792 240 792 q 471 741 397 792 q 569 603 544 690 l 408 553 q 389 600 403 576 q 311 647 358 647 q 251 631 276 647 q 226 585 226 615 q 294 518 226 549 l 433 461 q 549 374 507 426 q 590 232 590 321 q 551 95 590 151 q 450 10 513 39 q 318 -18 388 -18 m 86 846 l 249 1172 l 385 1172 l 542 846 l 372 846 l 307 1043 l 228 846 l 86 846 z "},"ș":{"ha":626,"x_min":40,"x_max":590,"o":"m 318 -18 q 132 34 203 -18 q 40 179 61 86 l 192 229 q 213 182 197 203 q 306 136 244 136 q 372 151 340 136 q 404 199 404 167 q 344 265 404 242 l 181 332 q 81 415 115 360 q 46 551 46 471 q 83 681 46 626 q 180 763 119 735 q 310 792 240 792 q 471 741 397 792 q 569 603 544 690 l 408 553 q 389 600 403 576 q 311 647 358 647 q 251 631 276 647 q 226 585 226 615 q 294 518 226 549 l 433 461 q 549 374 507 426 q 590 232 590 321 q 551 95 590 151 q 450 10 513 39 q 318 -18 388 -18 m 251 -328 q 308 -294 292 -328 q 317 -262 314 -282 l 218 -262 l 218 -67 l 414 -67 l 414 -262 q 391 -371 414 -329 q 332 -433 368 -412 q 251 -458 296 -454 l 251 -328 z "},"ṣ":{"ha":626,"x_min":40,"x_max":590,"o":"m 318 -18 q 132 34 203 -18 q 40 179 61 86 l 192 229 q 213 182 197 203 q 306 136 244 136 q 372 151 340 136 q 404 199 404 167 q 344 265 404 242 l 181 332 q 81 415 115 360 q 46 551 46 471 q 83 681 46 626 q 180 763 119 735 q 310 792 240 792 q 471 741 397 792 q 569 603 544 690 l 408 553 q 389 600 403 576 q 311 647 358 647 q 251 631 276 647 q 226 585 226 615 q 294 518 226 549 l 433 461 q 549 374 507 426 q 590 232 590 321 q 551 95 590 151 q 450 10 513 39 q 318 -18 388 -18 m 215 -306 l 215 -110 l 411 -110 l 411 -306 l 215 -306 z "},"ß":{"ha":793,"x_min":85,"x_max":764,"o":"m 85 717 q 178 992 85 921 q 388 1064 272 1064 q 541 1031 475 1064 q 642 940 607 999 q 678 807 678 882 q 649 690 678 744 q 551 590 621 636 q 708 494 653 556 q 764 317 764 432 q 652 78 764 150 q 367 1 540 7 l 367 143 q 478 168 433 143 q 545 232 524 193 q 567 314 567 271 q 543 403 567 358 q 476 476 519 447 q 374 504 432 504 l 374 617 q 476 688 442 640 q 510 789 510 736 q 481 875 510 838 q 396 913 451 913 q 313 875 344 913 q 281 753 281 838 l 281 0 l 85 -17 l 85 717 z "},"t":{"ha":500,"x_min":18,"x_max":482,"o":"m 351 -15 q 192 33 257 -15 q 126 203 126 81 l 126 635 l 18 635 l 26 782 l 132 782 l 151 951 l 321 975 l 321 782 l 482 782 l 474 635 l 322 635 l 322 204 q 343 144 322 163 q 404 126 364 126 q 479 135 426 126 l 479 0 q 435 -8 474 -1 q 351 -15 397 -15 z "},"ŧ":{"ha":497,"x_min":18,"x_max":482,"o":"m 322 204 q 343 144 322 163 q 404 126 364 126 q 479 135 426 126 l 479 0 q 435 -8 474 -1 q 351 -15 397 -15 q 192 33 257 -15 q 126 203 126 81 l 126 392 l 39 392 l 39 521 l 126 521 l 126 635 l 18 635 l 26 782 l 132 782 l 151 951 l 321 975 l 321 782 l 482 782 l 474 635 l 322 635 l 322 521 l 431 521 l 431 392 l 322 392 l 322 204 z "},"ť":{"ha":500,"x_min":18,"x_max":482,"o":"m 351 -15 q 192 33 257 -15 q 126 203 126 81 l 126 635 l 18 635 l 26 782 l 132 782 l 151 951 l 321 975 l 321 782 l 482 782 l 474 635 l 322 635 l 322 204 q 343 144 322 163 q 404 126 364 126 q 479 135 426 126 l 479 0 q 435 -8 474 -1 q 351 -15 397 -15 m 243 -328 q 300 -294 283 -328 q 308 -262 306 -282 l 210 -262 l 210 -67 l 406 -67 l 406 -262 q 383 -371 406 -329 q 324 -433 360 -412 q 243 -458 288 -454 l 243 -328 z "},"ţ":{"ha":500,"x_min":18,"x_max":525,"o":"m 365 -51 q 494 -134 464 -79 q 525 -229 525 -189 q 483 -341 525 -306 q 378 -376 442 -376 q 292 -365 335 -376 q 222 -333 250 -353 l 222 -222 q 319 -246 275 -246 q 369 -232 353 -246 q 385 -196 385 -218 q 351 -140 385 -165 q 256 -115 318 -115 l 275 -7 q 167 58 208 8 q 126 203 126 108 l 126 635 l 18 635 l 26 782 l 132 782 l 151 951 l 321 975 l 321 782 l 482 782 l 474 635 l 322 635 l 322 204 q 343 144 322 163 q 404 126 364 126 q 479 135 426 126 l 479 0 q 374 -15 415 -12 l 365 -51 z "},"ț":{"ha":500,"x_min":18,"x_max":482,"o":"m 351 -15 q 192 33 257 -15 q 126 203 126 81 l 126 635 l 18 635 l 26 782 l 132 782 l 151 951 l 321 975 l 321 782 l 482 782 l 474 635 l 322 635 l 322 204 q 343 144 322 163 q 404 126 364 126 q 479 135 426 126 l 479 0 q 435 -8 474 -1 q 351 -15 397 -15 m 243 -328 q 300 -294 283 -328 q 308 -262 306 -282 l 210 -262 l 210 -67 l 406 -67 l 406 -262 q 383 -371 406 -329 q 324 -433 360 -412 q 243 -458 288 -454 l 243 -328 z "},"u":{"ha":749,"x_min":79,"x_max":665,"o":"m 253 -18 q 128 35 176 -18 q 79 179 79 89 l 79 765 l 274 782 l 274 258 q 292 178 274 203 q 347 154 310 154 q 410 169 376 154 q 469 215 443 183 l 469 765 l 665 782 l 665 8 l 469 -8 l 469 92 q 363 9 421 36 q 253 -18 306 -18 z "},"ú":{"ha":749,"x_min":79,"x_max":665,"o":"m 253 -18 q 128 35 176 -18 q 79 179 79 89 l 79 765 l 274 782 l 274 258 q 292 178 274 203 q 347 154 310 154 q 410 169 376 154 q 469 215 443 183 l 469 765 l 665 782 l 665 8 l 469 -8 l 469 92 q 363 9 421 36 q 253 -18 306 -18 m 397 840 l 325 910 l 506 1183 l 649 1051 l 397 840 z "},"ŭ":{"ha":749,"x_min":79,"x_max":665,"o":"m 253 -18 q 128 35 176 -18 q 79 179 79 89 l 79 765 l 274 782 l 274 258 q 292 178 274 203 q 347 154 310 154 q 410 169 376 154 q 469 215 443 183 l 469 765 l 665 782 l 665 8 l 469 -8 l 469 92 q 363 9 421 36 q 253 -18 306 -18 m 378 869 q 228 924 279 869 q 168 1072 178 979 l 285 1072 q 293 1044 286 1068 q 320 1009 300 1021 q 375 997 340 997 q 427 1008 410 997 q 449 1030 444 1018 q 464 1072 454 1042 l 581 1072 q 521 925 571 981 q 378 869 471 869 z "},"ǔ":{"ha":749,"x_min":79,"x_max":665,"o":"m 253 -18 q 128 35 176 -18 q 79 179 79 89 l 79 765 l 274 782 l 274 258 q 292 178 274 203 q 347 154 310 154 q 410 169 376 154 q 469 215 443 183 l 469 765 l 665 782 l 665 8 l 469 -8 l 469 92 q 363 9 421 36 q 253 -18 306 -18 m 310 846 l 147 1172 l 289 1172 l 368 975 l 433 1172 l 603 1172 l 446 846 l 310 846 z "},"û":{"ha":749,"x_min":79,"x_max":665,"o":"m 253 -18 q 128 35 176 -18 q 79 179 79 89 l 79 765 l 274 782 l 274 258 q 292 178 274 203 q 347 154 310 154 q 410 169 376 154 q 469 215 443 183 l 469 765 l 665 782 l 665 8 l 469 -8 l 469 92 q 363 9 421 36 q 253 -18 306 -18 m 147 846 l 310 1172 l 446 1172 l 603 846 l 433 846 l 368 1043 l 289 846 l 147 846 z "},"ȕ":{"ha":749,"x_min":0,"x_max":665,"o":"m 253 -18 q 128 35 176 -18 q 79 179 79 89 l 79 765 l 274 782 l 274 258 q 292 178 274 203 q 347 154 310 154 q 410 169 376 154 q 469 215 443 183 l 469 765 l 665 782 l 665 8 l 469 -8 l 469 92 q 363 9 421 36 q 253 -18 306 -18 m 517 847 l 318 1158 l 501 1253 l 610 896 l 517 847 m 261 846 l 0 1107 l 158 1239 l 342 913 l 261 846 z "},"ü":{"ha":749,"x_min":79,"x_max":665,"o":"m 253 -18 q 128 35 176 -18 q 79 179 79 89 l 79 765 l 274 782 l 274 258 q 292 178 274 203 q 347 154 310 154 q 410 169 376 154 q 469 215 443 183 l 469 765 l 665 782 l 665 8 l 469 -8 l 469 92 q 363 9 421 36 q 253 -18 306 -18 m 114 874 l 114 1069 l 310 1069 l 310 874 l 114 874 m 439 874 l 439 1069 l 635 1069 l 635 874 l 439 874 z "},"ụ":{"ha":749,"x_min":79,"x_max":665,"o":"m 253 -18 q 128 35 176 -18 q 79 179 79 89 l 79 765 l 274 782 l 274 258 q 292 178 274 203 q 347 154 310 154 q 410 169 376 154 q 469 215 443 183 l 469 765 l 665 782 l 665 8 l 469 -8 l 469 92 q 363 9 421 36 q 253 -18 306 -18 m 276 -306 l 276 -110 l 472 -110 l 472 -306 l 276 -306 z "},"ù":{"ha":749,"x_min":79,"x_max":665,"o":"m 253 -18 q 128 35 176 -18 q 79 179 79 89 l 79 765 l 274 782 l 274 258 q 292 178 274 203 q 347 154 310 154 q 410 169 376 154 q 469 215 443 183 l 469 765 l 665 782 l 665 8 l 469 -8 l 469 92 q 363 9 421 36 q 253 -18 306 -18 m 399 840 l 147 1051 l 290 1183 l 471 910 l 399 840 z "},"ủ":{"ha":749,"x_min":79,"x_max":665,"o":"m 253 -18 q 128 35 176 -18 q 79 179 79 89 l 79 765 l 274 782 l 274 258 q 292 178 274 203 q 347 154 310 154 q 410 169 376 154 q 469 215 443 183 l 469 765 l 665 782 l 665 8 l 469 -8 l 469 92 q 363 9 421 36 q 253 -18 306 -18 m 300 838 q 299 853 299 843 q 318 914 299 889 q 371 967 338 939 q 400 993 390 982 q 410 1014 410 1004 q 376 1046 410 1046 q 328 993 335 1046 l 203 996 q 227 1071 204 1035 q 290 1130 250 1107 q 381 1153 331 1153 q 502 1115 457 1153 q 547 1014 547 1076 q 529 956 547 978 q 475 908 511 935 q 434 874 447 889 q 421 839 421 860 l 421 838 l 300 838 z "},"ư":{"ha":854,"x_min":79,"x_max":896,"o":"m 846 818 q 881 760 865 792 q 896 681 896 728 q 866 576 896 622 q 788 503 836 529 q 688 476 740 476 q 665 478 672 476 l 665 8 l 469 -8 l 469 92 q 363 9 421 36 q 253 -18 306 -18 q 128 35 176 -18 q 79 179 79 89 l 79 765 l 274 782 l 274 258 q 292 178 274 203 q 347 154 310 154 q 410 169 376 154 q 469 215 443 183 l 469 765 l 665 782 l 665 594 q 725 612 704 592 q 746 658 746 632 q 735 711 746 682 q 708 767 724 740 l 846 818 z "},"ứ":{"ha":854,"x_min":79,"x_max":896,"o":"m 846 818 q 881 760 865 792 q 896 681 896 728 q 866 576 896 622 q 788 503 836 529 q 688 476 740 476 q 665 478 672 476 l 665 8 l 469 -8 l 469 92 q 363 9 421 36 q 253 -18 306 -18 q 128 35 176 -18 q 79 179 79 89 l 79 765 l 274 782 l 274 258 q 292 178 274 203 q 347 154 310 154 q 410 169 376 154 q 469 215 443 183 l 469 765 l 665 782 l 665 594 q 725 612 704 592 q 746 658 746 632 q 735 711 746 682 q 708 767 724 740 l 846 818 m 397 840 l 325 910 l 506 1183 l 649 1051 l 397 840 z "},"ự":{"ha":854,"x_min":79,"x_max":896,"o":"m 846 818 q 881 760 865 792 q 896 681 896 728 q 866 576 896 622 q 788 503 836 529 q 688 476 740 476 q 665 478 672 476 l 665 8 l 469 -8 l 469 92 q 363 9 421 36 q 253 -18 306 -18 q 128 35 176 -18 q 79 179 79 89 l 79 765 l 274 782 l 274 258 q 292 178 274 203 q 347 154 310 154 q 410 169 376 154 q 469 215 443 183 l 469 765 l 665 782 l 665 594 q 725 612 704 592 q 746 658 746 632 q 735 711 746 682 q 708 767 724 740 l 846 818 m 276 -306 l 276 -110 l 472 -110 l 472 -306 l 276 -306 z "},"ừ":{"ha":854,"x_min":79,"x_max":896,"o":"m 846 818 q 881 760 865 792 q 896 681 896 728 q 866 576 896 622 q 788 503 836 529 q 688 476 740 476 q 665 478 672 476 l 665 8 l 469 -8 l 469 92 q 363 9 421 36 q 253 -18 306 -18 q 128 35 176 -18 q 79 179 79 89 l 79 765 l 274 782 l 274 258 q 292 178 274 203 q 347 154 310 154 q 410 169 376 154 q 469 215 443 183 l 469 765 l 665 782 l 665 594 q 725 612 704 592 q 746 658 746 632 q 735 711 746 682 q 708 767 724 740 l 846 818 m 399 840 l 147 1051 l 290 1183 l 471 910 l 399 840 z "},"ử":{"ha":854,"x_min":79,"x_max":896,"o":"m 846 818 q 881 760 865 792 q 896 681 896 728 q 866 576 896 622 q 788 503 836 529 q 688 476 740 476 q 665 478 672 476 l 665 8 l 469 -8 l 469 92 q 363 9 421 36 q 253 -18 306 -18 q 128 35 176 -18 q 79 179 79 89 l 79 765 l 274 782 l 274 258 q 292 178 274 203 q 347 154 310 154 q 410 169 376 154 q 469 215 443 183 l 469 765 l 665 782 l 665 594 q 725 612 704 592 q 746 658 746 632 q 735 711 746 682 q 708 767 724 740 l 846 818 m 300 838 q 299 853 299 843 q 318 914 299 889 q 371 967 338 939 q 400 993 390 982 q 410 1014 410 1004 q 376 1046 410 1046 q 328 993 335 1046 l 203 996 q 227 1071 204 1035 q 290 1130 250 1107 q 381 1153 331 1153 q 502 1115 457 1153 q 547 1014 547 1076 q 529 956 547 978 q 475 908 511 935 q 434 874 447 889 q 421 839 421 860 l 421 838 l 300 838 z "},"ữ":{"ha":854,"x_min":79,"x_max":896,"o":"m 846 818 q 881 760 865 792 q 896 681 896 728 q 866 576 896 622 q 788 503 836 529 q 688 476 740 476 q 665 478 672 476 l 665 8 l 469 -8 l 469 92 q 363 9 421 36 q 253 -18 306 -18 q 128 35 176 -18 q 79 179 79 89 l 79 765 l 274 782 l 274 258 q 292 178 274 203 q 347 154 310 154 q 410 169 376 154 q 469 215 443 183 l 469 765 l 665 782 l 665 594 q 725 612 704 592 q 746 658 746 632 q 735 711 746 682 q 708 767 724 740 l 846 818 m 464 835 q 424 843 442 835 q 376 868 406 851 q 331 894 350 886 q 288 903 311 903 q 169 835 231 903 l 160 960 q 226 1019 194 997 q 296 1042 258 1042 q 333 1035 315 1042 q 379 1015 350 1029 q 424 994 406 1001 q 464 988 443 988 q 522 1004 494 988 q 561 1042 549 1021 l 592 932 q 574 903 592 928 q 527 856 556 878 q 464 835 499 835 z "},"ű":{"ha":749,"x_min":79,"x_max":842,"o":"m 253 -18 q 128 35 176 -18 q 79 179 79 89 l 79 765 l 274 782 l 274 258 q 292 178 274 203 q 347 154 310 154 q 410 169 376 154 q 469 215 443 183 l 469 765 l 665 782 l 665 8 l 469 -8 l 469 92 q 363 9 421 36 q 253 -18 306 -18 m 240 861 l 160 926 l 342 1253 l 500 1121 l 240 861 m 581 861 l 500 926 l 683 1253 l 842 1121 l 581 861 z "},"ȗ":{"ha":749,"x_min":79,"x_max":667,"o":"m 253 -18 q 128 35 176 -18 q 79 179 79 89 l 79 765 l 274 782 l 274 258 q 292 178 274 203 q 347 154 310 154 q 410 169 376 154 q 469 215 443 183 l 469 765 l 665 782 l 665 8 l 469 -8 l 469 92 q 363 9 421 36 q 253 -18 306 -18 m 82 846 q 110 993 82 918 q 203 1120 138 1068 q 375 1172 269 1172 q 546 1120 481 1172 q 639 993 611 1068 q 667 846 667 918 l 504 846 q 498 926 504 893 q 463 985 492 960 q 375 1010 435 1010 q 286 985 315 1010 q 251 926 257 960 q 244 846 244 893 l 82 846 z "},"ū":{"ha":749,"x_min":79,"x_max":665,"o":"m 253 -18 q 128 35 176 -18 q 79 179 79 89 l 79 765 l 274 782 l 274 258 q 292 178 274 203 q 347 154 310 154 q 410 169 376 154 q 469 215 443 183 l 469 765 l 665 782 l 665 8 l 469 -8 l 469 92 q 363 9 421 36 q 253 -18 306 -18 m 179 846 l 179 976 l 569 976 l 569 846 l 179 846 z "},"ų":{"ha":749,"x_min":79,"x_max":736,"o":"m 736 -125 q 657 -224 710 -186 q 544 -261 604 -261 q 471 -240 506 -261 q 415 -186 436 -219 q 393 -117 393 -153 q 469 43 393 -14 l 469 92 q 363 9 421 36 q 253 -18 306 -18 q 128 35 176 -18 q 79 179 79 89 l 79 765 l 274 782 l 274 258 q 292 178 274 203 q 347 154 310 154 q 410 169 376 154 q 469 215 443 183 l 469 765 l 665 782 l 665 8 l 563 0 q 525 -72 525 -37 q 540 -115 525 -99 q 579 -132 556 -132 q 661 -72 629 -132 l 736 -125 z "},"ů":{"ha":749,"x_min":79,"x_max":665,"o":"m 253 -18 q 128 35 176 -18 q 79 179 79 89 l 79 765 l 274 782 l 274 258 q 292 178 274 203 q 347 154 310 154 q 410 169 376 154 q 469 215 443 183 l 469 765 l 665 782 l 665 8 l 469 -8 l 469 92 q 363 9 421 36 q 253 -18 306 -18 m 375 846 q 226 894 289 846 q 163 1031 163 943 q 225 1167 163 1118 q 375 1215 288 1215 q 524 1167 461 1215 q 586 1031 586 1119 q 556 930 586 972 q 478 867 526 888 q 375 846 429 846 m 374 954 q 433 974 407 954 q 458 1031 458 994 q 433 1085 458 1065 q 374 1106 407 1106 q 315 1085 340 1106 q 290 1031 290 1065 q 315 975 290 996 q 374 954 340 954 z "},"ũ":{"ha":749,"x_min":79,"x_max":665,"o":"m 253 -18 q 128 35 176 -18 q 79 179 79 89 l 79 765 l 274 782 l 274 258 q 292 178 274 203 q 347 154 310 154 q 410 169 376 154 q 469 215 443 183 l 469 765 l 665 782 l 665 8 l 469 -8 l 469 92 q 363 9 421 36 q 253 -18 306 -18 m 464 835 q 424 843 442 835 q 376 868 406 851 q 331 894 350 886 q 288 903 311 903 q 169 835 231 903 l 160 960 q 226 1019 194 997 q 296 1042 258 1042 q 333 1035 315 1042 q 379 1015 350 1029 q 424 994 406 1001 q 464 988 443 988 q 522 1004 494 988 q 561 1042 549 1021 l 592 932 q 574 903 592 928 q 527 856 556 878 q 464 835 499 835 z "},"v":{"ha":632,"x_min":6,"x_max":626,"o":"m 224 0 l 6 765 l 239 782 l 338 282 l 450 757 l 626 774 l 403 0 l 224 0 z "},"w":{"ha":892,"x_min":25,"x_max":879,"o":"m 185 0 l 25 767 l 224 782 l 290 339 l 389 765 l 551 782 l 636 344 l 721 765 l 879 774 l 700 0 l 543 0 l 454 507 l 344 0 l 185 0 z "},"ẃ":{"ha":892,"x_min":25,"x_max":879,"o":"m 185 0 l 25 767 l 224 782 l 290 339 l 389 765 l 551 782 l 636 344 l 721 765 l 879 774 l 700 0 l 543 0 l 454 507 l 344 0 l 185 0 m 468 840 l 396 910 l 576 1183 l 719 1051 l 468 840 z "},"ŵ":{"ha":892,"x_min":25,"x_max":879,"o":"m 185 0 l 25 767 l 224 782 l 290 339 l 389 765 l 551 782 l 636 344 l 721 765 l 879 774 l 700 0 l 543 0 l 454 507 l 344 0 l 185 0 m 218 846 l 381 1172 l 517 1172 l 674 846 l 504 846 l 439 1043 l 360 846 l 218 846 z "},"ẅ":{"ha":892,"x_min":25,"x_max":879,"o":"m 185 0 l 25 767 l 224 782 l 290 339 l 389 765 l 551 782 l 636 344 l 721 765 l 879 774 l 700 0 l 543 0 l 454 507 l 344 0 l 185 0 m 185 874 l 185 1069 l 381 1069 l 381 874 l 185 874 m 510 874 l 510 1069 l 706 1069 l 706 874 l 510 874 z "},"ẁ":{"ha":892,"x_min":25,"x_max":879,"o":"m 185 0 l 25 767 l 224 782 l 290 339 l 389 765 l 551 782 l 636 344 l 721 765 l 879 774 l 700 0 l 543 0 l 454 507 l 344 0 l 185 0 m 469 840 l 218 1051 l 361 1183 l 542 910 l 469 840 z "},"x":{"ha":638,"x_min":7,"x_max":642,"o":"m 428 -8 l 313 231 l 193 0 l 7 0 l 218 393 l 14 782 l 228 782 l 321 590 l 421 782 l 606 782 l 417 431 l 642 8 l 428 -8 z "},"y":{"ha":611,"x_min":1,"x_max":603,"o":"m 103 -247 q 21 -239 69 -247 l 21 -76 q 103 -79 72 -79 q 225 35 225 -79 l 225 74 l 1 772 l 213 782 l 322 292 l 426 778 l 603 779 l 403 14 q 281 -192 361 -136 q 103 -247 201 -247 z "},"ý":{"ha":611,"x_min":1,"x_max":603,"o":"m 103 -247 q 21 -239 69 -247 l 21 -76 q 103 -79 72 -79 q 225 35 225 -79 l 225 74 l 1 772 l 213 782 l 322 292 l 426 778 l 603 779 l 403 14 q 281 -192 361 -136 q 103 -247 201 -247 m 328 840 l 256 910 l 436 1183 l 579 1051 l 328 840 z "},"ŷ":{"ha":611,"x_min":1,"x_max":603,"o":"m 103 -247 q 21 -239 69 -247 l 21 -76 q 103 -79 72 -79 q 225 35 225 -79 l 225 74 l 1 772 l 213 782 l 322 292 l 426 778 l 603 779 l 403 14 q 281 -192 361 -136 q 103 -247 201 -247 m 78 846 l 240 1172 l 376 1172 l 533 846 l 364 846 l 299 1043 l 219 846 l 78 846 z "},"ÿ":{"ha":611,"x_min":1,"x_max":603,"o":"m 103 -247 q 21 -239 69 -247 l 21 -76 q 103 -79 72 -79 q 225 35 225 -79 l 225 74 l 1 772 l 213 782 l 322 292 l 426 778 l 603 779 l 403 14 q 281 -192 361 -136 q 103 -247 201 -247 m 44 874 l 44 1069 l 240 1069 l 240 874 l 44 874 m 369 874 l 369 1069 l 565 1069 l 565 874 l 369 874 z "},"ỵ":{"ha":611,"x_min":1,"x_max":625,"o":"m 103 -247 q 21 -239 69 -247 l 21 -76 q 103 -79 72 -79 q 225 35 225 -79 l 225 74 l 1 772 l 213 782 l 322 292 l 426 778 l 603 779 l 403 14 q 281 -192 361 -136 q 103 -247 201 -247 m 429 -237 l 429 -42 l 625 -42 l 625 -237 l 429 -237 z "},"ỳ":{"ha":611,"x_min":1,"x_max":603,"o":"m 103 -247 q 21 -239 69 -247 l 21 -76 q 103 -79 72 -79 q 225 35 225 -79 l 225 74 l 1 772 l 213 782 l 322 292 l 426 778 l 603 779 l 403 14 q 281 -192 361 -136 q 103 -247 201 -247 m 329 840 l 78 1051 l 221 1183 l 401 910 l 329 840 z "},"ỷ":{"ha":611,"x_min":1,"x_max":603,"o":"m 103 -247 q 21 -239 69 -247 l 21 -76 q 103 -79 72 -79 q 225 35 225 -79 l 225 74 l 1 772 l 213 782 l 322 292 l 426 778 l 603 779 l 403 14 q 281 -192 361 -136 q 103 -247 201 -247 m 231 838 q 229 853 229 843 q 249 914 229 889 q 301 967 268 939 q 331 993 321 982 q 340 1014 340 1004 q 307 1046 340 1046 q 258 993 265 1046 l 133 996 q 158 1071 135 1035 q 221 1130 181 1107 q 311 1153 261 1153 q 433 1115 388 1153 q 478 1014 478 1076 q 460 956 478 978 q 406 908 442 935 q 365 874 378 889 q 351 839 351 860 l 351 838 l 231 838 z "},"ȳ":{"ha":611,"x_min":1,"x_max":603,"o":"m 103 -247 q 21 -239 69 -247 l 21 -76 q 103 -79 72 -79 q 225 35 225 -79 l 225 74 l 1 772 l 213 782 l 322 292 l 426 778 l 603 779 l 403 14 q 281 -192 361 -136 q 103 -247 201 -247 m 110 846 l 110 976 l 500 976 l 500 846 l 110 846 z "},"ỹ":{"ha":611,"x_min":1,"x_max":603,"o":"m 103 -247 q 21 -239 69 -247 l 21 -76 q 103 -79 72 -79 q 225 35 225 -79 l 225 74 l 1 772 l 213 782 l 322 292 l 426 778 l 603 779 l 403 14 q 281 -192 361 -136 q 103 -247 201 -247 m 394 835 q 354 843 372 835 q 307 868 336 851 q 261 894 281 886 q 218 903 242 903 q 100 835 161 903 l 90 960 q 157 1019 125 997 q 226 1042 189 1042 q 263 1035 246 1042 q 310 1015 281 1029 q 355 994 336 1001 q 394 988 374 988 q 452 1004 425 988 q 492 1042 479 1021 l 522 932 q 504 903 522 928 q 458 856 486 878 q 394 835 429 835 z "},"z":{"ha":590,"x_min":61,"x_max":561,"o":"m 61 0 l 61 122 l 324 629 l 72 629 l 89 782 l 540 782 l 540 665 l 282 154 l 561 154 l 544 0 l 61 0 z "},"ź":{"ha":590,"x_min":61,"x_max":601,"o":"m 61 0 l 61 122 l 324 629 l 72 629 l 89 782 l 540 782 l 540 665 l 282 154 l 561 154 l 544 0 l 61 0 m 350 840 l 278 910 l 458 1183 l 601 1051 l 350 840 z "},"ž":{"ha":590,"x_min":61,"x_max":561,"o":"m 61 0 l 61 122 l 324 629 l 72 629 l 89 782 l 540 782 l 540 665 l 282 154 l 561 154 l 544 0 l 61 0 m 263 846 l 100 1172 l 242 1172 l 321 975 l 386 1172 l 556 1172 l 399 846 l 263 846 z "},"ż":{"ha":590,"x_min":61,"x_max":561,"o":"m 61 0 l 61 122 l 324 629 l 72 629 l 89 782 l 540 782 l 540 665 l 282 154 l 561 154 l 544 0 l 61 0 m 229 846 l 229 1042 l 425 1042 l 425 846 l 229 846 z "},"ﬁ":{"ha":872,"x_min":24,"x_max":789,"o":"m 593 874 l 593 1085 l 789 1085 l 789 882 l 593 874 m 119 622 l 24 622 l 40 782 l 119 782 l 119 796 q 130 928 119 878 q 183 1014 140 979 q 314 1049 225 1049 q 415 1039 367 1049 q 446 1028 440 1031 l 446 911 l 404 911 q 332 881 349 911 q 315 796 315 850 l 315 782 l 789 782 l 789 8 l 593 -8 l 593 621 l 315 621 l 315 8 l 119 -8 l 119 622 z "},"ﬂ":{"ha":872,"x_min":24,"x_max":789,"o":"m 119 622 l 24 622 l 40 782 l 119 782 l 119 796 q 133 927 119 878 q 204 1009 147 976 q 382 1042 261 1042 l 789 1042 l 789 8 l 593 -8 l 593 911 l 376 911 q 326 881 338 911 q 315 796 315 851 l 315 782 l 444 782 l 429 621 l 315 621 l 315 8 l 119 -8 l 119 622 z "},"ª":{"ha":525,"x_min":46,"x_max":458,"o":"m 174 460 q 82 510 118 460 q 46 635 46 560 q 300 843 46 822 q 292 922 300 894 q 257 950 285 950 q 222 931 235 950 q 206 885 210 913 l 67 910 q 131 1022 76 988 q 258 1056 185 1056 q 397 1007 351 1056 q 443 879 443 958 l 443 582 q 448 526 443 557 q 458 479 453 496 l 318 467 l 303 538 q 250 483 288 506 q 174 460 213 460 m 240 563 q 300 596 269 563 l 300 756 q 188 642 188 756 q 201 583 188 604 q 240 563 214 563 z "},"º":{"ha":644,"x_min":57,"x_max":589,"o":"m 321 522 q 126 597 194 522 q 57 796 57 672 q 125 993 57 918 q 321 1068 193 1068 q 519 993 449 1068 q 589 796 589 918 q 519 597 589 672 q 321 522 449 522 m 322 654 q 394 697 368 654 q 419 799 419 739 q 394 900 419 857 q 322 943 368 943 q 251 901 276 943 q 225 800 225 858 q 251 698 225 742 q 322 654 276 654 z "},"¹":{"ha":518,"x_min":61,"x_max":482,"o":"m 71 521 l 192 521 l 192 818 l 150 813 q 79 807 103 807 l 61 807 l 61 903 l 286 1042 l 354 1042 l 354 521 l 482 521 l 474 390 l 71 390 l 71 521 z "},"²":{"ha":569,"x_min":58,"x_max":511,"o":"m 58 508 q 132 586 92 546 q 270 743 222 678 q 318 872 318 808 q 307 917 318 900 q 276 935 296 935 q 232 888 246 935 q 221 842 226 872 l 58 896 q 140 1015 76 967 q 294 1064 204 1064 q 450 1016 389 1064 q 511 871 511 968 q 274 521 511 728 l 479 521 q 474 456 479 494 q 468 390 468 417 l 58 390 l 58 508 z "},"³":{"ha":581,"x_min":32,"x_max":511,"o":"m 264 358 q 116 398 181 358 q 32 511 51 438 l 178 554 q 206 508 188 525 q 256 490 224 490 q 306 511 286 490 q 325 561 325 532 q 288 638 325 618 q 186 658 251 658 l 186 789 q 282 807 247 789 q 317 874 317 825 q 301 918 317 900 q 258 936 285 936 q 233 928 243 936 q 213 907 222 921 q 199 878 204 892 l 58 931 q 149 1032 99 1001 q 272 1063 199 1063 q 433 1017 365 1063 q 501 892 501 972 q 375 732 501 782 q 476 669 442 710 q 511 563 511 629 q 440 413 511 467 q 264 358 369 358 z "},"⁄":{"ha":431,"x_min":46,"x_max":385,"o":"m 46 0 l 182 1042 l 385 1042 l 249 0 l 46 0 z "},"½":{"ha":1346,"x_min":44,"x_max":1311,"o":"m 53 521 l 174 521 l 174 818 l 132 813 q 61 807 85 807 l 44 807 l 44 903 l 268 1042 l 338 1042 l 338 521 l 464 521 l 456 390 l 53 390 l 53 521 m 457 0 l 718 1042 l 913 1042 l 653 0 l 457 0 m 860 117 q 938 200 885 144 q 1073 357 1028 294 q 1118 482 1118 419 q 1107 527 1118 510 q 1076 544 1096 544 q 1032 497 1049 544 q 1021 451 1026 482 l 860 506 q 940 624 876 575 q 1094 672 1003 672 q 1251 625 1190 672 q 1311 481 1311 578 q 1074 131 1311 335 l 1279 131 q 1277 93 1279 113 q 1275 65 1275 74 q 1269 0 1269 26 l 860 0 l 860 117 z "},"¼":{"ha":1350,"x_min":49,"x_max":1319,"o":"m 57 521 l 178 521 l 178 818 l 136 813 q 65 807 89 807 l 49 807 l 49 903 l 272 1042 l 342 1042 l 342 521 l 468 521 l 460 390 l 57 390 l 57 521 m 461 0 l 722 1042 l 917 1042 l 657 0 l 461 0 m 1067 -32 l 1067 131 l 801 131 l 801 244 l 1040 651 l 1235 651 l 1235 251 l 1319 251 l 1308 131 l 1235 131 l 1235 -22 l 1067 -32 m 926 251 l 1067 251 l 1067 482 l 926 251 z "},"¾":{"ha":1343,"x_min":29,"x_max":1311,"o":"m 261 358 q 113 398 178 358 q 29 511 49 438 l 175 554 q 202 508 185 525 q 253 490 219 490 q 303 511 283 490 q 322 561 322 532 q 285 638 322 618 q 182 658 249 658 l 182 789 q 278 807 243 789 q 313 874 313 825 q 297 918 313 900 q 254 936 282 936 q 210 907 228 936 q 194 878 200 894 l 54 931 q 145 1032 94 1001 q 269 1063 196 1063 q 430 1017 363 1063 q 497 892 497 972 q 371 732 497 782 q 473 669 439 710 q 507 563 507 629 q 436 413 507 468 q 261 358 365 358 m 454 0 l 714 1042 l 910 1042 l 649 0 l 454 0 m 1058 -32 l 1058 131 l 794 131 l 794 244 l 1033 651 l 1226 651 l 1226 251 l 1311 251 l 1301 131 l 1226 131 l 1226 -22 l 1058 -32 m 919 251 l 1058 251 l 1058 482 l 919 251 z "},"*":{"ha":713,"x_min":33,"x_max":679,"o":"m 247 290 l 93 404 l 271 579 l 33 617 l 88 801 l 303 699 l 268 944 l 446 944 l 411 699 l 625 801 l 679 617 l 442 579 l 619 404 l 465 290 l 357 507 l 247 290 z "},"\\":{"ha":426,"x_min":43,"x_max":382,"o":"m 179 0 l 43 1042 l 246 1042 l 382 0 l 179 0 z "},"·":{"ha":350,"x_min":78,"x_max":272,"o":"m 78 325 l 78 521 l 272 521 l 272 325 l 78 325 z "},"•":{"ha":554,"x_min":49,"x_max":506,"o":"m 282 261 q 109 324 169 261 q 49 489 49 388 q 109 653 49 590 q 282 717 169 717 q 447 653 388 717 q 506 489 506 589 q 447 324 506 388 q 282 261 388 261 z "},":":{"ha":350,"x_min":78,"x_max":272,"o":"m 78 390 l 78 586 l 272 586 l 272 390 l 78 390 m 78 -8 l 78 196 l 272 196 l 272 0 l 78 -8 z "},",":{"ha":331,"x_min":67,"x_max":263,"o":"m 100 -65 q 157 -32 140 -65 q 165 0 163 -19 l 67 0 l 67 196 l 263 196 l 263 0 q 240 -108 263 -67 q 181 -171 217 -150 q 100 -196 144 -192 l 100 -65 z "},"…":{"ha":1107,"x_min":69,"x_max":1040,"o":"m 69 -8 l 69 196 l 264 196 l 264 8 l 69 -8 m 457 -8 l 457 196 l 653 196 l 653 8 l 457 -8 m 844 -8 l 844 196 l 1040 196 l 1040 8 l 844 -8 z "},"!":{"ha":368,"x_min":86,"x_max":282,"o":"m 119 304 l 86 1042 l 282 1042 l 250 304 l 119 304 m 86 -8 l 86 203 l 282 203 l 282 0 l 86 -8 z "},"¡":{"ha":368,"x_min":86,"x_max":282,"o":"m 86 831 l 86 1042 l 282 1033 l 282 831 l 86 831 m 86 -8 l 119 729 l 250 729 l 282 -8 l 86 -8 z "},"#":{"ha":869,"x_min":43,"x_max":826,"o":"m 111 0 l 144 261 l 43 261 l 43 422 l 165 422 l 196 651 l 76 651 l 76 813 l 217 813 l 247 1042 l 450 1042 l 419 813 l 546 813 l 576 1042 l 781 1042 l 750 813 l 826 813 l 826 651 l 728 651 l 699 422 l 794 422 l 794 261 l 678 261 l 643 0 l 440 0 l 474 261 l 347 261 l 314 0 l 111 0 m 369 422 l 494 422 l 525 651 l 399 651 l 369 422 z "},".":{"ha":332,"x_min":69,"x_max":264,"o":"m 69 -8 l 69 196 l 264 196 l 264 8 l 69 -8 z "},"?":{"ha":600,"x_min":33,"x_max":567,"o":"m 132 261 q 129 328 129 285 q 148 451 129 404 q 193 523 167 499 q 263 574 219 547 q 321 615 300 597 q 356 666 342 633 q 371 750 371 699 q 292 894 371 894 q 240 858 253 894 q 219 760 226 821 l 33 768 q 70 914 36 850 q 163 1013 104 978 q 297 1049 222 1049 q 447 1005 386 1049 q 538 891 508 961 q 567 743 567 821 q 547 611 567 663 q 497 532 526 560 q 419 472 468 504 q 352 423 376 444 q 311 364 328 401 q 294 268 294 326 l 294 261 l 132 261 m 115 -8 l 115 196 l 311 196 l 311 0 l 115 -8 z "},"¿":{"ha":600,"x_min":33,"x_max":567,"o":"m 290 844 l 290 1040 l 486 1049 l 486 844 l 290 844 m 304 -8 q 154 35 215 -8 q 63 149 93 79 q 33 297 33 219 q 53 429 33 378 q 103 508 74 481 q 181 568 132 536 q 248 617 224 596 q 289 676 272 639 q 306 772 306 714 l 306 781 l 468 781 q 471 714 471 756 q 453 590 471 638 q 408 519 435 543 q 339 467 382 494 q 281 425 301 443 q 245 374 260 407 q 231 290 231 342 q 308 146 231 146 q 361 183 347 146 q 382 281 375 219 l 567 272 q 530 126 564 190 q 438 27 496 63 q 304 -8 379 -8 z "},"\"":{"ha":567,"x_min":56,"x_max":511,"o":"m 88 643 l 56 1042 l 251 1042 l 218 651 l 88 643 m 349 643 l 317 1042 l 511 1042 l 479 651 l 349 643 z "},"'":{"ha":306,"x_min":56,"x_max":251,"o":"m 88 643 l 56 1042 l 251 1042 l 218 651 l 88 643 z "},";":{"ha":350,"x_min":78,"x_max":274,"o":"m 78 390 l 78 586 l 274 586 l 274 390 l 78 390 m 111 -65 q 168 -32 151 -65 q 175 0 175 -18 l 78 -8 l 78 196 l 274 196 l 274 0 q 250 -108 274 -67 q 192 -171 226 -150 q 111 -196 156 -192 l 111 -65 z "},"/":{"ha":426,"x_min":43,"x_max":383,"o":"m 43 0 l 179 1042 l 383 1042 l 247 0 l 43 0 z "},"_":{"ha":376,"x_min":-7,"x_max":383,"o":"m -7 -161 l -7 0 l 383 0 l 383 -161 l -7 -161 z "},"{":{"ha":457,"x_min":31,"x_max":421,"o":"m 421 -58 q 224 -10 294 -58 q 124 132 153 39 q 96 374 96 225 q 85 444 96 419 q 31 469 74 469 l 31 599 q 85 624 74 599 q 96 694 96 649 q 124 924 96 835 q 224 1060 153 1014 q 421 1107 294 1107 l 421 997 q 331 965 358 997 q 297 876 303 933 q 290 694 290 819 q 284 632 290 657 q 249 581 278 607 q 161 533 221 554 q 249 488 221 514 q 284 436 278 461 q 290 374 290 411 q 297 179 290 240 q 331 85 303 118 q 421 51 358 51 l 421 -58 z "},"}":{"ha":457,"x_min":35,"x_max":426,"o":"m 361 694 q 372 624 361 649 q 426 599 383 599 l 426 469 q 372 444 383 469 q 361 374 361 419 q 333 132 361 225 q 233 -10 304 39 q 35 -58 163 -58 l 35 51 q 125 85 97 51 q 159 179 153 118 q 165 374 165 240 q 172 437 165 411 q 207 488 179 463 q 293 533 235 514 q 207 581 235 554 q 172 632 179 607 q 165 694 165 657 q 159 876 165 819 q 125 965 153 933 q 35 997 97 997 l 35 1107 q 233 1060 163 1107 q 333 924 304 1014 q 361 694 361 835 z "},"[":{"ha":469,"x_min":96,"x_max":429,"o":"m 96 -65 l 96 1107 l 429 1107 l 429 976 l 299 976 l 299 64 l 429 64 l 429 -65 l 96 -65 z "},"]":{"ha":469,"x_min":40,"x_max":375,"o":"m 40 -65 l 40 64 l 171 64 l 171 976 l 40 976 l 40 1107 l 375 1107 l 375 -65 l 40 -65 z "},"(":{"ha":463,"x_min":42,"x_max":425,"o":"m 425 -51 q 215 40 301 -40 q 85 242 128 119 q 42 506 42 365 q 86 772 42 647 q 217 976 131 897 q 425 1060 304 1056 l 425 936 q 287 794 336 919 q 238 506 238 669 q 259 301 238 397 q 323 143 281 204 q 425 76 365 82 l 425 -51 z "},")":{"ha":463,"x_min":38,"x_max":421,"o":"m 38 76 q 140 143 97 82 q 205 301 183 204 q 226 506 226 397 q 176 794 226 668 q 38 936 126 919 l 38 1060 q 245 976 158 1056 q 376 772 332 897 q 421 506 421 647 q 378 242 421 365 q 248 40 335 119 q 38 -51 161 -40 l 38 76 z "},"—":{"ha":935,"x_min":78,"x_max":858,"o":"m 78 325 l 78 488 l 858 488 l 858 325 l 78 325 z "},"–":{"ha":546,"x_min":78,"x_max":468,"o":"m 78 325 l 78 488 l 468 488 l 468 325 l 78 325 z "},"-":{"ha":546,"x_min":78,"x_max":468,"o":"m 78 325 l 78 488 l 468 488 l 468 325 l 78 325 z "},"­":{"ha":407,"x_min":8,"x_max":399,"o":"m 8 325 l 8 488 l 399 488 l 399 325 l 8 325 z "},"«":{"ha":843,"x_min":36,"x_max":782,"o":"m 381 40 l 36 297 l 36 478 l 382 742 l 374 565 l 169 411 l 390 272 l 381 40 m 772 40 l 428 297 l 428 478 l 774 742 l 764 565 l 560 411 l 782 272 l 772 40 z "},"»":{"ha":843,"x_min":63,"x_max":807,"o":"m 72 40 l 63 272 l 285 411 l 81 565 l 71 742 l 417 478 l 417 297 l 72 40 m 463 40 l 453 272 l 675 411 l 471 565 l 461 742 l 807 478 l 807 297 l 463 40 z "},"‹":{"ha":543,"x_min":36,"x_max":479,"o":"m 469 40 l 36 297 l 36 478 l 471 742 l 461 565 l 203 411 l 479 272 l 469 40 z "},"›":{"ha":543,"x_min":64,"x_max":506,"o":"m 74 40 l 64 272 l 340 411 l 82 565 l 72 742 l 506 478 l 506 297 l 74 40 z "},"„":{"ha":592,"x_min":68,"x_max":524,"o":"m 100 -65 q 157 -32 140 -65 q 165 0 165 -19 l 68 0 l 68 196 l 263 196 l 263 0 q 240 -108 263 -67 q 182 -171 217 -150 q 100 -196 147 -192 l 100 -65 m 361 -65 q 418 -32 401 -65 q 426 0 424 -19 l 328 0 l 328 196 l 524 196 l 524 0 q 501 -108 524 -67 q 442 -171 478 -150 q 361 -196 406 -192 l 361 -65 z "},"“":{"ha":582,"x_min":65,"x_max":521,"o":"m 65 846 q 146 1017 65 967 q 228 1042 183 1040 l 228 911 q 171 879 188 911 q 163 846 165 865 l 261 846 l 261 651 l 65 643 l 65 846 m 325 846 q 407 1017 325 965 q 489 1042 442 1039 l 489 911 q 432 879 446 911 q 424 846 424 865 l 521 846 l 521 651 l 325 643 l 325 846 z "},"”":{"ha":571,"x_min":58,"x_max":515,"o":"m 92 782 q 149 814 133 782 q 157 846 154 828 l 58 839 l 58 1042 l 254 1042 l 254 846 q 231 738 254 779 q 174 675 208 696 q 92 651 135 653 l 92 782 m 351 782 q 408 814 394 782 q 417 846 417 829 l 319 839 l 319 1042 l 515 1042 l 515 846 q 492 738 515 779 q 433 675 468 696 q 351 651 397 653 l 351 782 z "},"‘":{"ha":356,"x_min":65,"x_max":294,"o":"m 65 846 q 164 1017 65 965 q 261 1042 206 1039 l 261 911 q 175 879 201 911 q 164 846 164 864 l 294 846 l 294 631 l 65 622 l 65 846 z "},"’":{"ha":311,"x_min":58,"x_max":254,"o":"m 92 782 q 149 814 133 782 q 157 846 154 828 l 58 839 l 58 1042 l 254 1042 l 254 846 q 231 738 254 779 q 174 675 208 696 q 92 651 135 653 l 92 782 z "},"‚":{"ha":332,"x_min":68,"x_max":263,"o":"m 100 -65 q 157 -32 140 -65 q 165 0 165 -19 l 68 0 l 68 196 l 263 196 l 263 0 q 240 -108 263 -67 q 182 -171 217 -150 q 100 -196 147 -192 l 100 -65 z "}," ":{"ha":339,"x_min":0,"x_max":0,"o":""},"₵":{"ha":739,"x_min":44,"x_max":693,"o":"m 693 354 q 627 132 693 226 q 438 19 561 38 l 438 -65 l 340 -65 l 340 18 q 112 186 179 38 q 44 543 44 335 q 74 755 44 653 q 171 930 104 857 q 340 1017 238 1003 l 340 1107 l 438 1107 l 438 1015 q 573 953 515 1003 q 661 832 631 903 q 692 685 692 761 l 494 675 q 483 758 494 708 q 438 836 472 807 l 438 186 q 495 256 478 206 q 519 371 513 306 l 693 354 m 247 543 q 267 316 247 408 q 340 192 286 224 l 340 850 q 267 740 288 825 q 247 543 247 654 z "},"¢":{"ha":667,"x_min":35,"x_max":629,"o":"m 297 -11 q 102 127 169 15 q 35 388 35 239 q 64 571 35 483 q 152 717 93 658 q 297 788 211 776 l 297 911 l 392 911 l 392 788 q 560 696 496 771 q 629 511 625 621 l 444 503 q 427 575 438 544 q 392 622 417 606 l 392 147 q 444 199 428 156 q 463 293 460 243 l 625 275 q 556 65 607 138 q 392 -17 504 -8 l 392 -131 l 297 -131 l 297 -11 m 297 624 q 244 535 256 596 q 232 390 232 474 q 244 261 232 318 q 297 171 256 204 l 297 624 z "},"₡":{"ha":760,"x_min":44,"x_max":713,"o":"m 713 354 q 679 192 713 267 q 579 69 646 117 q 415 17 513 22 l 401 -65 l 338 -65 l 351 17 q 289 29 318 21 l 272 -65 l 208 -65 l 229 56 q 87 247 129 117 q 44 543 44 378 q 80 769 44 661 q 194 949 115 878 q 394 1019 274 1019 l 399 1019 l 414 1107 l 478 1107 l 461 1013 q 524 993 492 1007 l 543 1107 l 607 1107 l 581 958 q 677 837 643 910 q 711 685 711 764 l 532 676 l 446 185 q 512 253 492 203 q 540 371 532 303 l 713 354 m 247 543 q 272 300 247 388 l 369 856 q 274 757 300 847 q 247 543 247 667 m 321 211 q 381 179 347 185 l 488 792 q 432 847 465 833 l 321 211 z "},"¤":{"ha":822,"x_min":60,"x_max":765,"o":"m 60 376 l 154 461 q 119 619 119 526 q 157 781 119 715 l 60 867 l 124 940 l 221 856 q 411 911 296 911 q 603 854 528 911 l 700 940 l 765 867 l 667 781 q 704 618 704 710 q 668 461 704 528 l 765 376 l 700 303 l 607 386 q 411 326 532 326 q 218 385 289 326 l 124 303 l 60 376 m 411 474 q 542 618 542 474 q 411 764 542 764 q 282 618 282 764 q 411 474 282 474 z "}}}
